<svg width="56" height="56" viewBox="0 0 56 56" fill="none" xmlns="http://www.w3.org/2000/svg">
<g clip-path="url(#clip0_248_9631)">
<path d="M56 5.14101C56 16.8812 56 28.6199 56 40.3601C55.6684 41.1562 55.4127 41.9976 54.9846 42.7383C54.3826 43.7827 53.4534 44.5043 52.2481 44.9981C52.2481 44.7191 52.2481 44.5233 52.2481 44.3261C52.2481 42.5031 52.2715 40.68 52.2379 38.8585C52.2232 38.0433 52.1809 37.2107 52.0026 36.419C50.7651 30.9075 45.6559 27.5477 40.0879 28.5469C35.6916 29.3357 32.1296 33.3221 31.9324 37.7965C31.8287 40.1425 31.8754 42.4972 31.8856 44.8476C31.8871 45.3355 31.7731 45.4947 31.2545 45.4918C27.5186 45.4684 23.7827 45.4786 20.0469 45.4786C15.4358 45.4786 10.8248 45.4903 6.2138 45.4743C2.62258 45.4626 0.00294072 42.8303 0.00294072 39.2602C1.86488e-05 28.1817 -0.00290342 17.1003 0.00440175 6.02039C0.00732382 2.68107 2.67225 0.00640598 6.00487 0.00494522C20.6766 -0.00235862 35.3468 -0.000897856 50.0185 0.00494522C52.6513 0.00640598 54.989 1.76079 55.7487 4.26601C55.8364 4.5567 55.9167 4.84885 56 5.14101ZM28.0548 21.2138C21.73 21.2138 15.4052 21.2138 9.08035 21.2138C8.91671 21.2138 8.75162 21.2065 8.58798 21.2168C7.53019 21.2869 6.81721 22.3021 7.11233 23.3159C7.33733 24.0901 7.99334 24.4889 9.05259 24.4889C21.6847 24.4889 34.3153 24.4889 46.9474 24.4889C47.0935 24.4889 47.2397 24.4962 47.3843 24.4801C47.9161 24.4246 48.3705 24.2172 48.6715 23.757C49.0177 23.2268 49.063 22.66 48.7664 22.0991C48.4377 21.4782 47.8927 21.2124 47.1944 21.2124C40.814 21.2153 34.4351 21.2138 28.0548 21.2138ZM28.03 14.1992C21.7431 14.1992 15.4548 14.1992 9.16801 14.1992C8.94886 14.1992 8.7297 14.1919 8.51201 14.208C7.59886 14.2796 6.92532 15.1385 7.0685 16.0442C7.21461 16.9761 7.86038 17.4377 9.02775 17.4377C21.6759 17.4392 34.3241 17.4377 46.9708 17.4377C47.1534 17.4377 47.3361 17.4363 47.5172 17.4173C48.2302 17.3413 48.765 16.852 48.9125 16.1552C49.1419 15.0655 48.3778 14.2007 47.1666 14.2007C40.7863 14.1963 34.4074 14.1992 28.03 14.1992ZM28.0007 10.4056C32.0639 10.4056 36.127 10.4085 40.1902 10.4042C41.1983 10.4027 41.8981 9.75265 41.9142 8.82798C41.9317 7.88287 41.2772 7.21676 40.2705 7.15979C40.1069 7.15102 39.9432 7.1554 39.7781 7.1554C31.9251 7.1554 24.072 7.1554 16.2204 7.15687C15.9297 7.15687 15.6345 7.16125 15.3496 7.21091C14.736 7.31901 14.2232 7.84781 14.1078 8.44672C13.9018 9.51893 14.6586 10.4012 15.8113 10.4027C19.8745 10.41 23.9376 10.4056 28.0007 10.4056ZM17.5806 36.6527C20.4574 36.6527 23.3357 36.6542 26.2124 36.6498C26.4462 36.6498 26.6902 36.6469 26.9123 36.584C27.6881 36.3678 28.2053 35.5951 28.103 34.8472C27.9818 33.9634 27.2921 33.3952 26.2826 33.3952C20.4735 33.3893 14.6644 33.3908 8.85389 33.3996C8.57045 33.3996 8.26801 33.4536 8.00649 33.5617C7.2935 33.8553 6.93263 34.5915 7.08311 35.3468C7.23798 36.1181 7.86038 36.6483 8.67418 36.6498C11.643 36.6571 14.6118 36.6512 17.5806 36.6527Z" fill="#0F0F0F"/>
<path d="M36.3126 56.001C35.4067 55.5569 35.0941 54.8294 35.1116 53.8317C35.154 51.2812 35.1262 48.7293 35.1262 46.0283C37.1643 47.7754 39.4231 48.7176 42.0311 48.719C44.6507 48.722 46.927 47.809 48.99 46.0254C48.99 46.3263 48.99 46.5001 48.99 46.674C48.99 49.0623 48.9607 51.4507 49.0031 53.8376C49.0206 54.8338 48.7182 55.5686 47.7978 56.0024C47.469 56.0024 47.1418 56.0024 46.813 56.0024C45.2322 54.9463 43.6499 53.8916 42.0617 52.8311C40.4634 53.8945 38.8796 54.9478 37.2973 56.0024C36.9686 56.001 36.6413 56.001 36.3126 56.001Z" fill="#0F0F0F"/>
<path d="M28.0548 21.2135C34.4337 21.2135 40.814 21.2149 47.1929 21.212C47.8927 21.212 48.4377 21.4779 48.765 22.0987C49.0616 22.6596 49.0163 23.2264 48.67 23.7567C48.369 24.2168 47.9146 24.4242 47.3828 24.4797C47.2382 24.4943 47.0921 24.4885 46.946 24.4885C34.3139 24.4885 21.6832 24.4885 9.05112 24.4885C7.99334 24.4885 7.33733 24.0897 7.11087 23.3155C6.81574 22.3032 7.52873 21.2865 8.58652 21.2164C8.75015 21.2062 8.91379 21.2135 9.07888 21.2135C15.4052 21.2135 21.73 21.2135 28.0548 21.2135Z" fill="white"/>
<path d="M28.0299 14.1995C34.4088 14.1995 40.7877 14.198 47.1666 14.2009C48.3778 14.2009 49.1404 15.0657 48.9125 16.1554C48.7664 16.8522 48.2302 17.3416 47.5172 17.4175C47.336 17.4365 47.1534 17.438 46.9708 17.438C34.3226 17.4394 21.6744 17.4394 9.02771 17.438C7.86035 17.438 7.21457 16.9749 7.06847 16.0444C6.92675 15.1402 7.59882 14.2798 8.51197 14.2082C8.72966 14.1907 8.94882 14.1995 9.16797 14.1995C15.4548 14.198 21.7416 14.1995 28.0299 14.1995Z" fill="white"/>
<path d="M28.0007 10.4041C23.9376 10.4041 19.8745 10.4071 15.8113 10.4027C14.6586 10.4012 13.9018 9.51892 14.1078 8.44671C14.2232 7.8478 14.7375 7.319 15.3496 7.2109C15.6345 7.16124 15.9297 7.15685 16.2204 7.15685C24.0735 7.15393 31.9265 7.15539 39.7781 7.15539C39.9418 7.15539 40.1069 7.15101 40.2705 7.15977C41.2772 7.21674 41.9317 7.88285 41.9142 8.82797C41.8966 9.75264 41.1983 10.4041 40.1902 10.4041C36.127 10.4071 32.0639 10.4041 28.0007 10.4041Z" fill="white"/>
<path d="M17.5806 36.6512C14.6118 36.6512 11.6445 36.6555 8.67564 36.6468C7.86184 36.6438 7.23944 36.115 7.08457 35.3438C6.93262 34.5885 7.29496 33.8523 8.00795 33.5587C8.26947 33.4506 8.5719 33.398 8.85535 33.3966C14.6644 33.3878 20.4735 33.3863 26.284 33.3922C27.2936 33.3936 27.9832 33.9619 28.1045 34.8442C28.2068 35.5921 27.691 36.3648 26.9137 36.581C26.6917 36.6424 26.4477 36.6453 26.2139 36.6468C23.3357 36.6541 20.4574 36.6526 17.5806 36.6512Z" fill="white"/>
<path d="M42.0836 31.6192C45.8721 31.6279 48.9929 34.7627 48.9885 38.5549C48.9841 42.3383 45.8443 45.476 42.0617 45.4789C38.2616 45.4804 35.1101 42.312 35.1276 38.5052C35.1437 34.7233 38.2893 31.6104 42.0836 31.6192Z" fill="#0F0F0F"/>
</g>
<defs>
<clipPath id="clip0_248_9631">
<rect width="56" height="56" fill="white"/>
</clipPath>
</defs>
</svg>
