<svg width="59" height="59" viewBox="0 0 59 59" fill="none" xmlns="http://www.w3.org/2000/svg">
<g clip-path="url(#clip0_272_10642)">
<path d="M59 57.2036V57.3406C59 58.2565 58.2561 59.0001 57.3396 59.0001H1.66041C0.74395 59.0001 0 58.2565 0 57.3406V57.1882C0 56.2722 0.74395 55.5286 1.66041 55.5286H4.26192C5.17838 55.5286 5.92233 54.7851 5.92233 53.8691V13.7783C5.92233 12.967 6.51072 12.2743 7.31166 12.1403C13.4897 11.1104 19.6338 10.0882 25.8164 9.05832C26.8284 8.88898 27.7526 9.66949 27.7526 10.6963V53.8521C27.7526 54.7681 28.4965 55.5117 29.413 55.5117H29.5793C30.4958 55.5117 31.2397 54.7681 31.2397 53.8521V18.5353C31.2397 17.6193 31.9837 16.8757 32.9001 16.8757H51.4096C52.326 16.8757 53.07 17.6193 53.07 18.5353V53.8829C53.07 54.7989 53.8139 55.5425 54.7304 55.5425H57.335C58.2561 55.5425 59 56.286 59 57.2036ZM19.3535 52.2588V53.8491C19.3535 54.765 20.0974 55.5086 21.0139 55.5086H21.0817C21.9981 55.5086 22.7421 54.765 22.7421 53.8491V48.8135C22.7421 47.8975 21.9981 47.1539 21.0817 47.1539H12.604C11.6876 47.1539 10.9436 47.8975 10.9436 48.8135V53.8506C10.9436 54.7666 11.6876 55.5101 12.604 55.5101H12.6964C13.6129 55.5101 14.3568 54.7666 14.3568 53.8506V52.2588C14.3568 51.3428 15.1008 50.5992 16.0173 50.5992H17.6915C18.6095 50.5992 19.3535 51.3428 19.3535 52.2588ZM37.772 50.5331H38.057C38.9734 50.5331 39.7174 49.7895 39.7174 48.8735V48.8165C39.7174 47.9006 38.9734 47.157 38.057 47.157H37.772C36.8556 47.157 36.1116 47.9006 36.1116 48.8165V48.8735C36.1116 49.7895 36.8556 50.5331 37.772 50.5331ZM19.2564 15.0992V15.1438C19.2564 16.0598 20.0004 16.8034 20.9169 16.8034H21.1956C22.1121 16.8034 22.8561 16.0598 22.8561 15.1438V15.0992C22.8561 14.1832 22.1121 13.4396 21.1956 13.4396H20.9169C20.0004 13.4396 19.2564 14.1817 19.2564 15.0992ZM14.4031 40.4557V40.4095C14.4031 39.4935 13.6591 38.75 12.7426 38.75H12.4977C11.5813 38.75 10.8373 39.4935 10.8373 40.4095V40.4557C10.8373 41.3717 11.5813 42.1153 12.4977 42.1153H12.7426C13.6606 42.1153 14.4031 41.3717 14.4031 40.4557ZM20.8968 42.1029H21.1956C22.1121 42.1029 22.8561 41.3594 22.8561 40.4434V40.4095C22.8561 39.4935 22.1121 38.75 21.1956 38.75H20.8968C19.9804 38.75 19.2364 39.4935 19.2364 40.4095V40.4434C19.2364 41.3594 19.9804 42.1029 20.8968 42.1029ZM38.06 38.7515H37.7843C36.8679 38.7515 36.1239 39.4951 36.1239 40.4111V40.4449C36.1239 41.3609 36.8679 42.1045 37.7843 42.1045H38.06C38.9765 42.1045 39.7205 41.3609 39.7205 40.4449V40.4111C39.7205 39.4951 38.978 38.7515 38.06 38.7515ZM46.2111 42.0999H46.4745C47.391 42.0999 48.1349 41.3563 48.1349 40.4403V40.4065C48.1349 39.4905 47.391 38.7469 46.4745 38.7469H46.2111C45.2947 38.7469 44.5507 39.4905 44.5507 40.4065V40.4403C44.5507 41.3563 45.2931 42.0999 46.2111 42.0999ZM44.5785 48.8012V48.8766C44.5785 49.7926 45.3224 50.5361 46.2389 50.5361H46.4607C47.3771 50.5361 48.1211 49.7926 48.1211 48.8766V48.8012C48.1211 47.8852 47.3771 47.1416 46.4607 47.1416H46.2389C45.3224 47.1416 44.5785 47.8852 44.5785 48.8012ZM12.4854 25.2119H12.7503C13.6668 25.2119 14.4108 24.4684 14.4108 23.5524V23.5431C14.4108 22.6272 13.6668 21.8836 12.7503 21.8836H12.4854C11.569 21.8836 10.825 22.6272 10.825 23.5431V23.5524C10.8235 24.4684 11.5674 25.2119 12.4854 25.2119ZM21.1956 21.879H20.9153C19.9989 21.879 19.2549 22.6226 19.2549 23.5385V23.5662C19.2549 24.4822 19.9989 25.2258 20.9153 25.2258H21.1956C22.1121 25.2258 22.8561 24.4822 22.8561 23.5662V23.5385C22.8561 22.6226 22.1121 21.879 21.1956 21.879ZM38.0631 21.8851H37.7828C36.8663 21.8851 36.1224 22.6287 36.1224 23.5447V23.5616C36.1224 24.4776 36.8663 25.2212 37.7828 25.2212H38.0631C38.9796 25.2212 39.7235 24.4776 39.7235 23.5616V23.5447C39.7251 22.6287 38.9811 21.8851 38.0631 21.8851ZM44.56 23.537V23.5585C44.56 24.4745 45.3039 25.2181 46.2204 25.2181H46.4668C47.3833 25.2181 48.1272 24.4745 48.1272 23.5585V23.537C48.1272 22.621 47.3833 21.8774 46.4668 21.8774H46.2204C45.3039 21.8774 44.56 22.6195 44.56 23.537ZM14.4046 32.004V31.9887C14.4046 31.0727 13.6606 30.3291 12.7442 30.3291H12.5054C11.589 30.3291 10.845 31.0727 10.845 31.9887V32.004C10.845 32.92 11.589 33.6636 12.5054 33.6636H12.7442C13.6606 33.6636 14.4046 32.92 14.4046 32.004ZM22.8499 32.0025V31.9763C22.8499 31.0604 22.1059 30.3168 21.1895 30.3168H20.9138C19.9973 30.3168 19.2534 31.0604 19.2534 31.9763V32.0025C19.2534 32.9185 19.9973 33.6621 20.9138 33.6621H21.1895C22.1059 33.6636 22.8499 32.92 22.8499 32.0025ZM37.7736 33.6497H38.0431C38.9596 33.6497 39.7035 32.9062 39.7035 31.9902C39.7035 31.0742 38.9596 30.3307 38.0431 30.3307H37.7736C36.8571 30.3307 36.1131 31.0742 36.1131 31.9902C36.1131 32.9077 36.8556 33.6497 37.7736 33.6497ZM48.138 32.0087V31.981C48.138 31.065 47.3941 30.3214 46.4776 30.3214H46.2343C45.3178 30.3214 44.5738 31.065 44.5738 31.981V32.0087C44.5738 32.9246 45.3178 33.6682 46.2343 33.6682H46.4776C47.3941 33.6698 48.138 32.9262 48.138 32.0087Z" fill="#0F0F0F"/>
<path d="M22.7527 0C23.2225 0 23.6014 0.381787 23.5968 0.851324C23.5845 2.31074 23.5722 3.77169 23.5598 5.2311C23.5598 5.23264 23.5598 5.23572 23.5598 5.23726C23.5567 5.6483 23.2595 5.99776 22.8528 6.06549C18.9298 6.71977 15.0452 7.36634 11.0975 8.02523C10.5831 8.11144 10.1133 7.71426 10.1133 7.19238V0.843627C10.1133 0.377169 10.4922 0 10.9573 0H22.7527Z" fill="#0F0F0F"/>
<path d="M17.6593 50.5996H16.0528C15.1164 50.5996 14.3585 51.3586 14.3585 52.293V53.8186C14.3585 54.7546 13.5992 55.5121 12.6643 55.5121H12.6396C11.7031 55.5121 10.9453 54.7531 10.9453 53.8186V48.8477C10.9453 47.9117 11.7047 47.1543 12.6396 47.1543H21.0495C21.986 47.1543 22.7438 47.9133 22.7438 48.8477V53.8156C22.7438 54.7516 21.9844 55.509 21.0495 55.509C20.113 55.509 19.3552 54.75 19.3552 53.8156V52.2915C19.3536 51.357 18.5943 50.5996 17.6593 50.5996Z" fill="white"/>
<path d="M36.1118 50.5338C36.1118 49.3931 36.1118 48.2908 36.1118 47.1562C37.324 47.1562 38.5054 47.1562 39.7176 47.1562C39.7176 48.2801 39.7176 49.3854 39.7176 50.5338C38.5347 50.5338 37.3548 50.5338 36.1118 50.5338Z" fill="white"/>
<path d="M20.0419 13.4395H22.072C22.5048 13.4395 22.8575 13.7905 22.8575 14.2246V16.0196C22.8575 16.4522 22.5063 16.8047 22.072 16.8047H20.0419C19.6091 16.8047 19.2563 16.4537 19.2563 16.0196V14.223C19.2563 13.7905 19.6075 13.4395 20.0419 13.4395Z" fill="white"/>
<path d="M13.6192 42.1149H11.6215C11.1887 42.1149 10.8359 41.7639 10.8359 41.3297V39.5332C10.8359 39.1006 11.1871 38.748 11.6215 38.748H13.6177C14.0505 38.748 14.4032 39.099 14.4032 39.5332V41.3313C14.4032 41.7639 14.052 42.1149 13.6192 42.1149Z" fill="white"/>
<path d="M19.2363 41.3174V39.5332C19.2363 39.1006 19.5875 38.748 20.0219 38.748H22.072C22.5048 38.748 22.8575 39.099 22.8575 39.5332V41.3174C22.8575 41.75 22.5063 42.1025 22.072 42.1025H20.0219C19.5875 42.1025 19.2363 41.7515 19.2363 41.3174Z" fill="white"/>
<path d="M39.7206 39.5371V41.3213C39.7206 41.7539 39.3694 42.1064 38.9351 42.1064H36.9081C36.4753 42.1064 36.1226 41.7554 36.1226 41.3213V39.5371C36.1226 39.1045 36.4737 38.752 36.9081 38.752H38.9351C39.3694 38.752 39.7206 39.103 39.7206 39.5371Z" fill="white"/>
<path d="M44.5508 41.3155V39.5312C44.5508 39.0986 44.902 38.7461 45.3363 38.7461H47.3525C47.7853 38.7461 48.1381 39.0971 48.1381 39.5312V41.3155C48.1381 41.7481 47.7869 42.1006 47.3525 42.1006H45.3363C44.902 42.1006 44.5508 41.7496 44.5508 41.3155Z" fill="white"/>
<path d="M44.5786 47.1406C45.7708 47.1406 46.9214 47.1406 48.1212 47.1406C48.1212 48.2614 48.1212 49.379 48.1212 50.5367C46.9599 50.5367 45.797 50.5367 44.5786 50.5367C44.5786 49.4283 44.5786 48.3106 44.5786 47.1406Z" fill="white"/>
<path d="M10.8232 24.4275V22.6679C10.8232 22.2354 11.1744 21.8828 11.6088 21.8828H13.6265C14.0593 21.8828 14.4121 22.2338 14.4121 22.6679V24.4275C14.4121 24.8601 14.0609 25.2127 13.6265 25.2127H11.6088C11.176 25.2127 10.8232 24.8617 10.8232 24.4275Z" fill="white"/>
<path d="M22.8561 22.664V24.4421C22.8561 24.8747 22.5049 25.2272 22.0706 25.2272H20.039C19.6061 25.2272 19.2534 24.8762 19.2534 24.4421V22.664C19.2534 22.2314 19.6046 21.8789 20.039 21.8789H22.0706C22.5049 21.8789 22.8561 22.2299 22.8561 22.664Z" fill="white"/>
<path d="M39.7252 22.6145V24.4911C39.7252 24.8944 39.3986 25.2208 38.9951 25.2208H36.8541C36.4506 25.2208 36.124 24.8944 36.124 24.4911V22.6145C36.124 22.2111 36.4506 21.8848 36.8541 21.8848H38.9951C39.3971 21.8848 39.7252 22.2111 39.7252 22.6145Z" fill="white"/>
<path d="M45.3456 21.877H47.3433C47.7761 21.877 48.1289 22.228 48.1289 22.6621V24.434C48.1289 24.8666 47.7777 25.2191 47.3433 25.2191H45.3456C44.9128 25.2191 44.5601 24.8681 44.5601 24.434V22.6605C44.5601 22.228 44.9128 21.877 45.3456 21.877Z" fill="white"/>
<path d="M13.6188 33.6641H11.6288C11.196 33.6641 10.8433 33.3131 10.8433 32.879V31.1133C10.8433 30.6807 11.1944 30.3281 11.6288 30.3281H13.6188C14.0516 30.3281 14.4044 30.6791 14.4044 31.1133V32.8806C14.4044 33.3131 14.0532 33.6641 13.6188 33.6641Z" fill="white"/>
<path d="M22.0659 33.6632H20.039C19.6061 33.6632 19.2534 33.3122 19.2534 32.8781V31.1015C19.2534 30.6689 19.6046 30.3164 20.039 30.3164H22.0659C22.4988 30.3164 22.8515 30.6674 22.8515 31.1015V32.8781C22.8499 33.3107 22.4988 33.6632 22.0659 33.6632Z" fill="white"/>
<path d="M36.1133 32.8656V31.1152C36.1133 30.6826 36.4645 30.3301 36.8988 30.3301H38.9196C39.3525 30.3301 39.7052 30.6811 39.7052 31.1152V32.8656C39.7052 33.2982 39.354 33.6507 38.9196 33.6507H36.8988C36.4645 33.6492 36.1133 33.2982 36.1133 32.8656Z" fill="white"/>
<path d="M47.3524 33.6706H45.3578C44.925 33.6706 44.5723 33.3196 44.5723 32.8855V31.1074C44.5723 30.6748 44.9234 30.3223 45.3578 30.3223H47.3524C47.7853 30.3223 48.138 30.6733 48.138 31.1074V32.8855C48.138 33.3181 47.7868 33.6706 47.3524 33.6706Z" fill="white"/>
</g>
<defs>
<clipPath id="clip0_272_10642">
<rect width="59" height="59" fill="white"/>
</clipPath>
</defs>
</svg>
