<svg width="31" height="26" viewBox="0 0 31 26" fill="none" xmlns="http://www.w3.org/2000/svg">
<path d="M27.125 5.2H6.45833C5.34879 5.2 4.29867 4.7164 3.57146 3.9013C4.28188 3.1031 5.31392 2.6 6.45833 2.6H29.7083C31.3978 2.5922 31.3965 0.0065 29.7083 0H6.45833C2.89204 0 0 2.9107 0 6.5V19.5C0 23.0893 2.89204 26 6.45833 26H27.125C29.2653 26 31 24.2541 31 22.1V9.1C31 6.9459 29.2653 5.2 27.125 5.2ZM25.8333 16.9C24.1438 16.8922 24.1438 14.3078 25.8333 14.3C27.5228 14.3078 27.5228 16.8922 25.8333 16.9Z" fill="#045438"/>
</svg>
