<svg width="75" height="52" viewBox="0 0 75 52" fill="none" xmlns="http://www.w3.org/2000/svg">
<g clip-path="url(#clip0_272_10669)">
<path d="M0 3.60168C0.492652 1.91054 1.28129 0.579181 2.77093 0.136677C3.07859 0.0443284 3.40378 0.00584975 3.72118 0.00584975C18.8045 7.79544e-05 33.8918 -0.00184598 48.9771 0.00200189C51.1151 0.00200189 52.6982 1.88553 52.7041 4.55979C52.7255 14.5719 52.7274 24.5821 52.7021 34.5943C52.6963 37.3744 51.1794 39.0251 48.9498 39.0097C43.332 38.9712 37.7161 38.9905 32.0984 38.9905C25.9081 38.9885 19.7178 38.9982 13.5275 38.9789C12.8927 38.977 12.3961 39.1925 11.9191 39.7312C10.4041 41.4358 8.8619 43.1019 7.30411 44.7449C7.07628 44.9835 6.64399 45.2105 6.4298 45.0951C6.22339 44.9835 6.09098 44.4236 6.07345 44.0485C6.02477 43.0788 6.05787 42.1053 6.05787 41.1318C6.05592 39.5696 5.70932 39.1405 4.47866 39.1213C3.93148 39.1136 3.36873 39.1444 2.83908 39.0059C1.31634 38.6038 0.498494 37.2532 0 35.5255C0 24.8842 0 14.2429 0 3.60168ZM33.1168 29.8941C37.72 29.8941 42.3253 29.8941 46.9286 29.8922C47.1797 29.8922 47.4368 29.9114 47.6821 29.8595C48.3111 29.7229 48.6363 29.038 48.4786 28.2684C48.2799 27.3026 47.6938 27.2083 47.0337 27.2102C37.757 27.216 28.4804 27.2141 19.2037 27.216C19.0207 27.216 18.8357 27.2179 18.6565 27.2526C18.0879 27.3641 17.6965 27.9356 17.7452 28.6224C17.7959 29.3304 18.1035 29.7845 18.6857 29.8768C18.9116 29.9134 19.1433 29.896 19.3712 29.896C23.953 29.8941 28.5349 29.8941 33.1168 29.8941ZM35.841 12.0439C39.529 12.0439 43.2171 12.0439 46.9071 12.042C47.1583 12.042 47.4193 12.0747 47.6607 12.0093C48.2332 11.8534 48.6168 11.4321 48.5993 10.651C48.5818 9.87946 48.2235 9.45427 47.6081 9.38116C47.4037 9.35808 47.1973 9.36193 46.9909 9.36193C39.5913 9.36193 32.1918 9.36 24.7903 9.36193C24.5392 9.36193 24.2568 9.30036 24.0426 9.41772C23.7486 9.5774 23.4117 9.81212 23.2598 10.1373C22.8236 11.0665 23.3942 12.0343 24.362 12.0362C28.1883 12.0497 32.0146 12.042 35.841 12.0439ZM10.9571 24.9573C10.9805 24.7476 11.0136 24.636 11.0039 24.5302C10.7527 21.8963 11.6854 19.8608 13.0115 17.9465C13.6755 16.9865 14.2772 15.886 14.6725 14.7258C15.5799 12.0631 15.1398 8.22873 12.1858 7.08976C11.0876 6.6665 9.83942 6.68959 8.67107 6.76847C7.63709 6.83773 6.61478 7.2533 5.75216 8.14792C6.00919 8.90211 6.25454 9.62166 6.4259 10.1219C7.5592 9.82752 8.56982 9.41002 9.59601 9.33691C11.2356 9.21955 12.2559 10.3085 12.4195 12.0554C12.5247 13.1848 12.2793 14.2275 11.7886 15.1453C11.2317 16.188 10.5969 17.1692 9.98157 18.162C8.85801 19.9743 8.25631 21.9675 8.51529 24.2993C8.56397 24.7418 8.6516 24.9804 9.04689 24.9631C9.66027 24.9381 10.2775 24.9573 10.9571 24.9573ZM38.3763 20.969C41.2192 20.969 44.0603 20.969 46.9032 20.969C47.1096 20.969 47.3161 20.9786 47.5225 20.9555C48.13 20.8901 48.5448 20.3707 48.537 19.7088C48.5272 18.9566 48.1397 18.4121 47.54 18.314C47.4485 18.2986 47.3569 18.2909 47.2654 18.2909C41.3516 18.2909 35.4379 18.2909 29.5241 18.2928C29.4092 18.2928 29.2943 18.3024 29.1833 18.3332C28.6128 18.491 28.3168 18.9354 28.3226 19.6665C28.3285 20.4976 28.7705 20.9652 29.5767 20.9671C32.5073 20.9709 35.4418 20.9671 38.3763 20.969ZM11.4284 30.3559C11.4303 28.8821 10.7429 27.9163 9.68948 27.9144C8.66912 27.9125 7.96617 28.8302 7.95838 30.175C7.95059 31.566 8.65744 32.501 9.7109 32.4953C10.7683 32.4895 11.4264 31.668 11.4284 30.3559Z" fill="#0F0F0F"/>
<path d="M55.3506 15.2747C55.703 15.2574 55.9854 15.2324 56.2677 15.2324C61.1592 15.2304 66.0487 15.2343 70.9402 15.2285C72.1124 15.2266 73.1776 15.494 74.011 16.3656C74.6263 17.0082 74.9749 17.7316 74.9729 18.6666C74.9515 27.0742 74.9126 35.4837 75.0002 43.8893C75.0177 45.5362 73.2711 47.2774 71.6373 47.2466C71.2031 47.2389 70.7689 47.237 70.3346 47.2485C69.2734 47.2793 68.7359 47.7968 68.7126 48.8396C68.6931 49.64 68.7281 50.4422 68.695 51.2407C68.6853 51.4965 68.5334 51.7467 68.4458 51.9987C68.1965 51.889 67.9084 51.8255 67.7058 51.6601C66.2571 50.4749 64.7967 49.3013 63.4024 48.0566C62.6157 47.3543 61.7706 47.0965 60.7269 47.0984C48.7163 47.1196 36.7057 47.0869 24.6971 47.1331C22.3643 47.1427 20.935 45.6747 20.678 44.0971C20.5689 43.4314 20.6605 42.733 20.6605 41.8961C21.0149 41.8961 21.3751 41.8961 21.7334 41.8961C30.2993 41.8961 38.8652 41.9019 47.4331 41.8923C51.238 41.8884 54.1277 39.8471 55.0507 36.4822C55.2591 35.7222 55.337 34.9065 55.3389 34.1158C55.3623 28.167 55.3525 22.2182 55.3525 16.2694C55.3506 15.9635 55.3506 15.6537 55.3506 15.2747ZM63.9866 32.6747C65.4879 32.6747 66.9912 32.6824 68.4925 32.6728C69.4506 32.667 70.0737 32.138 70.0932 31.3511C70.1126 30.5911 69.4681 29.9678 68.5412 29.9601C65.5074 29.9389 62.4736 29.937 59.4417 29.9601C58.4564 29.9678 57.9073 30.5142 57.919 31.3414C57.9307 32.1726 58.4934 32.6651 59.4807 32.6709C60.9801 32.6824 62.4833 32.6747 63.9866 32.6747ZM64.0353 24.8366C64.0353 24.8386 64.0353 24.8386 64.0353 24.8405C65.5386 24.8405 67.0438 24.8867 68.5431 24.8116C69.0008 24.7885 69.5966 24.548 69.8575 24.2037C70.5235 23.3283 69.7913 22.1758 68.5977 22.1681C65.5347 22.1489 62.4716 22.1547 59.4067 22.1662C58.474 22.1701 57.9287 22.6722 57.917 23.4706C57.9054 24.2864 58.4194 24.8116 59.3522 24.8289C60.9139 24.8578 62.4736 24.8366 64.0353 24.8366ZM64.8025 40.3878C66.0137 40.3878 67.2249 40.3993 68.4361 40.3839C69.433 40.3724 70.0912 39.8125 70.0912 39.0102C70.0912 38.208 69.433 37.6442 68.4361 37.6385C66.0702 37.6269 63.7062 37.6269 61.3403 37.6385C60.3394 37.6442 59.6851 38.208 59.6871 39.0102C59.689 39.8164 60.3414 40.3705 61.3422 40.382C62.495 40.3993 63.6497 40.3878 64.8025 40.3878Z" fill="#0F0F0F"/>
<path d="M33.1168 29.8948C28.535 29.8948 23.9551 29.8948 19.3732 29.8948C19.1434 29.8948 18.9117 29.9121 18.6878 29.8756C18.1055 29.7832 17.7959 29.3292 17.7472 28.6211C17.6986 27.9343 18.09 27.3629 18.6586 27.2513C18.8377 27.2167 19.0246 27.2148 19.2057 27.2148C28.4824 27.2128 37.7591 27.2148 47.0357 27.209C47.6958 27.209 48.282 27.3013 48.4806 28.2671C48.6383 29.0386 48.3131 29.7216 47.6842 29.8582C47.4388 29.9121 47.1818 29.8909 46.9306 29.8909C42.3234 29.8948 37.7201 29.8948 33.1168 29.8948Z" fill="white"/>
<path d="M35.8411 12.0438C32.0148 12.0438 28.1884 12.0496 24.3641 12.0381C23.3963 12.0361 22.8257 11.0684 23.2619 10.1391C23.4138 9.814 23.7507 9.57928 24.0447 9.41959C24.2589 9.30223 24.5413 9.3638 24.7925 9.3638C32.192 9.36187 39.5915 9.36187 46.993 9.3638C47.1994 9.3638 47.4058 9.35995 47.6102 9.38304C48.2256 9.45422 48.5819 9.88133 48.6014 10.6528C48.6189 11.432 48.2353 11.8553 47.6628 12.0111C47.4214 12.0765 47.1604 12.0438 46.9092 12.0438C43.2173 12.0438 39.5292 12.0438 35.8411 12.0438Z" fill="white"/>
<path d="M10.9436 24.9573C10.1959 24.9573 9.5163 24.9381 8.83866 24.9631C8.40442 24.9785 8.30706 24.7418 8.25254 24.2993C7.96629 21.9675 8.62835 19.9743 9.86485 18.162C10.5425 17.1693 11.2396 16.1881 11.853 15.1453C12.3924 14.2276 12.663 13.1848 12.5482 12.0554C12.369 10.3066 11.2454 9.21957 9.4423 9.33693C8.3129 9.41004 7.20103 9.82946 5.95479 10.1219C5.76591 9.62168 5.49719 8.90213 5.21289 8.14794C6.1612 7.25332 7.2867 6.83775 8.42584 6.76849C9.71102 6.68961 11.0858 6.66652 12.295 7.08978C15.5469 8.22875 16.0298 12.0631 15.0328 14.7259C14.5986 15.886 13.9365 16.9884 13.2063 17.9465C11.7498 19.8608 10.7236 21.8964 10.9981 24.5302C11.0059 24.636 10.9709 24.7495 10.9436 24.9573Z" fill="white"/>
<path d="M38.3764 20.9691C35.442 20.9691 32.5094 20.9729 29.5749 20.9653C28.7688 20.9633 28.3287 20.4958 28.3209 19.6647C28.315 18.9336 28.611 18.4892 29.1816 18.3314C29.2926 18.3006 29.4094 18.291 29.5223 18.291C35.4361 18.2891 41.3499 18.2891 47.2637 18.2891C47.3552 18.2891 47.4467 18.2968 47.5382 18.3122C48.136 18.4103 48.5255 18.9547 48.5352 19.707C48.5449 20.3688 48.1282 20.8883 47.5207 20.9537C47.3162 20.9768 47.1079 20.9672 46.9015 20.9672C44.0604 20.9691 41.2175 20.9691 38.3764 20.9691Z" fill="white"/>
<path d="M11.8472 30.3555C11.8453 31.6696 11.0761 32.4892 9.84156 32.4949C8.6109 32.5007 7.78527 31.5638 7.79501 30.1747C7.80474 28.8299 8.62453 27.9121 9.81625 27.9141C11.0469 27.916 11.8492 28.8799 11.8472 30.3555Z" fill="white"/>
<path d="M63.9862 32.6747C62.4849 32.6747 60.9816 32.6824 59.4803 32.6727C58.4931 32.667 57.9303 32.1725 57.9186 31.3433C57.907 30.5141 58.458 29.9677 59.4414 29.9619C62.4752 29.9388 65.509 29.9408 68.5408 29.9619C69.4677 29.9677 70.1123 30.593 70.0928 31.3529C70.0733 32.1417 69.4502 32.6689 68.4922 32.6747C66.9908 32.6824 65.4876 32.6747 63.9862 32.6747Z" fill="white"/>
<path d="M64.0349 24.8353C62.4752 24.8353 60.9135 24.8565 59.3538 24.8276C58.421 24.8103 57.907 24.2851 57.9187 23.4693C57.9303 22.6709 58.4756 22.1688 59.4083 22.1649C62.4713 22.1534 65.5343 22.1476 68.5993 22.1668C69.7929 22.1745 70.5251 23.327 69.8591 24.2024C69.5982 24.5448 69.0024 24.7872 68.5448 24.8103C67.0454 24.8854 65.5402 24.8392 64.0369 24.8392C64.0349 24.8373 64.0349 24.8353 64.0349 24.8353Z" fill="white"/>
<path d="M64.8024 40.3869C63.6497 40.3869 62.4949 40.3984 61.3422 40.383C60.3413 40.3715 59.6909 39.8155 59.687 39.0113C59.6851 38.209 60.3393 37.6434 61.3402 37.6395C63.7061 37.628 66.0701 37.628 68.436 37.6395C69.433 37.6453 70.0911 38.209 70.0911 39.0113C70.0911 39.8116 69.433 40.3734 68.436 40.385C67.2248 40.3984 66.0136 40.3869 64.8024 40.3869Z" fill="white"/>
</g>
<defs>
<clipPath id="clip0_272_10669">
<rect width="75" height="52" fill="white"/>
</clipPath>
</defs>
</svg>
