<svg width="60" height="52" viewBox="0 0 60 52" fill="none" xmlns="http://www.w3.org/2000/svg">
<g clip-path="url(#clip0_272_10680)">
<path d="M46.0881 4.52977C45.6596 4.52977 45.4333 4.52977 45.2088 4.52977C32.0443 4.52977 18.8798 4.52788 5.71339 4.53165C2.3782 4.53165 0.0020222 6.95631 0.0020222 10.3595C-0.00168768 20.0261 0.00016726 29.6926 0.00387715 39.3592C0.00387715 39.7344 0.0020222 40.1172 0.0706551 40.4829C0.601169 43.3167 2.81597 45.204 5.65403 45.1569C6.41456 45.1437 6.79111 45.3907 7.13984 46.0544C8.03207 47.7512 9.00963 49.4029 9.95936 51.0696C10.6624 52.3027 11.5472 52.3121 12.2428 51.0922C13.2389 49.3444 14.2461 47.6023 15.2051 45.8338C15.4741 45.3379 15.7709 45.1663 16.3292 45.1663C26.0473 45.1852 35.7635 45.1833 45.4815 45.1776C48.6813 45.1757 51.0946 42.719 51.0983 39.4629C51.1057 32.7602 51.1001 26.0557 51.0983 19.353C51.0983 19.1569 51.0723 18.9627 51.0501 18.6422C49.4752 20.2467 47.9894 21.7569 46.5073 23.2709C45.821 23.9723 45.0067 24.3343 44.0235 24.3267C42.4969 24.3135 40.9684 24.3362 39.4418 24.3211C37.4478 24.3003 36.0974 22.9353 36.0714 20.9084C36.0528 19.451 36.0992 17.9917 36.0566 16.5343C36.0213 15.3238 36.4424 14.366 37.2864 13.5195C40.0354 10.7592 42.751 7.96501 45.4797 5.18401C45.6392 5.01998 45.7913 4.8484 46.0881 4.52977Z" fill="white"/>
<path d="M41.6956 22.127C42.4116 22.127 43.1332 22.176 43.8436 22.1082C44.2295 22.0704 44.6969 21.9366 44.9585 21.6726C49.5698 17.0175 54.1757 12.3586 58.7333 7.65072C60.4825 5.8426 60.3879 3.03709 58.6554 1.30627C56.9247 -0.422668 54.1998 -0.450949 52.4116 1.34586C47.8225 5.95572 43.2668 10.6014 38.7184 15.2509C38.4662 15.5092 38.2658 15.939 38.2547 16.2973C38.2028 17.8 38.2157 19.3064 38.2399 20.8091C38.2528 21.6651 38.698 22.095 39.5457 22.1232C40.2599 22.144 40.9778 22.1251 41.6956 22.127Z" fill="white"/>
<path d="M46.0881 4.5293C45.7913 4.84793 45.6392 5.01951 45.4797 5.18354C42.751 7.96454 40.0354 10.7587 37.2864 13.519C36.4424 14.3674 36.0213 15.3234 36.0566 16.5338C36.0974 17.9912 36.0528 19.4505 36.0714 20.908C36.0974 22.9348 37.4459 24.2999 39.4418 24.3206C40.9684 24.3357 42.4951 24.3149 44.0235 24.3263C45.0067 24.3338 45.821 23.9737 46.5073 23.2704C47.9894 21.7564 49.4752 20.2462 51.0501 18.6417C51.0723 18.9622 51.0983 19.1564 51.0983 19.3525C51.1002 26.0552 51.1039 32.7598 51.0983 39.4624C51.0946 42.7186 48.6813 45.1753 45.4815 45.1772C35.7635 45.1828 26.0473 45.1847 16.3292 45.1658C15.7709 45.164 15.4741 45.3374 15.2051 45.8333C14.2461 47.6018 13.2389 49.344 12.2428 51.0917C11.5472 52.3116 10.6624 52.3022 9.95936 51.0691C9.00963 49.4024 8.03207 47.7508 7.13984 46.0539C6.79112 45.3902 6.41271 45.1432 5.65404 45.1564C2.81412 45.2036 0.601169 43.3162 0.0706551 40.4825C0.0020222 40.1167 0.00387715 39.7339 0.00387715 39.3587C0.00016726 29.6922 -0.00168768 20.0256 0.0020222 10.359C0.0020222 6.95584 2.3782 4.53118 5.71339 4.53118C18.8779 4.5293 32.0425 4.5293 45.2089 4.5293C45.4333 4.5293 45.6577 4.5293 46.0881 4.5293ZM25.5483 32.7579C20.5084 32.7579 15.4667 32.7579 10.4268 32.7579C9.44368 32.7579 8.89277 33.1689 8.89277 33.8891C8.89277 34.6094 9.44739 35.0166 10.4287 35.0204C10.475 35.0204 10.5214 35.0204 10.5678 35.0204C20.5567 35.0204 30.5455 35.0204 40.5344 35.0204C40.7199 35.0204 40.9054 35.0317 41.089 35.0147C41.7383 34.9525 42.2094 34.4755 42.2076 33.8872C42.2076 33.299 41.7383 32.822 41.0872 32.7635C40.8813 32.7447 40.6717 32.7579 40.4639 32.7579C35.4908 32.7579 30.5196 32.7579 25.5483 32.7579ZM18.8891 16.9524C19.5364 16.9524 20.1838 16.9524 20.8293 16.9524C23.0701 16.9524 25.3127 16.958 27.5535 16.9486C28.3548 16.9448 28.8779 16.4753 28.8742 15.8136C28.8705 15.1518 28.3456 14.7087 27.5424 14.688C27.4496 14.6861 27.3569 14.688 27.266 14.688C21.6733 14.688 16.0825 14.688 10.4899 14.688C10.2821 14.688 10.0688 14.6691 9.86847 14.7106C9.28045 14.8331 8.90204 15.2065 8.90575 15.823C8.90946 16.4414 9.29158 16.8091 9.8796 16.9278C10.0799 16.9693 10.2932 16.9486 10.501 16.9486C13.2964 16.9524 16.0937 16.9524 18.8891 16.9524ZM18.813 25.9873C19.1599 25.9873 19.5068 25.9873 19.8536 25.9873C22.4413 25.9873 25.0308 25.9949 27.6184 25.9817C28.3678 25.9779 28.8761 25.4952 28.8779 24.8561C28.8798 24.2169 28.3715 23.7569 27.6221 23.7248C27.5071 23.7191 27.3903 23.7229 27.2753 23.7229C21.6826 23.7229 16.0918 23.721 10.4991 23.7267C10.2246 23.7267 9.88702 23.6814 9.69225 23.821C9.37876 24.0453 9.01334 24.379 8.94841 24.7203C8.89091 25.0257 9.13576 25.4896 9.38804 25.7252C9.60692 25.9289 10.0243 25.9741 10.3563 25.976C13.174 25.9949 15.9935 25.9873 18.813 25.9873Z" fill="#0F0F0F"/>
<path d="M41.6954 22.1243C40.9794 22.1243 40.2615 22.1431 39.5455 22.1186C38.6978 22.0903 38.2526 21.6605 38.2397 20.8045C38.2155 19.2999 38.2044 17.7953 38.2545 16.2927C38.2675 15.9344 38.466 15.5046 38.7182 15.2463C43.2684 10.5949 47.8223 5.95111 52.4114 1.34125C54.1996 -0.453676 56.9245 -0.42728 58.6552 1.30165C60.3877 3.03247 60.4823 5.83799 58.7331 7.64611C54.1755 12.354 49.5697 17.0148 44.9583 21.668C44.6967 21.932 44.2293 22.0677 43.8434 22.1035C43.133 22.1752 42.4114 22.1262 41.6954 22.1243Z" fill="#0F0F0F"/>
<path d="M25.5485 32.7584C30.5198 32.7584 35.491 32.7584 40.4623 32.7584C40.67 32.7584 40.8796 32.7452 41.0855 32.7641C41.7366 32.8225 42.2059 33.2995 42.2059 33.8878C42.2059 34.4741 41.7366 34.953 41.0874 35.0153C40.9037 35.0322 40.7182 35.0209 40.5327 35.0209C30.5439 35.0209 20.555 35.0209 10.5661 35.0209C10.5198 35.0209 10.4734 35.0209 10.427 35.0209C9.44574 35.0171 8.89111 34.608 8.89111 33.8897C8.89111 33.1694 9.44203 32.7584 10.4252 32.7584C15.4669 32.7565 20.5086 32.7584 25.5485 32.7584Z" fill="white"/>
<path d="M18.8891 16.9524C16.0937 16.9524 13.2964 16.9524 10.501 16.9524C10.2933 16.9524 10.08 16.9713 9.87963 16.9317C9.29162 16.8129 8.9095 16.4452 8.90579 15.8268C8.90208 15.2084 9.28049 14.837 9.8685 14.7144C10.0688 14.6729 10.2822 14.6918 10.4899 14.6918C16.0826 14.6899 21.6734 14.6918 27.266 14.6918C27.3588 14.6918 27.4515 14.6899 27.5424 14.6918C28.3456 14.7125 28.8705 15.1556 28.8743 15.8174C28.878 16.4792 28.3549 16.9486 27.5535 16.9524C25.3128 16.9618 23.0701 16.9562 20.8294 16.9562C20.1838 16.9524 19.5365 16.9524 18.8891 16.9524Z" fill="white"/>
<path d="M18.8131 25.9884C15.9935 25.9884 13.174 25.9959 10.3564 25.979C10.0262 25.9771 9.60697 25.9318 9.38809 25.7282C9.13396 25.4925 8.89096 25.0287 8.94847 24.7233C9.01339 24.382 9.37881 24.0483 9.6923 23.8239C9.88707 23.6844 10.2247 23.7297 10.4992 23.7297C16.0919 23.7259 21.6827 23.7259 27.2753 23.7259C27.3903 23.7259 27.5072 23.7221 27.6222 23.7278C28.3697 23.7598 28.878 24.2199 28.878 24.859C28.8761 25.4982 28.3679 25.9809 27.6185 25.9846C25.0308 25.9978 22.4432 25.9903 19.8537 25.9903C19.505 25.9884 19.1581 25.9884 18.8131 25.9884Z" fill="white"/>
</g>
<defs>
<clipPath id="clip0_272_10680">
<rect width="60" height="52" fill="white"/>
</clipPath>
</defs>
</svg>
