<svg width="68" height="68" viewBox="0 0 68 68" fill="none" xmlns="http://www.w3.org/2000/svg">
<g clip-path="url(#clip0_272_10689)">
<path d="M0.675975 67.9993C0.166844 67.6994 -0.040711 67.2648 0.00718631 66.6686C0.0462138 66.163 0.00896029 65.652 0.0160562 65.1429C0.0267 64.3658 0.367303 64.0092 1.1514 64.0056C3.25356 63.995 5.35572 64.0021 7.45788 64.0003C7.60867 64.0003 7.75946 63.9879 7.99185 63.9755C7.99185 63.6614 7.99185 63.3811 7.99185 63.1008C7.99185 50.2204 7.99185 37.3418 7.99185 24.4614C7.99185 22.7369 8.72627 21.9935 10.4435 21.9935C17.1473 21.9917 23.853 21.9917 30.5568 21.9935C32.2793 21.9935 33.0315 22.7387 33.0333 24.449C33.035 29.7164 33.0333 34.9821 33.0333 40.2496C33.0333 40.4856 33.0333 40.7233 33.0333 41.0249C32.219 41.0249 31.4952 41.0249 30.7715 41.0249C28.8023 41.0249 26.8332 41.0107 24.8641 41.0303C22.2901 41.0569 20.0726 43.1823 20.0566 45.7371C20.0194 51.6894 20.0407 57.6435 20.0389 63.5958C20.0389 63.7022 20.062 63.8087 20.0797 63.9559C21.0359 63.9559 21.9743 63.9559 22.9926 63.9559C22.9926 63.6756 22.9926 63.4184 22.9926 63.1611C22.9926 57.5619 22.9926 51.9626 22.9926 46.3652C22.9926 44.7542 23.7749 43.9754 25.3981 43.9754C31.1298 43.9736 36.8597 43.9736 42.5914 43.9754C44.2501 43.9754 45.0165 44.7471 45.0165 46.4131C45.0165 51.9892 45.0165 57.5672 45.0165 63.1434C45.0165 63.4042 45.0165 63.6632 45.0165 63.9613C46.0205 63.9613 46.9572 63.9613 47.9293 63.9613C47.9453 63.759 47.9701 63.5869 47.9701 63.4166C47.9719 57.6187 47.9826 51.8207 47.9648 46.0227C47.9577 43.5105 46.347 41.5962 43.8864 41.103C43.5654 41.0391 43.2283 41.0303 42.8983 41.0303C40.8618 41.0232 38.8271 41.0267 36.7906 41.0267C36.5511 41.0267 36.3134 41.0267 35.9994 41.0267C35.9994 40.0882 35.9994 39.21 35.9994 38.3318C35.9994 36.9373 35.9958 35.5428 36.0011 34.1501C36.0065 32.8461 36.8047 32.0104 38.0873 32.0087C45.3677 32.0016 52.6481 32.0016 59.9267 32.0087C61.2182 32.0104 62.0129 32.8656 62.0129 34.2264C62.0147 43.8299 62.0147 53.4352 62.0147 63.0387C62.0147 63.3244 62.0147 63.6118 62.0147 64.0003C62.5256 64.0003 63.0028 64.0003 63.48 64.0003C64.4752 64.0003 65.4722 64.0287 66.4674 63.9897C67.0723 63.9666 67.5868 64.089 67.9983 64.545C67.9983 65.6964 67.9983 66.8461 67.9983 67.9975C45.5593 67.9993 23.1168 67.9993 0.675975 67.9993Z" fill="#0F0F0F"/>
<path d="M42.9619 11.1607C43.2032 6.22672 45.4047 2.58437 49.7864 0.316989C50.739 -0.176227 51.5799 -0.0857448 52.2451 0.531663C52.9121 1.15084 53.0576 1.98647 52.6691 2.96758C50.6734 7.99733 53.6022 13.2009 58.933 14.0419C60.3522 14.2654 61.7519 14.0561 63.0912 13.5025C64.1467 13.0679 64.9574 13.1992 65.5872 13.8751C66.2489 14.583 66.3021 15.3619 65.7646 16.4477C63.611 20.7979 58.9845 23.6862 53.6359 23.0528C48.3122 22.423 44.2001 18.5465 43.212 13.4334C43.0666 12.6776 43.04 11.8987 42.9619 11.1607Z" fill="#0F0F0F"/>
</g>
<defs>
<clipPath id="clip0_272_10689">
<rect width="68" height="68" fill="white"/>
</clipPath>
</defs>
</svg>
