<svg width="34" height="34" viewBox="0 0 34 34" fill="none" xmlns="http://www.w3.org/2000/svg">
<path d="M28.3333 11.3333C25.2025 11.3333 22.6667 8.7975 22.6667 5.66667C22.6667 2.53583 25.2025 0 28.3333 0C31.4642 0 34 2.53583 34 5.66667C34 8.7975 31.4642 11.3333 28.3333 11.3333ZM17 21.845C18.0908 21.845 19.1817 21.4342 20.0033 20.5983L26.6192 13.9825C22.7517 13.1892 19.8333 9.76083 19.8333 5.6525C19.8333 5.17083 19.89 4.70333 19.9608 4.23583H7.08333C4.51917 4.23583 2.295 5.61 1.04833 7.65L13.9967 20.6125C14.8183 21.4342 15.9092 21.8592 17 21.8592V21.845ZM30.8267 13.7842L22.0008 22.61C20.6267 23.9842 18.7992 24.6783 16.9858 24.6783C15.1725 24.6783 13.3592 23.9842 11.9708 22.61L0.0708333 10.6817C0.0566667 10.8942 0 11.1067 0 11.3333V26.9167C0 30.8267 3.17333 34 7.08333 34H26.9167C30.8267 34 34 30.8267 34 26.9167L33.9717 11.9992C33.065 12.8067 32.0025 13.4158 30.8267 13.7842Z" fill="#011F15"/>
</svg>