<svg width="48" height="48" viewBox="0 0 48 48" fill="none" xmlns="http://www.w3.org/2000/svg">
<g clip-path="url(#clip0_272_11469)">
<path d="M48 46.5375V46.6489C48 47.3941 47.3948 47.9991 46.6492 47.9991H1.35084C0.605247 47.9991 0 47.3941 0 46.6489V46.5249C0 45.7797 0.605247 45.1748 1.35084 45.1748H3.46733C4.21292 45.1748 4.81817 44.5699 4.81817 43.8247V11.2085C4.81817 10.5484 5.29685 9.98482 5.94847 9.87585C10.9747 9.03797 15.9733 8.20634 21.0032 7.36846C21.8265 7.23069 22.5784 7.86568 22.5784 8.70106V43.8109C22.5784 44.5561 23.1836 45.161 23.9292 45.161H24.0645C24.8101 45.161 25.4154 44.5561 25.4154 43.8109V15.0785C25.4154 14.3333 26.0206 13.7284 26.7662 13.7284H41.8247C42.5703 13.7284 43.1756 14.3333 43.1756 15.0785V43.8359C43.1756 44.5811 43.7808 45.1861 44.5264 45.1861H46.6454C47.3948 45.1861 48 45.791 48 46.5375ZM15.7452 42.5146V43.8084C15.7452 44.5536 16.3505 45.1585 17.096 45.1585H17.1512C17.8968 45.1585 18.502 44.5536 18.502 43.8084V39.7116C18.502 38.9664 17.8968 38.3615 17.1512 38.3615H10.2541C9.50852 38.3615 8.90328 38.9664 8.90328 39.7116V43.8096C8.90328 44.5548 9.50852 45.1598 10.2541 45.1598H10.3293C11.0749 45.1598 11.6801 44.5548 11.6801 43.8096V42.5146C11.6801 41.7694 12.2854 41.1645 13.031 41.1645H14.3931C15.14 41.1645 15.7452 41.7694 15.7452 42.5146ZM30.7298 41.1106H30.9616C31.7072 41.1106 32.3124 40.5057 32.3124 39.7605V39.7141C32.3124 38.9689 31.7072 38.364 30.9616 38.364H30.7298C29.9842 38.364 29.3789 38.9689 29.3789 39.7141V39.7605C29.3789 40.5057 29.9842 41.1106 30.7298 41.1106ZM15.6663 12.2831V12.3194C15.6663 13.0646 16.2715 13.6695 17.0171 13.6695H17.2439C17.9895 13.6695 18.5948 13.0646 18.5948 12.3194V12.2831C18.5948 11.5379 17.9895 10.9329 17.2439 10.9329H17.0171C16.2715 10.9329 15.6663 11.5366 15.6663 12.2831ZM11.7177 32.9121V32.8745C11.7177 32.1293 11.1125 31.5244 10.3669 31.5244H10.1677C9.42206 31.5244 8.81681 32.1293 8.81681 32.8745V32.9121C8.81681 33.6573 9.42206 34.2622 10.1677 34.2622H10.3669C11.1137 34.2622 11.7177 33.6573 11.7177 32.9121ZM17.0008 34.2522H17.2439C17.9895 34.2522 18.5948 33.6473 18.5948 32.9021V32.8745C18.5948 32.1293 17.9895 31.5244 17.2439 31.5244H17.0008C16.2552 31.5244 15.65 32.1293 15.65 32.8745V32.9021C15.65 33.6473 16.2552 34.2522 17.0008 34.2522ZM30.9641 31.5256H30.7398C29.9942 31.5256 29.389 32.1306 29.389 32.8758V32.9033C29.389 33.6485 29.9942 34.2535 30.7398 34.2535H30.9641C31.7097 34.2535 32.3149 33.6485 32.3149 32.9033V32.8758C32.3149 32.1306 31.711 31.5256 30.9641 31.5256ZM37.5955 34.2497H37.8098C38.5554 34.2497 39.1606 33.6448 39.1606 32.8996V32.872C39.1606 32.1268 38.5554 31.5219 37.8098 31.5219H37.5955C36.8499 31.5219 36.2447 32.1268 36.2447 32.872V32.8996C36.2447 33.6448 36.8487 34.2497 37.5955 34.2497ZM36.2672 39.7016V39.763C36.2672 40.5082 36.8725 41.1131 37.6181 41.1131H37.7985C38.5441 41.1131 39.1494 40.5082 39.1494 39.763V39.7016C39.1494 38.9564 38.5441 38.3515 37.7985 38.3515H37.6181C36.8725 38.3515 36.2672 38.9564 36.2672 39.7016ZM10.1576 20.5104H10.3732C11.1188 20.5104 11.724 19.9054 11.724 19.1602V19.1527C11.724 18.4075 11.1188 17.8026 10.3732 17.8026H10.1576C9.41203 17.8026 8.80679 18.4075 8.80679 19.1527V19.1602C8.80554 19.9054 9.41078 20.5104 10.1576 20.5104ZM17.2439 17.7988H17.0158C16.2703 17.7988 15.665 18.4038 15.665 19.149V19.1715C15.665 19.9167 16.2703 20.5216 17.0158 20.5216H17.2439C17.9895 20.5216 18.5948 19.9167 18.5948 19.1715V19.149C18.5948 18.4038 17.9895 17.7988 17.2439 17.7988ZM30.9666 17.8038H30.7385C29.993 17.8038 29.3877 18.4088 29.3877 19.154V19.1678C29.3877 19.913 29.993 20.5179 30.7385 20.5179H30.9666C31.7122 20.5179 32.3175 19.913 32.3175 19.1678V19.154C32.3187 18.4088 31.7135 17.8038 30.9666 17.8038ZM36.2522 19.1477V19.1652C36.2522 19.9105 36.8574 20.5154 37.603 20.5154H37.8035C38.5491 20.5154 39.1544 19.9105 39.1544 19.1652V19.1477C39.1544 18.4025 38.5491 17.7976 37.8035 17.7976H37.603C36.8574 17.7976 36.2522 18.4013 36.2522 19.1477ZM11.719 26.0362V26.0236C11.719 25.2784 11.1137 24.6735 10.3682 24.6735H10.1739C9.42833 24.6735 8.82308 25.2784 8.82308 26.0236V26.0362C8.82308 26.7814 9.42833 27.3863 10.1739 27.3863H10.3682C11.1137 27.3863 11.719 26.7814 11.719 26.0362ZM18.5897 26.0349V26.0136C18.5897 25.2684 17.9845 24.6635 17.2389 24.6635H17.0146C16.269 24.6635 15.6638 25.2684 15.6638 26.0136V26.0349C15.6638 26.7801 16.269 27.3851 17.0146 27.3851H17.2389C17.9845 27.3863 18.5897 26.7814 18.5897 26.0349ZM30.731 27.375H30.9503C31.6959 27.375 32.3012 26.7701 32.3012 26.0249C32.3012 25.2797 31.6959 24.6748 30.9503 24.6748H30.731C29.9854 24.6748 29.3802 25.2797 29.3802 26.0249C29.3802 26.7714 29.9842 27.375 30.731 27.375ZM39.1631 26.0399V26.0174C39.1631 25.2722 38.5579 24.6672 37.8123 24.6672H37.6143C36.8687 24.6672 36.2635 25.2722 36.2635 26.0174V26.0399C36.2635 26.7851 36.8687 27.3901 37.6143 27.3901H37.8123C38.5579 27.3913 39.1631 26.7864 39.1631 26.0399Z" fill="#0F0F0F"/>
<path d="M18.511 0C18.8932 0 19.2014 0.310607 19.1977 0.692603C19.1876 1.87992 19.1776 3.06849 19.1676 4.25581C19.1676 4.25706 19.1676 4.25957 19.1676 4.26082C19.1651 4.59522 18.9232 4.87953 18.5924 4.93464C15.4008 5.46693 12.2405 5.99296 9.02876 6.529C8.61022 6.59914 8.22803 6.27601 8.22803 5.85143V0.686341C8.22803 0.306849 8.53629 0 8.91473 0H18.511Z" fill="#0F0F0F"/>
<path d="M14.3666 41.1663H13.0596C12.2977 41.1663 11.6812 41.7837 11.6812 42.5439V43.7851C11.6812 44.5466 11.0634 45.1628 10.3028 45.1628H10.2827C9.52082 45.1628 8.9043 44.5454 8.9043 43.7851V39.741C8.9043 38.9795 9.52208 38.3633 10.2827 38.3633H17.1246C17.8865 38.3633 18.503 38.9807 18.503 39.741V43.7826C18.503 44.5441 17.8853 45.1603 17.1246 45.1603C16.3628 45.1603 15.7462 44.5429 15.7462 43.7826V42.5427C15.745 41.7825 15.1272 41.1663 14.3666 41.1663Z" fill="white"/>
<path d="M29.3789 41.1111C29.3789 40.1831 29.3789 39.2863 29.3789 38.3633C30.3651 38.3633 31.3262 38.3633 32.3124 38.3633C32.3124 39.2776 32.3124 40.1768 32.3124 41.1111C31.35 41.1111 30.3902 41.1111 29.3789 41.1111Z" fill="white"/>
<path d="M16.3051 10.9336H17.9567C18.3088 10.9336 18.5958 11.2192 18.5958 11.5723V13.0327C18.5958 13.3846 18.3101 13.6714 17.9567 13.6714H16.3051C15.953 13.6714 15.666 13.3859 15.666 13.0327V11.5711C15.666 11.2192 15.9517 10.9336 16.3051 10.9336Z" fill="white"/>
<path d="M11.0798 34.2625H9.45451C9.10239 34.2625 8.81543 33.977 8.81543 33.6238V32.1622C8.81543 31.8102 9.10114 31.5234 9.45451 31.5234H11.0785C11.4307 31.5234 11.7176 31.809 11.7176 32.1622V33.625C11.7176 33.977 11.4319 34.2625 11.0798 34.2625Z" fill="white"/>
<path d="M15.6499 33.6138V32.1622C15.6499 31.8102 15.9356 31.5234 16.289 31.5234H17.9569C18.309 31.5234 18.5959 31.809 18.5959 32.1622V33.6138C18.5959 33.9657 18.3102 34.2525 17.9569 34.2525H16.289C15.9356 34.2525 15.6499 33.967 15.6499 33.6138Z" fill="white"/>
<path d="M32.3149 32.1661V33.6177C32.3149 33.9696 32.0292 34.2564 31.6759 34.2564H30.0268C29.6747 34.2564 29.3877 33.9709 29.3877 33.6177V32.1661C29.3877 31.8142 29.6734 31.5273 30.0268 31.5273H31.6759C32.0292 31.5273 32.3149 31.8129 32.3149 32.1661Z" fill="white"/>
<path d="M36.2446 33.6118V32.1602C36.2446 31.8083 36.5303 31.5215 36.8837 31.5215H38.524C38.8761 31.5215 39.1631 31.807 39.1631 32.1602V33.6118C39.1631 33.9638 38.8774 34.2506 38.524 34.2506H36.8837C36.5303 34.2506 36.2446 33.965 36.2446 33.6118Z" fill="white"/>
<path d="M36.2671 38.3516C37.237 38.3516 38.1731 38.3516 39.1492 38.3516C39.1492 39.2633 39.1492 40.1726 39.1492 41.1145C38.2044 41.1145 37.2583 41.1145 36.2671 41.1145C36.2671 40.2127 36.2671 39.3034 36.2671 38.3516Z" fill="white"/>
<path d="M8.80566 19.873V18.4415C8.80566 18.0895 9.09137 17.8027 9.44475 17.8027H11.0863C11.4384 17.8027 11.7254 18.0883 11.7254 18.4415V19.873C11.7254 20.225 11.4397 20.5118 11.0863 20.5118H9.44475C9.09262 20.5118 8.80566 20.2262 8.80566 19.873Z" fill="white"/>
<path d="M18.5946 18.4376V19.8842C18.5946 20.2361 18.3089 20.5229 17.9555 20.5229H16.3027C15.9505 20.5229 15.6636 20.2373 15.6636 19.8842V18.4376C15.6636 18.0856 15.9493 17.7988 16.3027 17.7988H17.9555C18.3089 17.7988 18.5946 18.0844 18.5946 18.4376Z" fill="white"/>
<path d="M32.3189 18.3983V19.9251C32.3189 20.2532 32.0533 20.5187 31.7249 20.5187H29.9831C29.6548 20.5187 29.3892 20.2532 29.3892 19.9251V18.3983C29.3892 18.0702 29.6548 17.8047 29.9831 17.8047H31.7249C32.052 17.8047 32.3189 18.0702 32.3189 18.3983Z" fill="white"/>
<path d="M36.891 17.7988H38.5163C38.8684 17.7988 39.1554 18.0844 39.1554 18.4376V19.8791C39.1554 20.2311 38.8697 20.5179 38.5163 20.5179H36.891C36.5389 20.5179 36.252 20.2323 36.252 19.8791V18.4363C36.252 18.0844 36.5389 17.7988 36.891 17.7988Z" fill="white"/>
<path d="M11.0799 27.3879H9.46086C9.10874 27.3879 8.82178 27.1023 8.82178 26.7491V25.3126C8.82178 24.9606 9.10748 24.6738 9.46086 24.6738H11.0799C11.432 24.6738 11.7189 24.9594 11.7189 25.3126V26.7504C11.7189 27.1023 11.4332 27.3879 11.0799 27.3879Z" fill="white"/>
<path d="M17.9517 27.3869H16.3027C15.9505 27.3869 15.6636 27.1013 15.6636 26.7481V25.3028C15.6636 24.9509 15.9493 24.6641 16.3027 24.6641H17.9517C18.3039 24.6641 18.5908 24.9496 18.5908 25.3028V26.7481C18.5896 27.1001 18.3039 27.3869 17.9517 27.3869Z" fill="white"/>
<path d="M29.3804 26.7386V25.3145C29.3804 24.9626 29.6661 24.6758 30.0195 24.6758H31.6635C32.0156 24.6758 32.3026 24.9613 32.3026 25.3145V26.7386C32.3026 27.0905 32.0169 27.3773 31.6635 27.3773H30.0195C29.6661 27.3761 29.3804 27.0905 29.3804 26.7386Z" fill="white"/>
<path d="M38.5241 27.392H36.9013C36.5492 27.392 36.2622 27.1065 36.2622 26.7533V25.3067C36.2622 24.9548 36.5479 24.668 36.9013 24.668H38.5241C38.8762 24.668 39.1631 24.9535 39.1631 25.3067V26.7533C39.1631 27.1052 38.8774 27.392 38.5241 27.392Z" fill="white"/>
</g>
<defs>
<clipPath id="clip0_272_11469">
<rect width="48" height="48" fill="white"/>
</clipPath>
</defs>
</svg>
