<svg width="53" height="37" viewBox="0 0 53 37" fill="none" xmlns="http://www.w3.org/2000/svg">
<g clip-path="url(#clip0_272_11497)">
<path d="M0 2.56273C0.348141 1.35942 0.905442 0.41211 1.95812 0.097251C2.17554 0.0315413 2.40534 0.00416232 2.62963 0.00416232C13.2885 5.54676e-05 23.9502 -0.00131348 34.6104 0.00142442C36.1213 0.00142442 37.2401 1.34163 37.2442 3.24447C37.2593 10.3685 37.2607 17.4911 37.2428 24.6152C37.2387 26.5933 36.1668 27.7679 34.5912 27.7569C30.6213 27.7295 26.6527 27.7432 22.6828 27.7432C18.3084 27.7418 13.9339 27.7487 9.55943 27.735C9.11084 27.7336 8.75994 27.887 8.42281 28.2703C7.35224 29.4831 6.26241 30.6687 5.16157 31.8377C5.00057 32.0075 4.69509 32.169 4.54372 32.0869C4.39786 32.0075 4.30429 31.6091 4.2919 31.3422C4.2575 30.6522 4.2809 29.9595 4.2809 29.2669C4.27952 28.1553 4.03458 27.85 3.16492 27.8363C2.77825 27.8308 2.38057 27.8527 2.00628 27.7542C0.930211 27.4681 0.352269 26.507 0 25.2777C0 17.7061 0 10.1344 0 2.56273ZM23.4025 21.2708C26.6555 21.2708 29.9099 21.2708 33.1628 21.2694C33.3404 21.2694 33.522 21.2831 33.6954 21.2462C34.1398 21.149 34.3696 20.6616 34.2582 20.114C34.1178 19.4268 33.7036 19.3598 33.2371 19.3611C26.6816 19.3652 20.1261 19.3639 13.5706 19.3652C13.4413 19.3652 13.3105 19.3666 13.1839 19.3912C12.7821 19.4706 12.5056 19.8772 12.54 20.3659C12.5757 20.8697 12.7931 21.1928 13.2046 21.2585C13.3642 21.2845 13.528 21.2722 13.689 21.2722C16.9268 21.2708 20.1647 21.2708 23.4025 21.2708ZM25.3276 8.56969C27.9338 8.56969 30.5401 8.56969 33.1477 8.56832C33.3252 8.56832 33.5096 8.59159 33.6802 8.54505C34.0848 8.43416 34.3559 8.13436 34.3435 7.57857C34.3311 7.02962 34.0779 6.72708 33.6431 6.67506C33.4986 6.65863 33.3527 6.66137 33.2069 6.66137C27.9779 6.66137 22.7489 6.66 17.5185 6.66137C17.341 6.66137 17.1415 6.61756 16.9901 6.70107C16.7823 6.81469 16.5443 6.9817 16.4369 7.21306C16.1287 7.87426 16.5319 8.56284 17.2158 8.56421C19.9197 8.57379 22.6237 8.56832 25.3276 8.56969ZM7.74304 17.7581C7.75955 17.6089 7.78295 17.5295 7.77607 17.4542C7.59856 15.5801 8.25768 14.1317 9.19478 12.7696C9.66401 12.0865 10.0892 11.3035 10.3685 10.478C11.0098 8.58338 10.6988 5.85506 8.61133 5.04464C7.83524 4.74347 6.95319 4.7599 6.12756 4.81602C5.39687 4.86531 4.67445 5.161 4.06486 5.79756C4.24649 6.33419 4.41988 6.84618 4.54097 7.20211C5.34183 6.99266 6.056 6.69559 6.78118 6.64357C7.93982 6.56007 8.66087 7.33489 8.77646 8.5779C8.85076 9.38147 8.67738 10.1234 8.33062 10.7764C7.93707 11.5184 7.48847 12.2166 7.05364 12.923C6.25966 14.2125 5.83446 15.6307 6.01747 17.2899C6.05187 17.6048 6.1138 17.7745 6.39314 17.7622C6.82659 17.7444 7.2628 17.7581 7.74304 17.7581ZM27.1192 14.9202C29.1283 14.9202 31.1359 14.9202 33.145 14.9202C33.2908 14.9202 33.4367 14.9271 33.5825 14.9107C34.0119 14.8641 34.305 14.4945 34.2995 14.0236C34.2926 13.4883 34.0187 13.1009 33.5949 13.0311C33.5302 13.0201 33.4656 13.0147 33.4009 13.0147C29.2218 13.0147 25.0428 13.0147 20.8637 13.016C20.7825 13.016 20.7013 13.0229 20.6229 13.0448C20.2197 13.157 20.0105 13.4733 20.0147 13.9935C20.0188 14.5849 20.3312 14.9175 20.9008 14.9189C22.9718 14.9216 25.0455 14.9189 27.1192 14.9202ZM8.07605 21.5994C8.07742 20.5507 7.59168 19.8635 6.84723 19.8622C6.12618 19.8608 5.62943 20.5138 5.62392 21.4707C5.61842 22.4604 6.11792 23.1257 6.86237 23.1216C7.60956 23.1175 8.07467 22.533 8.07605 21.5994Z" fill="#0F0F0F"/>
<path d="M39.1145 10.8688C39.3635 10.8565 39.5631 10.8387 39.7626 10.8387C43.2192 10.8373 46.6745 10.8401 50.1311 10.8359C50.9595 10.8346 51.7122 11.0249 52.3012 11.645C52.736 12.1022 52.9823 12.6169 52.9809 13.2823C52.9658 19.2646 52.9383 25.2483 53.0002 31.2292C53.0126 32.401 51.7783 33.6399 50.6238 33.618C50.3169 33.6126 50.01 33.6112 49.7032 33.6194C48.9532 33.6413 48.5734 34.0095 48.5569 34.7515C48.5432 35.321 48.5679 35.8919 48.5445 36.46C48.5377 36.642 48.4303 36.82 48.3684 36.9993C48.1923 36.9213 47.9886 36.8761 47.8455 36.7584C46.8217 35.9151 45.7897 35.0801 44.8044 34.1944C44.2485 33.6947 43.6513 33.5112 42.9137 33.5126C34.4263 33.5277 25.9388 33.5044 17.4527 33.5373C15.8042 33.5441 14.7941 32.4996 14.6125 31.3771C14.5354 30.9034 14.6001 30.4065 14.6001 29.811C14.8505 29.811 15.1051 29.811 15.3583 29.811C21.4116 29.811 27.4648 29.8151 33.5194 29.8082C36.2082 29.8055 38.2503 28.353 38.9025 25.9587C39.0498 25.418 39.1048 24.8376 39.1062 24.2749C39.1227 20.0421 39.1158 15.8093 39.1158 11.5765C39.1145 11.3589 39.1145 11.1385 39.1145 10.8688ZM45.2173 23.2496C46.2782 23.2496 47.3405 23.2551 48.4014 23.2482C49.0784 23.2441 49.5188 22.8677 49.5325 22.3078C49.5463 21.767 49.0908 21.3235 48.4358 21.318C46.2919 21.3029 44.1481 21.3016 42.0055 21.318C41.3093 21.3235 40.9212 21.7123 40.9295 22.3009C40.9377 22.8923 41.3354 23.2427 42.0331 23.2469C43.0926 23.2551 44.1549 23.2496 45.2173 23.2496ZM45.2517 17.6725C45.2517 17.6739 45.2517 17.6739 45.2517 17.6752C46.314 17.6752 47.3777 17.7081 48.4372 17.6547C48.7606 17.6383 49.1817 17.4671 49.366 17.2221C49.8367 16.5992 49.3193 15.7792 48.4757 15.7738C46.3112 15.7601 44.1467 15.7642 41.9808 15.7724C41.3216 15.7751 40.9364 16.1324 40.9281 16.7005C40.9198 17.281 41.2831 17.6547 41.9422 17.667C43.0458 17.6875 44.1481 17.6725 45.2517 17.6725ZM45.7938 28.7377C46.6497 28.7377 47.5056 28.7459 48.3615 28.735C49.0661 28.7268 49.5312 28.3284 49.5312 27.7575C49.5312 27.1867 49.0661 26.7856 48.3615 26.7815C46.6896 26.7733 45.0191 26.7733 43.3472 26.7815C42.6399 26.7856 42.1776 27.1867 42.1789 27.7575C42.1803 28.3311 42.6413 28.7254 43.3486 28.7336C44.1632 28.7459 44.9792 28.7377 45.7938 28.7377Z" fill="#0F0F0F"/>
<path d="M23.4026 21.2704C20.1648 21.2704 16.9283 21.2704 13.6905 21.2704C13.5281 21.2704 13.3643 21.2828 13.2061 21.2567C12.7947 21.191 12.5759 20.868 12.5415 20.3642C12.5071 19.8755 12.7836 19.4689 13.1855 19.3895C13.312 19.3649 13.4442 19.3635 13.5721 19.3635C20.1276 19.3621 26.6831 19.3635 33.2387 19.3594C33.7051 19.3594 34.1193 19.4251 34.2597 20.1123C34.3711 20.6612 34.1413 21.1472 33.6969 21.2444C33.5235 21.2828 33.3419 21.2677 33.1643 21.2677C29.9086 21.2704 26.6556 21.2704 23.4026 21.2704Z" fill="white"/>
<path d="M25.3278 8.56882C22.6239 8.56882 19.9199 8.57293 17.2174 8.56472C16.5335 8.56335 16.1303 7.87476 16.4385 7.21356C16.5459 6.98221 16.7839 6.8152 16.9917 6.70157C17.1431 6.61807 17.3426 6.66187 17.5201 6.66187C22.7491 6.66051 27.9781 6.66051 33.2085 6.66187C33.3543 6.66187 33.5002 6.65914 33.6447 6.67556C34.0795 6.72622 34.3313 7.03012 34.3451 7.57907C34.3575 8.1335 34.0864 8.43467 33.6818 8.54555C33.5112 8.59209 33.3268 8.56882 33.1493 8.56882C30.5403 8.56882 27.9341 8.56882 25.3278 8.56882Z" fill="white"/>
<path d="M7.73331 17.7579C7.20491 17.7579 6.72467 17.7442 6.2458 17.762C5.93894 17.7729 5.87014 17.6046 5.83161 17.2897C5.62933 15.6305 6.09719 14.2123 6.97098 12.9227C7.44985 12.2164 7.94247 11.5182 8.37593 10.7762C8.7571 10.1232 8.94837 9.38126 8.86718 8.57769C8.74058 7.33331 7.9466 6.55986 6.67238 6.64336C5.87427 6.69538 5.08854 6.99381 4.20787 7.20189C4.07439 6.84597 3.8845 6.33398 3.68359 5.79735C4.35373 5.16079 5.14909 4.8651 5.95408 4.81581C6.86227 4.75969 7.83377 4.74326 8.68829 5.04443C10.9863 5.85485 11.3276 8.58317 10.623 10.4778C10.3162 11.3033 9.8483 12.0877 9.33229 12.7694C8.303 14.1315 7.57782 15.5799 7.77184 17.454C7.77735 17.5293 7.75258 17.61 7.73331 17.7579Z" fill="white"/>
<path d="M27.1192 14.9206C25.0455 14.9206 22.9731 14.9234 20.8994 14.9179C20.3297 14.9165 20.0187 14.5839 20.0132 13.9925C20.0091 13.4723 20.2183 13.156 20.6215 13.0438C20.6999 13.0219 20.7825 13.015 20.8623 13.015C25.0413 13.0137 29.2204 13.0137 33.3995 13.0137C33.4641 13.0137 33.5288 13.0191 33.5935 13.0301C34.0159 13.0999 34.2912 13.4873 34.298 14.0226C34.3049 14.4935 34.0104 14.8631 33.5811 14.9097C33.4366 14.9261 33.2894 14.9193 33.1435 14.9193C31.1359 14.9206 29.1268 14.9206 27.1192 14.9206Z" fill="white"/>
<path d="M8.37192 21.5985C8.37055 22.5335 7.82701 23.1167 6.95459 23.1208C6.08493 23.1249 5.50148 22.4582 5.50836 21.4698C5.51524 20.513 6.09456 19.86 6.9367 19.8613C7.80637 19.8627 8.3733 20.5485 8.37192 21.5985Z" fill="white"/>
<path d="M45.2171 23.2487C44.1562 23.2487 43.0939 23.2542 42.0329 23.2473C41.3353 23.2432 40.9376 22.8914 40.9293 22.3014C40.9211 21.7113 41.3105 21.3226 42.0054 21.3185C44.1493 21.302 46.2932 21.3034 48.4357 21.3185C49.0907 21.3226 49.5462 21.7675 49.5324 22.3082C49.5186 22.8695 49.0783 23.2446 48.4013 23.2487C47.3403 23.2542 46.278 23.2487 45.2171 23.2487Z" fill="white"/>
<path d="M45.2515 17.6713C44.1493 17.6713 43.0457 17.6864 41.9435 17.6659C41.2844 17.6535 40.9211 17.2798 40.9293 16.6994C40.9376 16.1313 41.3229 15.774 41.982 15.7712C44.1465 15.763 46.3111 15.7589 48.477 15.7726C49.3205 15.7781 49.8379 16.5981 49.3673 17.221C49.1829 17.4646 48.7618 17.6371 48.4384 17.6535C47.3789 17.7069 46.3152 17.6741 45.2529 17.6741C45.2515 17.6727 45.2515 17.6713 45.2515 17.6713Z" fill="white"/>
<path d="M45.7936 28.7364C44.979 28.7364 44.163 28.7446 43.3484 28.7337C42.6411 28.7255 42.1815 28.3298 42.1787 27.7576C42.1773 27.1868 42.6397 26.7843 43.347 26.7816C45.0189 26.7733 46.6894 26.7733 48.3613 26.7816C49.0659 26.7857 49.531 27.1868 49.531 27.7576C49.531 28.3271 49.0659 28.7268 48.3613 28.735C47.5054 28.7446 46.6495 28.7364 45.7936 28.7364Z" fill="white"/>
</g>
<defs>
<clipPath id="clip0_272_11497">
<rect width="53" height="37" fill="white"/>
</clipPath>
</defs>
</svg>
