<svg width="43" height="37" viewBox="0 0 43 37" fill="none" xmlns="http://www.w3.org/2000/svg">
<g clip-path="url(#clip0_272_11488)">
<path d="M33.0298 3.22299C32.7227 3.22299 32.5605 3.22299 32.3997 3.22299C22.9651 3.22299 13.5305 3.22165 4.0946 3.22433C1.70438 3.22433 0.00144925 4.94957 0.00144925 7.37107C-0.00120951 14.2492 0.00011987 21.1273 0.00277862 28.0055C0.00277862 28.2724 0.00144924 28.5448 0.0506362 28.805C0.430838 30.8214 2.01811 32.1643 4.05206 32.1308C4.5971 32.1214 4.86697 32.2971 5.11689 32.7693C5.75632 33.9767 6.4569 35.1519 7.13754 36.3379C7.64137 37.2152 8.27549 37.2219 8.774 36.354C9.48788 35.1103 10.2097 33.8707 10.897 32.6124C11.0898 32.2595 11.3025 32.1375 11.7026 32.1375C18.6672 32.1509 25.6305 32.1495 32.5951 32.1455C34.8883 32.1442 36.6178 30.3961 36.6204 28.0793C36.6258 23.31 36.6218 18.5395 36.6204 13.7703C36.6204 13.6308 36.6018 13.4926 36.5859 13.2645C35.4572 14.4062 34.3924 15.4808 33.3302 16.558C32.8384 17.0571 32.2548 17.3147 31.5502 17.3093C30.4561 17.2999 29.3607 17.316 28.2666 17.3053C26.8376 17.2905 25.8698 16.3192 25.8512 14.8771C25.8379 13.84 25.8711 12.8017 25.8405 11.7647C25.8153 10.9034 26.117 10.2219 26.7219 9.61951C28.692 7.65548 30.6383 5.6673 32.5938 3.68851C32.7081 3.5718 32.8171 3.44971 33.0298 3.22299Z" fill="white"/>
<path d="M29.8819 15.7434C30.395 15.7434 30.9122 15.7783 31.4213 15.73C31.6978 15.7031 32.0328 15.6079 32.2203 15.4201C35.5251 12.1078 38.8259 8.79281 42.0922 5.44296C43.3458 4.15641 43.278 2.16018 42.0364 0.928633C40.7961 -0.301571 38.8432 -0.321694 37.5617 0.956805C34.2728 4.2369 31.0079 7.54248 27.7482 10.8508C27.5674 11.0345 27.4239 11.3404 27.4159 11.5953C27.3787 12.6645 27.388 13.7364 27.4053 14.8056C27.4146 15.4147 27.7336 15.7206 28.3411 15.7407C28.853 15.7555 29.3674 15.742 29.8819 15.7434Z" fill="white"/>
<path d="M33.0298 3.22266C32.8171 3.44938 32.7081 3.57146 32.5938 3.68817C30.6383 5.66696 28.692 7.65514 26.7219 9.61918C26.117 10.2229 25.8153 10.903 25.8405 11.7643C25.8698 12.8013 25.8379 13.8397 25.8512 14.8767C25.8698 16.3189 26.8362 17.2902 28.2666 17.3049C29.3607 17.3157 30.4548 17.3009 31.5502 17.309C32.2548 17.3143 32.8384 17.0581 33.3302 16.5577C34.3924 15.4804 35.4572 14.4058 36.5859 13.2642C36.6018 13.4922 36.6204 13.6304 36.6204 13.7699C36.6218 18.5392 36.6244 23.3097 36.6204 28.0789C36.6178 30.3958 34.8883 32.1438 32.5951 32.1452C25.6305 32.1492 18.6672 32.1505 11.7026 32.1371C11.3025 32.1358 11.0898 32.2592 10.897 32.612C10.2097 33.8704 9.48788 35.11 8.774 36.3536C8.27549 37.2216 7.64137 37.2149 7.13754 36.3375C6.4569 35.1516 5.75632 33.9764 5.11689 32.769C4.86697 32.2968 4.59577 32.121 4.05206 32.1304C2.01678 32.164 0.430838 30.8211 0.0506362 28.8047C0.00144924 28.5445 0.00277862 28.2721 0.00277862 28.0051C0.00011987 21.127 -0.00120951 14.2489 0.00144925 7.37073C0.00144925 4.94923 1.70438 3.224 4.0946 3.224C13.5292 3.22266 22.9638 3.22266 32.3997 3.22266C32.5605 3.22266 32.7214 3.22266 33.0298 3.22266ZM18.3096 23.3084C14.6977 23.3084 11.0845 23.3084 7.47254 23.3084C6.76797 23.3084 6.37315 23.6008 6.37315 24.1133C6.37315 24.6258 6.77063 24.9156 7.47387 24.9182C7.50711 24.9182 7.54034 24.9182 7.57358 24.9182C14.7323 24.9182 21.891 24.9182 29.0496 24.9182C29.1826 24.9182 29.3155 24.9263 29.4471 24.9142C29.9124 24.8699 30.2501 24.5305 30.2487 24.112C30.2487 23.6934 29.9124 23.354 29.4458 23.3124C29.2982 23.299 29.148 23.3084 28.9991 23.3084C25.4351 23.3084 21.8723 23.3084 18.3096 23.3084ZM13.5372 12.0621C14.0011 12.0621 14.4651 12.0621 14.9277 12.0621C16.5336 12.0621 18.1408 12.0662 19.7467 12.0595C20.321 12.0568 20.6958 11.7227 20.6932 11.2518C20.6905 10.781 20.3143 10.4657 19.7387 10.4509C19.6722 10.4496 19.6058 10.4509 19.5406 10.4509C15.5326 10.4509 11.5258 10.4509 7.51774 10.4509C7.36885 10.4509 7.21597 10.4375 7.0724 10.467C6.65099 10.5542 6.3798 10.8199 6.38245 11.2586C6.38511 11.6986 6.65896 11.9602 7.08038 12.0447C7.22395 12.0742 7.37683 12.0595 7.52572 12.0595C9.52909 12.0621 11.5338 12.0621 13.5372 12.0621ZM13.4827 18.4909C13.7312 18.4909 13.9798 18.4909 14.2284 18.4909C16.0829 18.4909 17.9387 18.4962 19.7932 18.4868C20.3303 18.4842 20.6945 18.1407 20.6958 17.6859C20.6972 17.2311 20.3329 16.9038 19.7959 16.881C19.7134 16.877 19.6297 16.8797 19.5473 16.8797C15.5392 16.8797 11.5325 16.8783 7.52439 16.8823C7.32764 16.8823 7.08569 16.8501 6.94611 16.9494C6.72145 17.1091 6.45956 17.3465 6.41303 17.5893C6.37182 17.8067 6.5473 18.1367 6.72809 18.3044C6.88496 18.4493 7.18407 18.4815 7.42203 18.4828C9.44135 18.4962 11.462 18.4909 13.4827 18.4909Z" fill="#0F0F0F"/>
<path d="M29.8819 15.7423C29.3687 15.7423 28.8543 15.7557 28.3411 15.7383C27.7336 15.7181 27.4146 15.4123 27.4053 14.8032C27.388 13.7326 27.38 12.6621 27.4159 11.5929C27.4252 11.338 27.5674 11.0321 27.7482 10.8483C31.0092 7.53869 34.2728 4.23444 37.5617 0.95435C38.8432 -0.322808 40.7961 -0.304026 42.0364 0.926177C43.278 2.15772 43.3458 4.15395 42.0922 5.4405C38.8259 8.79035 35.5251 12.1067 32.2203 15.4176C32.0328 15.6054 31.6978 15.702 31.4213 15.7275C30.9122 15.7785 30.395 15.7436 29.8819 15.7423Z" fill="#0F0F0F"/>
<path d="M18.3099 23.3079C21.8726 23.3079 25.4353 23.3079 28.9981 23.3079C29.1469 23.3079 29.2972 23.2985 29.4447 23.3119C29.9113 23.3535 30.2477 23.6929 30.2477 24.1115C30.2477 24.5287 29.9113 24.8694 29.4461 24.9137C29.3144 24.9258 29.1815 24.9177 29.0486 24.9177C21.8899 24.9177 14.7312 24.9177 7.5725 24.9177C7.53926 24.9177 7.50603 24.9177 7.47279 24.9177C6.76955 24.9151 6.37207 24.6239 6.37207 24.1128C6.37207 23.6003 6.7669 23.3079 7.47146 23.3079C11.0847 23.3065 14.698 23.3079 18.3099 23.3079Z" fill="white"/>
<path d="M13.537 12.0627C11.5337 12.0627 9.52898 12.0627 7.52561 12.0627C7.37672 12.0627 7.22384 12.0762 7.08027 12.048C6.65885 11.9635 6.385 11.7019 6.38234 11.2618C6.37968 10.8218 6.65088 10.5575 7.07229 10.4703C7.21586 10.4408 7.36874 10.4542 7.51763 10.4542C11.5257 10.4529 15.5324 10.4542 19.5405 10.4542C19.607 10.4542 19.6734 10.4529 19.7386 10.4542C20.3142 10.469 20.6904 10.7842 20.6931 11.2551C20.6957 11.726 20.3209 12.0601 19.7466 12.0627C18.1407 12.0694 16.5335 12.0654 14.9276 12.0654C14.465 12.0627 14.001 12.0627 13.537 12.0627Z" fill="white"/>
<path d="M13.4825 18.4911C11.4618 18.4911 9.44117 18.4964 7.42184 18.4844C7.18522 18.483 6.88478 18.4508 6.72791 18.3059C6.54579 18.1382 6.37164 17.8082 6.41285 17.5909C6.45938 17.3481 6.72126 17.1106 6.94593 16.951C7.08551 16.8517 7.32746 16.8839 7.52421 16.8839C11.5323 16.8812 15.539 16.8812 19.5471 16.8812C19.6295 16.8812 19.7133 16.8785 19.7957 16.8825C20.3314 16.9054 20.6957 17.2327 20.6957 17.6875C20.6943 18.1423 20.3301 18.4857 19.793 18.4884C17.9385 18.4978 16.0841 18.4924 14.2283 18.4924C13.9783 18.4911 13.7297 18.4911 13.4825 18.4911Z" fill="white"/>
</g>
<defs>
<clipPath id="clip0_272_11488">
<rect width="43" height="37" fill="white"/>
</clipPath>
</defs>
</svg>
