<svg width="46" height="46" viewBox="0 0 46 46" fill="none" xmlns="http://www.w3.org/2000/svg">
<g clip-path="url(#clip0_272_11466)">
<path d="M0.457435 45.9994C0.113023 45.7966 -0.0273818 45.5025 0.0050193 45.0993C0.0314202 44.7572 0.00621934 44.4116 0.0110195 44.0671C0.0182198 43.5414 0.248628 43.3002 0.779046 43.2978C2.2011 43.2906 3.62314 43.2954 5.04519 43.2942C5.1472 43.2942 5.2492 43.2858 5.40641 43.2774C5.40641 43.065 5.40641 42.8753 5.40641 42.6857C5.40641 33.9725 5.40641 25.2605 5.40641 16.5473C5.40641 15.3807 5.90322 14.8779 7.06486 14.8779C11.5998 14.8767 16.136 14.8767 20.6709 14.8779C21.8362 14.8779 22.345 15.3819 22.3462 16.5389C22.3474 20.1022 22.3462 23.6643 22.3462 27.2276C22.3462 27.3872 22.3462 27.548 22.3462 27.752C21.7954 27.752 21.3058 27.752 20.8161 27.752C19.4841 27.752 18.1521 27.7424 16.82 27.7556C15.0787 27.7736 13.5787 29.2114 13.5679 30.9397C13.5427 34.9662 13.5571 38.994 13.5559 43.0206C13.5559 43.0926 13.5715 43.1646 13.5835 43.2642C14.2303 43.2642 14.8651 43.2642 15.554 43.2642C15.554 43.0746 15.554 42.9006 15.554 42.7265C15.554 38.9388 15.554 35.1511 15.554 31.3645C15.554 30.2748 16.0832 29.7479 17.1812 29.7479C21.0585 29.7467 24.9347 29.7467 28.812 29.7479C29.9341 29.7479 30.4525 30.27 30.4525 31.3969C30.4525 35.1691 30.4525 38.9424 30.4525 42.7145C30.4525 42.891 30.4525 43.0662 30.4525 43.2678C31.1317 43.2678 31.7653 43.2678 32.4229 43.2678C32.4337 43.131 32.4505 43.0146 32.4505 42.8994C32.4517 38.9772 32.4589 35.0551 32.4469 31.1329C32.4421 29.4335 31.3525 28.1385 29.688 27.8049C29.4708 27.7616 29.2428 27.7556 29.0196 27.7556C27.642 27.7508 26.2655 27.7532 24.8879 27.7532C24.7259 27.7532 24.5651 27.7532 24.3527 27.7532C24.3527 27.1184 24.3527 26.5243 24.3527 25.9302C24.3527 24.9869 24.3503 24.0435 24.3539 23.1014C24.3575 22.2193 24.8975 21.654 25.7651 21.6528C30.6901 21.648 35.6151 21.648 40.5388 21.6528C41.4125 21.654 41.9501 22.2325 41.9501 23.153C41.9513 29.6495 41.9513 36.1472 41.9513 42.6437C41.9513 42.8369 41.9513 43.0314 41.9513 43.2942C42.2969 43.2942 42.6197 43.2942 42.9425 43.2942C43.6157 43.2942 44.2902 43.3134 44.9634 43.287C45.3726 43.2714 45.7206 43.3542 45.999 43.6627C45.999 44.4416 45.999 45.2193 45.999 45.9982C30.8197 45.9994 15.638 45.9994 0.457435 45.9994Z" fill="#0F0F0F"/>
<path d="M29.0625 7.54985C29.2257 4.21219 30.715 1.74825 33.6791 0.214434C34.3235 -0.119212 34.8923 -0.0580038 35.3423 0.359654C35.7935 0.778512 35.8919 1.34379 35.6291 2.00748C34.2791 5.40996 36.2603 8.93005 39.8665 9.49893C40.8265 9.65015 41.7733 9.50853 42.6794 9.13407C43.3934 8.84003 43.9418 8.92885 44.3678 9.38611C44.8154 9.86498 44.8514 10.3918 44.4878 11.1264C43.031 14.0692 39.9013 16.023 36.2832 15.5946C32.6818 15.1685 29.9001 12.5461 29.2317 9.08727C29.1333 8.576 29.1153 8.04912 29.0625 7.54985Z" fill="#0F0F0F"/>
</g>
<defs>
<clipPath id="clip0_272_11466">
<rect width="46" height="46" fill="white"/>
</clipPath>
</defs>
</svg>
