<svg xmlns="http://www.w3.org/2000/svg" width="37" height="36" viewBox="0 0 37 36" fill="none">
  <g clip-path="url(#clip0_1470_2207)">
    <path d="M36.1162 18.1094C36.1162 27.0929 29.5252 34.5404 20.9212 35.8919V23.3474H25.1047L25.9012 18.1574H20.9212V14.7899C20.9212 13.3694 21.6172 11.9864 23.8462 11.9864H26.1097V7.56738C26.1097 7.56738 24.0547 7.21638 22.0912 7.21638C17.9902 7.21638 15.3112 9.70188 15.3112 14.2004V18.1559H10.7527V23.3459H15.3112V35.8904C6.70871 34.5374 0.116211 27.0914 0.116211 18.1094C0.116211 8.16888 8.17571 0.109375 18.1162 0.109375C28.0567 0.109375 36.1162 8.16738 36.1162 18.1094Z" fill="white"/>
  </g>
  <defs>
    <clipPath id="clip0_1470_2207">
      <rect width="36" height="36" fill="white" transform="translate(0.116211)"/>
    </clipPath>
  </defs>
</svg>