<svg xmlns="http://www.w3.org/2000/svg" width="35" height="28" viewBox="0 0 35 28" fill="none">
  <path d="M30.6355 6.97021C30.6553 7.27318 30.6553 7.57759 30.6553 7.88343C30.6553 17.2266 23.6371 28 10.8078 28V27.9943C7.01821 28 3.30654 26.9001 0.116211 24.8253C0.667294 24.8928 1.22121 24.9258 1.77654 24.9272C4.91871 24.9301 7.97021 23.8618 10.4395 21.8947C7.45454 21.8372 4.83654 19.8643 3.92279 16.984C4.96829 17.1879 6.04496 17.1462 7.07204 16.8634C3.81654 16.1971 1.47621 13.2981 1.47621 9.93242C1.47621 9.90226 1.47621 9.87211 1.47621 9.84339C2.44663 10.3919 3.53179 10.6949 4.64246 10.7279C1.57679 8.65306 0.630461 4.52062 2.48204 1.2899C6.02371 5.70665 11.2498 8.39173 16.8584 8.67747C16.296 6.22212 17.0652 3.64904 18.8757 1.92169C21.685 -0.756215 26.1035 -0.618372 28.7456 2.22896C30.3082 1.91738 31.8056 1.33585 33.1755 0.513096C32.6542 2.14999 31.5648 3.53991 30.1085 4.42441C31.4925 4.25641 32.8426 3.88165 34.1162 3.31017C33.1798 4.73025 32.0011 5.96941 30.6355 6.97021Z" fill="white"/>
</svg>