<svg xmlns="http://www.w3.org/2000/svg" width="35" height="25" viewBox="0 0 35 25" fill="none">
  <path d="M33.4023 3.75275C33.01 2.27582 31.8543 1.11161 30.3859 0.716434C27.7263 2.54183e-07 17.058 0 17.058 0C17.058 0 6.38962 2.54183e-07 3.72858 0.716434C2.2616 1.11161 1.10592 2.27439 0.713591 3.75275C0 6.43085 0 12.0173 0 12.0173C0 12.0173 0 17.6038 0.713591 20.2819C1.10592 21.7588 2.2616 22.923 3.73001 23.3182C6.38963 24.0347 17.058 24.0347 17.058 24.0347C17.058 24.0347 27.7263 24.0347 30.3873 23.3182C31.8543 22.923 33.01 21.7603 33.4037 20.2819C34.1159 17.6038 34.1159 12.0173 34.1159 12.0173C34.1159 12.0173 34.1159 6.43085 33.4023 3.75275ZM13.5696 17.0906V6.94401L22.4852 12.0173L13.5696 17.0906Z" fill="white"/>
</svg>