<svg width="18" height="18" viewBox="0 0 18 18" fill="none" xmlns="http://www.w3.org/2000/svg">
<g clip-path="url(#clip0_1154_3531)">
<path d="M17.6708 17.6707C17.451 17.8905 17.163 18 16.875 18C16.587 18 16.299 17.8905 16.0793 17.6707L2.25 3.84075V10.125C2.25 10.7467 1.74675 11.25 1.125 11.25C0.50325 11.25 0 10.7467 0 10.125V3.375C0 1.51425 1.51425 0 3.375 0H10.125C10.7468 0 11.25 0.50325 11.25 1.125C11.25 1.74675 10.7468 2.25 10.125 2.25H3.84075L17.6708 16.0793C18.1103 16.518 18.1103 17.2312 17.6708 17.67V17.6707Z" fill="#056946"/>
</g>
<defs>
<clipPath id="clip0_1154_3531">
<rect width="18" height="18" fill="white"/>
</clipPath>
</defs>
</svg>
