<svg width="19" height="19" viewBox="0 0 19 19" fill="none" xmlns="http://www.w3.org/2000/svg">
<g clip-path="url(#clip0_261_10439)">
<path d="M7.125 14.25H0V7.125C0 5.71581 0.417874 4.33827 1.20078 3.16657C1.98368 1.99487 3.09646 1.08164 4.39838 0.542362C5.7003 0.00308716 7.1329 -0.138012 8.51502 0.136908C9.89713 0.411828 11.1667 1.09042 12.1631 2.08687C13.1596 3.08332 13.8382 4.35287 14.1131 5.73498C14.388 7.1171 14.2469 8.5497 13.7076 9.85162C13.1684 11.1535 12.2551 12.2663 11.0834 13.0492C9.91174 13.8321 8.53419 14.25 7.125 14.25ZM15.8333 7.18834C15.8151 9.4755 14.8985 11.6638 13.2811 13.2811C11.6638 14.8985 9.4755 15.8151 7.18833 15.8333C7.74365 16.7952 8.54213 17.5941 9.50368 18.1499C10.4652 18.7057 11.556 18.9989 12.6667 19H19V12.6667C18.9989 11.556 18.7057 10.4652 18.1499 9.50368C17.5941 8.54214 16.7952 7.74365 15.8333 7.18834Z" fill="#69A590"/>
</g>
<defs>
<clipPath id="clip0_261_10439">
<rect width="19" height="19" fill="white"/>
</clipPath>
</defs>
</svg>
