<svg width="24" height="25" viewBox="0 0 24 25" fill="none" xmlns="http://www.w3.org/2000/svg">
<g clip-path="url(#clip0_261_10388)">
<path d="M21.326 10.2092C22.0392 10.2092 22.7531 10.2107 23.4663 10.2084C23.8519 10.2077 23.9978 10.0549 23.9985 9.65388C23.9999 9.07847 23.9999 8.50231 23.9978 7.92615C23.9964 7.5639 23.8476 7.38949 23.4971 7.388C22.0435 7.38129 20.59 7.38129 19.1364 7.38874C18.7909 7.39023 18.645 7.56837 18.6443 7.93584C18.6428 8.512 18.6428 9.08816 18.6443 9.66357C18.6457 10.0482 18.7945 10.2077 19.1586 10.2084C19.8811 10.2107 20.6036 10.2092 21.326 10.2092Z" fill="white"/>
<path d="M15.1213 10.2091C15.8345 10.2091 16.5484 10.2106 17.2616 10.2083C17.6329 10.2076 17.7824 10.0526 17.7838 9.67169C17.7859 9.08658 17.7859 8.50148 17.7838 7.91563C17.7824 7.57053 17.6321 7.39015 17.3002 7.38791C15.8381 7.38046 14.3752 7.38046 12.9124 7.38791C12.5812 7.38941 12.4317 7.57127 12.4303 7.91637C12.4281 8.50148 12.4281 9.08658 12.4303 9.67243C12.4317 10.0518 12.5826 10.2069 12.9546 10.2076C13.6771 10.2106 14.3989 10.2091 15.1213 10.2091Z" fill="white"/>
<path d="M21.3195 14.7909C20.6063 14.7909 19.8925 14.7894 19.1793 14.7916C18.7916 14.7924 18.6449 14.9437 18.6442 15.3425C18.6428 15.9089 18.6428 16.4761 18.6442 17.0426C18.6449 17.4637 18.793 17.6136 19.2229 17.615C20.4268 17.618 21.6307 17.6158 22.8346 17.6158C23.0578 17.6158 23.281 17.6232 23.5034 17.6136C23.8511 17.5979 23.997 17.4339 23.9984 17.0672C23.9999 16.491 23.9999 15.9149 23.9984 15.3395C23.9977 14.9422 23.8504 14.7924 23.4605 14.7916C22.7466 14.7901 22.0334 14.7909 21.3195 14.7909Z" fill="white"/>
<path d="M15.0941 14.7908C14.3809 14.7908 13.667 14.7894 12.9539 14.7916C12.5812 14.7923 12.4317 14.9466 12.4302 15.3268C12.4281 15.9119 12.4281 16.497 12.4302 17.0828C12.4317 17.4279 12.5819 17.6098 12.9131 17.6113C14.3752 17.6195 15.8381 17.6195 17.3009 17.6113C17.6321 17.6098 17.7823 17.4272 17.7838 17.0828C17.7859 16.488 17.7866 15.894 17.7838 15.2992C17.7816 14.9548 17.625 14.7931 17.288 14.7916C16.557 14.7886 15.8252 14.7908 15.0941 14.7908Z" fill="white"/>
<path d="M8.86505 14.7909C8.16045 14.7909 7.45585 14.7894 6.75125 14.7916C6.36354 14.7924 6.2169 14.9437 6.21619 15.3425C6.21476 15.9089 6.21476 16.4761 6.21619 17.0426C6.2169 17.4637 6.36497 17.6136 6.79489 17.615C7.99878 17.618 9.20268 17.6158 10.4066 17.6158C10.6298 17.6158 10.8529 17.6232 11.0754 17.6136C11.4231 17.5979 11.569 17.4339 11.5704 17.068C11.5726 16.4918 11.5719 15.9156 11.5704 15.3402C11.5697 14.9429 11.4223 14.7931 11.0325 14.7924C10.31 14.7901 9.58753 14.7909 8.86505 14.7909Z" fill="white"/>
<path d="M17.7674 3.69099C17.0636 3.69099 16.359 3.6895 15.6551 3.69174C15.2402 3.69248 15.0914 3.84379 15.0878 4.27684C15.0835 4.83362 15.0828 5.39115 15.0885 5.94867C15.0921 6.36086 15.2452 6.5144 15.6472 6.51515C17.0643 6.51738 18.4821 6.51738 19.8991 6.51515C20.2954 6.5144 20.4549 6.34893 20.4571 5.94271C20.4599 5.38593 20.4599 4.8284 20.4571 4.27088C20.4549 3.85944 20.2983 3.69323 19.907 3.69174C19.1931 3.68875 18.4799 3.69099 17.7674 3.69099Z" fill="white"/>
<path d="M17.7673 21.309C18.4712 21.309 19.1758 21.3105 19.8796 21.3082C20.3046 21.3075 20.4555 21.148 20.4562 20.7C20.4576 20.1611 20.4576 19.623 20.4562 19.0841C20.4548 18.6496 20.3053 18.4856 19.8975 18.4848C18.4805 18.4826 17.0627 18.4826 15.6456 18.4848C15.2436 18.4856 15.0912 18.6391 15.0869 19.0513C15.0819 19.6178 15.0812 20.1842 15.0869 20.7507C15.0912 21.1495 15.2457 21.306 15.6263 21.3075C16.3409 21.3112 17.0541 21.309 17.7673 21.309Z" fill="white"/>
<path d="M11.5632 21.309C12.2671 21.309 12.9717 21.3105 13.6756 21.3083C14.0855 21.3068 14.2407 21.145 14.2421 20.718C14.2443 20.1604 14.245 19.6036 14.2414 19.0461C14.2392 18.657 14.0769 18.4864 13.6999 18.4856C12.2735 18.4826 10.8472 18.4834 9.42151 18.4856C9.0338 18.4864 8.87786 18.6406 8.87357 19.0342C8.86713 19.6096 8.86713 20.1858 8.87357 20.7612C8.87786 21.154 9.03595 21.3068 9.42294 21.3075C10.1368 21.3113 10.85 21.309 11.5632 21.309Z" fill="white"/>
<path d="M5.35777 21.309C6.06166 21.309 6.76626 21.3105 7.47014 21.3082C7.865 21.3067 8.02595 21.142 8.0281 20.7365C8.03096 20.1701 8.03167 19.6036 8.0281 19.0371C8.02523 18.6622 7.86286 18.4871 7.50519 18.4863C6.06094 18.4826 4.61741 18.4826 3.17316 18.4863C2.82336 18.4871 2.66599 18.6503 2.66098 19.0155C2.65383 19.6006 2.65383 20.1857 2.66098 20.7708C2.66528 21.1495 2.82479 21.3067 3.19247 21.3082C3.91352 21.3112 4.63601 21.309 5.35777 21.309Z" fill="white"/>
<path d="M21.3356 2.8128C22.0309 2.81354 22.7262 2.81578 23.4222 2.81205C23.8664 2.80981 23.998 2.67043 23.998 2.21576C23.9987 1.64929 24.0002 1.08282 23.9973 0.516352C23.9959 0.162308 23.8471 0.0020562 23.5123 0.00131084C22.0502 -0.000925228 20.5881 -0.000925228 19.1259 0.00131084C18.8026 0.0020562 18.6467 0.160817 18.6445 0.49101C18.6402 1.09475 18.6409 1.69849 18.6445 2.30223C18.6467 2.64434 18.7976 2.80609 19.1431 2.80981C19.8734 2.81727 20.6045 2.81205 21.3356 2.8128Z" fill="white"/>
<path d="M21.3369 24.9993C22.0501 24.9993 22.7632 25.0001 23.4764 24.9986C23.8513 24.9978 23.9965 24.8495 23.9979 24.4649C24 23.8798 24 23.2947 23.9979 22.7096C23.9965 22.3585 23.8527 22.1915 23.5122 22.1901C22.0501 22.1841 20.5879 22.1834 19.1258 22.1901C18.7874 22.1915 18.6458 22.36 18.6444 22.714C18.6422 23.2902 18.643 23.8656 18.6437 24.4418C18.6444 24.8495 18.7839 24.9978 19.1701 24.9986C19.8926 25.0008 20.6151 24.9993 21.3369 24.9993Z" fill="white"/>
<path d="M15.1055 24.9993C15.8187 24.9993 16.5318 25 17.245 24.9993C17.6485 24.9985 17.783 24.8554 17.7837 24.4276C17.7844 23.8514 17.7858 23.276 17.783 22.6998C17.7815 22.3644 17.637 22.193 17.3144 22.1915C15.8437 22.184 14.3723 22.184 12.9008 22.1915C12.5775 22.193 12.4309 22.3637 12.4294 22.6969C12.4266 23.3006 12.4259 23.9043 12.4294 24.5081C12.4316 24.8383 12.5882 24.997 12.9109 24.9985C13.6433 25.0015 14.3744 24.9993 15.1055 24.9993Z" fill="white"/>
<path d="M8.9015 24.9993C9.62399 24.9993 10.3458 25.0008 11.0682 24.9985C11.4216 24.9978 11.5682 24.8428 11.5697 24.4731C11.5718 23.888 11.5718 23.3029 11.5697 22.7178C11.5682 22.3615 11.428 22.193 11.0911 22.1915C9.62899 22.1848 8.16686 22.1848 6.70473 22.1908C6.36352 22.1923 6.21759 22.3585 6.21616 22.7073C6.2133 23.3014 6.2133 23.8962 6.21616 24.491C6.21831 24.8413 6.36996 24.9978 6.70831 24.9993C7.43937 25.0015 8.17044 24.9993 8.9015 24.9993Z" fill="white"/>
<path d="M2.69183 24.9993C3.39642 24.9993 4.10031 25.0001 4.80491 24.9993C5.22552 24.9986 5.35643 24.8599 5.35643 24.4135C5.35714 23.847 5.35857 23.2805 5.35571 22.714C5.35428 22.3607 5.21193 22.193 4.87358 22.1916C3.41145 22.1848 1.94931 22.1848 0.487182 22.1916C0.1474 22.193 0.00433445 22.36 0.00218868 22.7118C-0.000672817 23.3059 -0.000672817 23.9007 0.00218868 24.4947C0.00433445 24.8413 0.158132 24.9978 0.497913 24.9986C1.22969 25.0008 1.96076 24.9993 2.69183 24.9993Z" fill="white"/>
<path d="M17.7545 11.0991C17.0406 11.0991 16.326 11.0969 15.6121 11.0999C15.2373 11.1014 15.0921 11.2475 15.0878 11.6373C15.0814 12.2134 15.0814 12.7904 15.0878 13.3665C15.0921 13.7541 15.2387 13.8994 15.6157 13.9002C17.0528 13.9024 18.4899 13.9024 19.927 13.9002C20.3047 13.8994 20.4535 13.7377 20.4556 13.3345C20.4585 12.7762 20.4585 12.2187 20.4556 11.6604C20.4535 11.2594 20.3047 11.1014 19.9234 11.0991C19.2009 11.0969 18.4777 11.0991 17.7545 11.0991Z" fill="white"/>
<path d="M11.5548 13.9009C12.2687 13.9009 12.9833 13.9032 13.6972 13.9002C14.0942 13.8987 14.2408 13.7422 14.2423 13.324C14.2444 12.7658 14.2451 12.2082 14.2423 11.65C14.2401 11.2654 14.0885 11.1006 13.7265 11.0999C12.2808 11.0969 10.8344 11.0969 9.38875 11.0999C9.02894 11.1006 8.88015 11.2482 8.87586 11.6194C8.86799 12.2053 8.8687 12.7911 8.87586 13.377C8.88015 13.7489 9.02894 13.8972 9.38732 13.8995C10.1091 13.9039 10.8323 13.9009 11.5548 13.9009Z" fill="white"/>
<path d="M23.9985 5.09828C23.9985 4.80088 24.0007 4.50423 23.9978 4.20683C23.9942 3.87739 23.8397 3.69776 23.5307 3.69328C22.9427 3.68508 22.3547 3.68508 21.7667 3.69328C21.4784 3.69701 21.3125 3.8595 21.3067 4.15839C21.2953 4.7897 21.296 5.42102 21.3075 6.05159C21.3125 6.33706 21.472 6.50328 21.7467 6.50924C22.3525 6.52117 22.9584 6.52191 23.5643 6.50849C23.8433 6.50253 23.9935 6.31396 23.9971 6.01656C24.0021 5.71096 23.9985 5.40462 23.9985 5.09828Z" fill="white"/>
<path d="M23.9985 19.8779C23.9985 19.5805 24.0014 19.2839 23.9978 18.9865C23.9942 18.6868 23.8469 18.4975 23.5693 18.4908C22.9549 18.4774 22.3397 18.4774 21.7252 18.4916C21.467 18.4975 21.3132 18.6675 21.3082 18.9417C21.2967 19.5731 21.296 20.2044 21.3067 20.835C21.3118 21.1346 21.477 21.3008 21.7624 21.3053C22.359 21.3142 22.9563 21.315 23.5536 21.3045C23.8347 21.2993 23.9928 21.1174 23.9978 20.8245C24.0028 20.5092 23.9985 20.1939 23.9985 19.8779Z" fill="white"/>
<path d="M23.9985 12.4996C23.9985 12.2029 24.0006 11.9056 23.9978 11.6089C23.9942 11.2675 23.8526 11.105 23.5335 11.1013C22.9455 11.0946 22.3582 11.0954 21.7702 11.1013C21.4648 11.1043 21.3096 11.2586 21.3046 11.5813C21.2946 12.1933 21.2946 12.8059 21.3046 13.4179C21.3096 13.7399 21.4655 13.8942 21.771 13.8979C22.359 13.9039 22.9462 13.9046 23.5342 13.8979C23.8519 13.8942 23.9942 13.7309 23.9978 13.3896C24.0006 13.0929 23.9985 12.7963 23.9985 12.4996Z" fill="white"/>
</g>
<defs>
<clipPath id="clip0_261_10388">
<rect width="24" height="25" fill="white" transform="matrix(-1 0 0 1 24 0)"/>
</clipPath>
</defs>
</svg>
