<svg width="25" height="24" viewBox="0 0 25 24" fill="none" xmlns="http://www.w3.org/2000/svg">
<path d="M12.5365 23.0355C12.2667 22.9732 11.9927 22.9276 11.7279 22.8461C9.94667 22.2956 8.86732 20.9481 8.21221 19.1265C8.19181 19.0698 8.19459 18.9549 8.22658 18.9311C8.48204 18.7412 8.57292 18.4723 8.56179 18.1492C11.5805 20.5019 14.5849 20.5075 17.5823 18.1831C17.6435 18.3558 17.6639 18.6303 17.7988 18.7462C18.0603 18.9716 17.9731 19.1696 17.8753 19.4106C17.2165 21.0326 16.208 22.2556 14.6127 22.7969C14.2993 22.9033 13.9705 22.9575 13.6488 23.0355C13.2783 23.0355 12.9074 23.0355 12.5365 23.0355Z" fill="white"/>
<path d="M17.2737 23.0353C17.8916 22.4063 18.4382 21.7076 18.8403 20.8781C19.047 20.4517 19.2242 20.0062 19.425 19.5452C19.7635 19.7224 20.1129 19.9007 20.4587 20.0873C21.2774 20.5292 22.1157 20.9303 22.9049 21.4326C23.555 21.8461 24.1448 22.3821 24.7622 22.8617C24.8222 22.9082 24.8885 22.9433 24.9521 22.9836C24.8917 23.0007 24.8308 23.0333 24.7704 23.0333C22.2715 23.0358 19.7726 23.0353 17.2737 23.0353Z" fill="white"/>
<path d="M0.520752 22.9837C0.55743 22.9703 0.602039 22.9672 0.629299 22.9424C2.04389 21.6747 3.7182 20.8815 5.39944 20.0998C5.78258 19.9216 6.16225 19.7352 6.56026 19.5452C6.5895 19.6015 6.62023 19.6484 6.64006 19.6996C7.12332 20.9673 7.83309 22.0692 8.83678 22.9563C8.86107 22.9775 8.87742 23.0085 8.89725 23.0353C6.17117 23.0353 3.4446 23.0358 0.718517 23.0333C0.652595 23.0333 0.586674 23.0007 0.520752 22.9837Z" fill="white"/>
<path d="M16.4903 1.20229C17.3253 1.73933 17.9692 2.46737 18.4766 3.3208C19.1148 4.3944 19.4405 5.56373 19.441 6.82347C19.441 7.07425 19.441 7.32503 19.441 7.61664C19.6203 7.61664 19.79 7.61615 19.9603 7.61664C20.4301 7.61907 20.7677 7.92817 20.7639 8.35245C20.7601 8.77382 20.4344 9.07418 19.974 9.07418C15.1488 9.07466 10.3231 9.07466 5.49792 9.07418C5.03855 9.07418 4.71186 8.77236 4.70901 8.35197C4.70568 7.93594 5.03998 7.62052 5.48936 7.61664C5.6615 7.61518 5.83412 7.61664 6.03432 7.61664C6.03432 7.24775 6.01672 6.90074 6.03717 6.55616C6.16842 4.3249 7.13042 2.55728 8.89892 1.24603C8.92412 1.22757 8.95503 1.21639 8.98309 1.20181C8.97976 2.24478 8.96977 3.28776 8.98166 4.33024C8.98356 4.47605 9.06916 4.64178 9.16141 4.76182C9.33974 4.99365 9.64645 5.05586 9.91418 4.95379C10.2128 4.84055 10.3764 4.60241 10.3778 4.23839C10.3821 3.08995 10.3802 1.94151 10.3783 0.792587C10.3783 0.692956 10.3574 0.593324 10.3364 0.410585C9.84903 0.696844 9.41392 0.951998 8.97881 1.20715C8.97215 1.03851 8.95028 0.868891 8.96216 0.701704C8.98689 0.358582 9.18519 0.118979 9.48953 0.0329559C9.79339 -0.0525816 10.0706 0.0553123 10.2732 0.338655C10.296 0.370246 10.3179 0.402808 10.3203 0.406697C10.9038 0.279362 11.4654 0.156888 12.0265 0.0344139L12.0203 0.0290678C12.0213 0.393574 12.0227 0.757595 12.0227 1.1221C12.0232 2.4421 12.0217 3.7621 12.0232 5.08161C12.0236 5.49278 12.2257 5.78438 12.561 5.86895C13.0451 5.99142 13.4493 5.63761 13.4502 5.08161C13.4531 3.39759 13.4526 1.71309 13.4536 0.0290678L13.4474 0.0344139C14.009 0.156402 14.5701 0.27839 15.1531 0.404753C15.2706 0.188965 15.4708 0.0329559 15.7513 0.00330937C16.0956 -0.0331413 16.4423 0.235621 16.4941 0.606932C16.5212 0.80328 16.4965 1.00692 16.4951 1.20764C16.0813 0.895621 15.6286 0.662823 15.1193 0.46599C15.1094 0.639009 15.096 0.774605 15.0956 0.910202C15.0932 1.58187 15.0937 2.25304 15.0946 2.92471C15.0956 3.40197 15.0846 3.87971 15.1065 4.356C15.1236 4.73217 15.4422 5.00142 15.8122 4.99608C16.1793 4.99073 16.4936 4.70593 16.496 4.33122C16.5031 3.28824 16.4932 2.24527 16.4903 1.20229Z" fill="white"/>
<path d="M6.8094 10.4707C10.7773 10.4707 14.7044 10.4707 18.6529 10.4707C18.6583 10.543 18.6675 10.6111 18.6675 10.6791C18.6685 11.512 18.6724 12.3443 18.6665 13.1771C18.6481 15.8507 16.5457 18.2639 13.8582 18.747C10.6232 19.3285 7.71061 17.3112 6.99314 14.4611C6.88572 14.0347 6.83273 13.5873 6.81767 13.1476C6.79044 12.3319 6.8094 11.5143 6.8094 10.6977C6.8094 10.6282 6.8094 10.5583 6.8094 10.4707Z" fill="white"/>
<path d="M13.7835 0C13.7826 1.60363 13.7831 3.20772 13.7803 4.81134C13.7794 5.34126 13.3856 5.67818 12.9141 5.56109C12.5876 5.4801 12.3907 5.20288 12.3902 4.81134C12.3888 3.55436 12.3898 2.29784 12.3898 1.04085C12.3898 0.693748 12.3884 0.347105 12.3875 0C12.853 0 13.318 0 13.7835 0Z" fill="#004B2F"/>
<path d="M16.5678 1.3784C16.5706 2.34266 16.5805 3.30736 16.573 4.27162C16.5702 4.61805 16.2581 4.88135 15.894 4.8863C15.5267 4.89124 15.2104 4.64231 15.1934 4.29453C15.1717 3.85419 15.1825 3.4125 15.1816 2.97127C15.1802 2.3503 15.1802 1.72977 15.1825 1.1088C15.183 0.983443 15.1967 0.858081 15.2061 0.69812C15.7118 0.879648 16.1613 1.09533 16.572 1.38379C16.5716 1.38334 16.5678 1.3784 16.5678 1.3784Z" fill="#004B2F"/>
<path d="M8.90022 1.4249C9.33258 1.1921 9.76446 0.958858 10.2493 0.69812C10.2696 0.86485 10.2904 0.955754 10.2909 1.04666C10.2932 2.09449 10.2951 3.14232 10.2904 4.19059C10.289 4.52272 10.1264 4.74 9.82967 4.84332C9.56364 4.936 9.25839 4.87968 9.08167 4.66816C8.99 4.55864 8.90495 4.40787 8.90306 4.2744C8.89077 3.32324 8.90117 2.37163 8.90448 1.42003C8.90448 1.41958 8.90022 1.4249 8.90022 1.4249Z" fill="#004B2F"/>
</svg>
