<svg width="24" height="28" viewBox="0 0 24 28" fill="none" xmlns="http://www.w3.org/2000/svg">
<g clip-path="url(#clip0_261_10315)">
<path d="M0 28C0 27.4641 0 26.9275 0 26.371C0.532827 26.371 1.045 26.371 1.58637 26.371C1.58637 25.8198 1.58637 25.2875 1.58637 24.7362C8.53093 24.7362 15.4456 24.7362 22.3894 24.7362C22.3894 25.267 22.3894 25.7993 22.3894 26.3513C22.9301 26.3513 23.4422 26.3513 23.9943 26.3513C23.9943 26.9136 23.9943 27.4568 23.9943 27.9993C15.9962 28 7.9981 28 0 28Z" fill="white"/>
<path d="M0.00147655 11.5411C8.01881 11.5411 15.9934 11.5411 23.9851 11.5411C23.9851 12.1721 24.0264 12.7929 23.9751 13.4056C23.9082 14.2003 23.2044 14.8072 22.4194 14.8079C15.4727 14.8101 8.52528 14.8101 1.57859 14.8079C0.705976 14.8079 0.00931224 14.0863 0.00290123 13.1906C-0.00208512 12.6459 0.00147655 12.1005 0.00147655 11.5411Z" fill="white"/>
<path d="M17.5883 0C17.5883 1.65093 17.5883 3.28212 17.5883 4.94328C16.0026 4.94328 14.4177 4.94328 12.7964 4.94328C12.7964 5.46971 12.8206 5.96908 12.7879 6.4648C12.7658 6.80551 12.8833 6.96417 13.1811 7.11333C14.885 7.96585 16.5761 8.84688 18.2707 9.71913C18.3455 9.75788 18.4189 9.80102 18.5471 9.87195C14.1612 9.87195 9.8395 9.87195 5.46362 9.87195C5.57261 9.8076 5.64171 9.763 5.71437 9.72572C7.45816 8.83006 9.20125 7.93148 10.95 7.04533C11.1459 6.9459 11.205 6.83037 11.2043 6.61176C11.1958 4.51483 11.1993 2.41717 11.1993 0.319511C11.1993 0.220075 11.1993 0.120639 11.1993 0.000731147C13.3285 0 15.4456 0 17.5883 0Z" fill="white"/>
<path d="M6.38457 23.0619C5.32319 23.0619 4.27891 23.0619 3.21753 23.0619C3.21753 20.8655 3.21753 18.6757 3.21753 16.4691C4.27107 16.4691 5.32106 16.4691 6.38457 16.4691C6.38457 18.664 6.38457 20.848 6.38457 23.0619Z" fill="white"/>
<path d="M8.01733 16.4662C9.08228 16.4662 10.1258 16.4662 11.1837 16.4662C11.1837 18.6633 11.1837 20.8465 11.1837 23.0516C10.1365 23.0516 9.08584 23.0516 8.01733 23.0516C8.01733 20.867 8.01733 18.6764 8.01733 16.4662Z" fill="white"/>
<path d="M12.8179 16.4655C13.8785 16.4655 14.9228 16.4655 15.9814 16.4655C15.9814 18.6677 15.9814 20.8575 15.9814 23.0604C14.9257 23.0604 13.8814 23.0604 12.8179 23.0604C12.8179 20.8699 12.8179 18.6794 12.8179 16.4655Z" fill="white"/>
<path d="M20.776 23.0604C19.7117 23.0604 18.6675 23.0604 17.6104 23.0604C17.6104 20.864 17.6104 18.6801 17.6104 16.475C18.6568 16.475 19.7075 16.475 20.776 16.475C20.776 18.6596 20.776 20.8494 20.776 23.0604Z" fill="white"/>
</g>
<defs>
<clipPath id="clip0_261_10315">
<rect width="24" height="28" fill="white"/>
</clipPath>
</defs>
</svg>
