<svg width="23" height="23" viewBox="0 0 23 23" fill="none" xmlns="http://www.w3.org/2000/svg">
<path d="M16.2896 0H19.1654C21.2832 0 22.9999 1.71676 22.9999 3.83448V6.71035C22.9999 8.82807 21.2832 10.5448 19.1654 10.5448H16.2896C14.1718 10.5449 12.4551 8.82812 12.4551 6.71035V3.83448C12.4551 1.71676 14.1718 0 16.2896 0Z" fill="#056946"/>
<path d="M3.83448 0H6.71035C8.82807 0 10.5448 1.71676 10.5448 3.83448V6.71035C10.5448 8.82807 8.82807 10.5448 6.71035 10.5448H3.83448C1.71676 10.5448 8.82108e-10 8.82807 8.82108e-10 6.71035V3.83448C-4.49346e-05 1.71676 1.71671 0 3.83448 0Z" fill="#056946"/>
<path d="M3.83448 12.4553H6.71035C8.82807 12.4553 10.5448 14.1721 10.5448 16.2898V19.1657C10.5448 21.2834 8.82807 23.0002 6.71035 23.0002H3.83448C1.71676 23.0002 0 21.2834 0 19.1657V16.2898C0 14.1721 1.71676 12.4553 3.83448 12.4553Z" fill="#056946"/>
<path d="M16.2896 12.4553H19.1654C21.2832 12.4553 22.9999 14.1721 22.9999 16.2898V19.1657C22.9999 21.2834 21.2832 23.0002 19.1654 23.0002H16.2896C14.1718 23.0002 12.4551 21.2834 12.4551 19.1657V16.2898C12.455 14.1721 14.1718 12.4553 16.2896 12.4553Z" fill="#056946"/>
</svg>
