<svg width="27" height="27" viewBox="0 0 27 27" fill="none" xmlns="http://www.w3.org/2000/svg">
<path d="M10.125 20.25H0V10.125C0 8.12247 0.593821 6.1649 1.70637 4.49986C2.81892 2.83481 4.40023 1.53706 6.25033 0.770724C8.10043 0.00438702 10.1362 -0.196122 12.1003 0.194554C14.0643 0.585229 15.8685 1.54954 17.2845 2.96555C18.7005 4.38156 19.6648 6.18566 20.0555 8.14971C20.4461 10.1138 20.2456 12.1496 19.4793 13.9997C18.7129 15.8498 17.4152 17.4311 15.7501 18.5436C14.0851 19.6562 12.1275 20.25 10.125 20.25ZM22.5 10.215C22.4741 13.4652 21.1715 16.5749 18.8732 18.8732C16.5749 21.1715 13.4652 22.4741 10.215 22.5C11.0041 23.8668 12.1388 25.0021 13.5052 25.7919C14.8716 26.5818 16.4217 26.9984 18 27H27V18C26.9984 16.4217 26.5818 14.8716 25.7919 13.5052C25.0021 12.1388 23.8668 11.0041 22.5 10.215Z" fill="#056946"/>
</svg>
