<svg width="24" height="21" viewBox="0 0 24 21" fill="none" xmlns="http://www.w3.org/2000/svg">
<g clip-path="url(#clip0_261_10308)">
<path d="M15.6447 1.34208C16.272 0.64517 17.0112 0.235091 17.882 0.0623858C19.9329 -0.346172 22.0778 1.30023 22.3365 3.47692C22.5027 4.87454 22.1117 6.05532 21.1716 7.04514C19.5781 8.72274 17.9861 10.4011 16.3919 12.0772C15.8976 12.596 15.3716 12.5968 14.8794 12.0794C13.2657 10.3836 11.6434 8.69687 10.0449 6.98428C8.94645 5.80806 8.60536 4.38914 9.09098 2.8211C9.57371 1.26295 10.6418 0.328671 12.1724 0.0631466C13.3741 -0.146077 14.4545 0.212266 15.3701 1.07731C15.4561 1.15796 15.5407 1.24165 15.6447 1.34208ZM16.3847 6.38628C16.4758 6.51409 16.5459 6.59093 16.5921 6.68147C16.7171 6.92721 16.9 7.00634 17.1666 6.99873C17.851 6.97895 18.536 6.98884 19.2211 6.99417C19.4054 6.99569 19.5637 6.94852 19.5673 6.73245C19.5709 6.51714 19.4184 6.45931 19.2312 6.4616C18.7536 6.46692 18.2716 6.41899 17.7997 6.47453C17.2569 6.53844 16.8927 6.36041 16.6463 5.84838C16.5871 5.72513 16.418 5.57525 16.311 5.58514C16.2055 5.59503 16.087 5.7761 16.0255 5.90848C15.8608 6.25998 15.7235 6.62593 15.5529 7.03981C15.2371 6.23259 14.9517 5.48699 14.6489 4.749C14.6026 4.63716 14.4827 4.50782 14.3801 4.4888C14.2977 4.47359 14.1618 4.5938 14.0975 4.68966C13.7861 5.15452 13.4862 5.62774 13.1942 6.1063C13.1096 6.24476 13.0164 6.29498 12.8654 6.28889C12.5771 6.27824 12.2887 6.28737 12.0004 6.28585C11.832 6.28509 11.7106 6.35432 11.7099 6.543C11.7091 6.7431 11.8313 6.81994 12.0134 6.81766C12.3465 6.81385 12.6811 6.79864 13.0135 6.82298C13.2751 6.842 13.4283 6.73397 13.5599 6.50877C13.7911 6.11238 14.0469 5.73198 14.3179 5.3044C14.6438 6.13901 14.9408 6.91961 15.2595 7.69107C15.3116 7.81813 15.4474 7.96496 15.5623 7.98475C15.6397 7.99768 15.7813 7.81889 15.8377 7.69716C16.0277 7.28175 16.1925 6.85342 16.3847 6.38628Z" fill="white"/>
<path d="M5.79568 11.5424C7.7902 11.5591 9.78111 11.3484 11.681 12.1647C12.3357 12.4462 12.9463 12.7977 13.5035 13.258C13.5989 13.3371 13.7449 13.3813 13.8684 13.3828C14.7696 13.3934 15.6714 13.3835 16.5726 13.3904C17.1782 13.395 17.5988 13.7259 17.7411 14.2859C17.924 15.0079 17.4152 15.7428 16.7056 15.7535C15.7777 15.7664 14.8491 15.7565 13.9205 15.7596C13.8229 15.7596 13.7029 15.7489 13.6336 15.8014C13.5526 15.863 13.4645 15.9931 13.4731 16.0844C13.4811 16.1734 13.5945 16.2708 13.6834 16.3279C13.7441 16.3667 13.8417 16.3439 13.9226 16.3446C14.427 16.3454 14.9343 16.3119 15.4366 16.3522C16.4967 16.4367 17.4904 16.1909 18.4602 15.7748C19.7501 15.2209 21.0436 14.6754 22.3329 14.1192C23.109 13.7845 23.8519 14.193 23.987 15.0398C24.0614 15.5093 23.8302 15.9969 23.3626 16.2602C21.7215 17.1853 20.0919 18.1371 18.4226 19.0022C17.3205 19.5728 16.1585 20.0163 15.0203 20.5093C13.557 21.1438 12.0734 21.1477 10.5905 20.6067C9.04617 20.0429 7.51126 19.4503 5.97128 18.8721C5.83687 18.8218 5.77834 18.7496 5.77906 18.5845C5.78556 16.2876 5.7834 13.9907 5.78412 11.6945C5.78267 11.658 5.78845 11.6215 5.79568 11.5424Z" fill="white"/>
<path d="M0.00078613 15.1318C0.00078613 13.8514 6.34776e-05 12.5702 0.00150878 11.2897C0.00223143 10.6286 0.322366 10.2931 0.950351 10.2931C2.06757 10.2923 3.18479 10.2923 4.30201 10.2931C4.91048 10.2938 5.23134 10.6324 5.23206 11.2783C5.23279 13.859 5.23351 16.4389 5.23206 19.0196C5.23206 19.6495 4.91554 19.9813 4.31357 19.982C3.17829 19.9843 2.043 19.9851 0.907715 19.982C0.329593 19.9805 0.00367674 19.6389 0.00295409 19.031C-0.00138183 17.7308 0.00078613 16.4313 0.00078613 15.1318ZM2.97594 18.7883C3.5902 18.786 4.09389 18.2626 4.09895 17.6205C4.104 16.9715 3.58948 16.4321 2.96655 16.4328C2.3523 16.4343 1.85511 16.9532 1.84716 17.6022C1.83777 18.255 2.34868 18.7906 2.97594 18.7883Z" fill="white"/>
<path d="M16.3848 6.38624C16.1918 6.85338 16.0271 7.28096 15.837 7.69636C15.7814 7.81809 15.639 7.99764 15.5617 7.98395C15.4468 7.96417 15.3109 7.81733 15.2589 7.69027C14.9409 6.91881 14.6439 6.13821 14.3173 5.3036C14.0456 5.73118 13.7905 6.11235 13.5592 6.50797C13.427 6.73393 13.2745 6.84197 13.0129 6.82219C12.6812 6.79784 12.3466 6.81382 12.0127 6.81686C11.8306 6.81838 11.7085 6.7423 11.7092 6.54221C11.71 6.35352 11.8314 6.28429 11.9997 6.28505C12.2881 6.28657 12.5764 6.27744 12.8648 6.28809C13.0165 6.29342 13.1097 6.24397 13.1936 6.1055C13.4848 5.62695 13.7854 5.15372 14.0969 4.68886C14.1612 4.593 14.297 4.47279 14.3794 4.48801C14.482 4.50627 14.6027 4.6356 14.6483 4.7482C14.951 5.48619 15.2365 6.23179 15.5523 7.03902C15.7228 6.62513 15.8601 6.25918 16.0249 5.90769C16.0871 5.7753 16.2056 5.59423 16.3104 5.58434C16.4166 5.57445 16.5857 5.72433 16.6457 5.84758C16.8921 6.35961 17.2563 6.53764 17.799 6.47373C18.2709 6.41819 18.7529 6.46612 19.2306 6.4608C19.4178 6.45852 19.5702 6.5171 19.5666 6.73165C19.563 6.94696 19.4048 6.99413 19.2205 6.99337C18.5354 6.9888 17.8503 6.97815 17.166 6.99793C16.8993 7.00554 16.7172 6.92642 16.5915 6.68067C16.5459 6.5909 16.4758 6.51406 16.3848 6.38624Z" fill="white"/>
<path d="M2.97581 18.7883C2.34782 18.7906 1.83763 18.255 1.8463 17.6022C1.85497 16.9533 2.35143 16.4344 2.96569 16.4329C3.58862 16.4313 4.10314 16.9708 4.09808 17.6205C4.09375 18.2626 3.59078 18.7861 2.97581 18.7883ZM2.97797 18.2048C3.29016 18.2018 3.54742 17.9279 3.54237 17.6045C3.53731 17.2797 3.27426 17.0103 2.96569 17.0134C2.6535 17.0164 2.40708 17.2842 2.40925 17.6182C2.41141 17.9545 2.65784 18.2086 2.97797 18.2048Z" fill="white"/>
<path d="M2.97793 18.2048C2.6578 18.2078 2.4121 17.9545 2.4092 17.6182C2.40631 17.2842 2.65274 17.0164 2.96565 17.0133C3.27422 17.0103 3.53726 17.2804 3.54232 17.6045C3.54738 17.9286 3.29012 18.2017 2.97793 18.2048Z" fill="#0F0F0F"/>
</g>
<defs>
<clipPath id="clip0_261_10308">
<rect width="24" height="21" fill="white"/>
</clipPath>
</defs>
</svg>
