<svg width="23" height="24" viewBox="0 0 23 24" fill="none" xmlns="http://www.w3.org/2000/svg">
<g clip-path="url(#clip0_261_10323)">
<path d="M22.9999 15.1422C22.6454 16.0561 21.8661 16.3684 21.0532 16.6113C19.9434 16.9431 18.8035 17.0031 17.6559 16.9581C17.6349 16.9575 17.6139 16.9468 17.5803 16.9368C17.5803 15.5585 17.5803 14.1801 17.5803 12.7918C17.6019 12.7836 17.6283 12.7655 17.6553 12.7642C18.8863 12.716 20.1077 12.7849 21.2872 13.1874C21.6519 13.3119 21.9993 13.506 22.3352 13.7032C22.6628 13.8953 22.8559 14.2227 22.9999 14.5795C22.9999 14.7673 22.9999 14.9551 22.9999 15.1422Z" fill="white"/>
<path d="M10.6503 24C10.3198 23.9524 9.98802 23.9111 9.65867 23.8548C8.94058 23.7327 8.24168 23.5474 7.61117 23.1493C6.98667 22.7544 6.7341 22.2355 6.80369 21.4618C8.25488 22.3788 9.86084 22.5872 11.4992 22.5879C13.1388 22.5885 14.7453 22.3801 16.1959 21.4687C16.3123 22.1785 16.0759 22.7037 15.518 23.0824C14.9169 23.4899 14.2408 23.677 13.5479 23.8066C13.1238 23.8861 12.6942 23.9362 12.2671 24C11.7278 24 11.189 24 10.6503 24Z" fill="white"/>
<path d="M23 17.954C22.6455 18.8685 21.8656 19.1803 21.0527 19.4231C19.9429 19.7549 18.8025 19.815 17.6548 19.7699C17.6338 19.7693 17.6128 19.758 17.5798 19.7486C17.5798 19.2842 17.5798 18.821 17.5798 18.334C18.1318 18.334 18.6765 18.3622 19.2176 18.3284C20.5254 18.2464 21.7954 17.9966 22.9352 17.2649C22.9526 17.2536 22.9778 17.2555 22.9994 17.2511C23 17.4858 23 17.7199 23 17.954Z" fill="white"/>
<path d="M22.9999 20.7663C22.6454 21.6802 21.8655 21.9925 21.0526 22.2354C19.9428 22.5672 18.8029 22.6279 17.6553 22.5822C17.6343 22.5815 17.6139 22.5703 17.5803 22.5603C17.5803 22.0958 17.5803 21.6326 17.5803 21.1456C18.1322 21.1456 18.677 21.1738 19.2181 21.14C20.5259 21.058 21.7959 20.8082 22.9357 20.0765C22.9531 20.0652 22.9783 20.0671 22.9999 20.0627C22.9999 20.2975 22.9999 20.5316 22.9999 20.7663Z" fill="white"/>
<path d="M10.8241 11.3578C10.8241 10.3769 10.8241 9.42546 10.8241 8.44022C10.7401 8.44022 10.6615 8.44022 10.5823 8.44022C9.96863 8.44022 9.35492 8.4421 8.74121 8.43959C5.84004 8.42708 3.28322 6.1768 2.84768 3.18353C2.7253 2.34163 2.7649 1.4722 2.7559 0.615276C2.7529 0.348624 2.92807 0.155206 3.17104 0.0550552C3.423 -0.0488518 3.65996 -0.00566153 3.86153 0.178992C4.02471 0.327967 4.17949 0.488209 4.32527 0.655337C4.7938 1.19115 5.37451 1.40272 6.06441 1.41899C8.1353 1.46844 9.82345 2.32035 11.0455 4.09992C11.1283 4.2201 11.202 4.34716 11.2758 4.4736C11.346 4.59316 11.4108 4.71522 11.4954 4.86795C11.5398 4.79471 11.574 4.74151 11.6052 4.6858C12.595 2.90436 14.0534 1.81396 16.0049 1.47846C16.4597 1.40021 16.9288 1.41085 17.3901 1.37267C17.8329 1.33637 18.2066 1.13919 18.5216 0.816205C18.7081 0.624666 18.8917 0.429371 19.0783 0.237205C19.2949 0.0137428 19.548 -0.0613707 19.8372 0.0563071C20.1137 0.168977 20.2661 0.413722 20.2559 0.760496C20.2319 1.58612 20.2631 2.42113 20.1533 3.23486C19.8156 5.73989 17.6805 7.95261 15.2838 8.33757C14.8867 8.40141 14.4812 8.42457 14.0792 8.43521C13.4529 8.45086 12.8254 8.43959 12.1871 8.43959C12.1871 9.41732 12.1871 10.3744 12.1871 11.3502C12.5698 11.3966 12.955 11.4304 13.3359 11.4923C14.0918 11.6156 14.8327 11.7978 15.486 12.2416C15.9126 12.5308 16.2221 12.9045 16.2167 13.476C16.2131 13.9072 16.0121 14.2346 15.7074 14.5C15.1873 14.9532 14.561 15.1723 13.9154 15.3093C12.1553 15.6837 10.3964 15.6824 8.65243 15.1879C8.1665 15.0502 7.70457 14.8512 7.31042 14.5131C6.59953 13.9028 6.60253 12.9915 7.32182 12.3906C7.85514 11.9449 8.48985 11.7333 9.14495 11.5962C9.60508 11.4998 10.0754 11.4573 10.5415 11.3916C10.6303 11.379 10.7191 11.3703 10.8241 11.3578Z" fill="white"/>
<path d="M5.42978 12.7643C5.42978 14.1721 5.42978 15.551 5.42978 16.9675C5.07883 16.9675 4.73688 16.9769 4.39553 16.9657C3.32229 16.93 2.26525 16.7966 1.2634 16.3604C0.887253 16.1964 0.540504 15.9842 0.280143 15.6462C-0.0906023 15.1642 -0.0918022 14.5564 0.280743 14.0763C0.5723 13.7001 0.964642 13.4791 1.38878 13.3101C2.68579 12.7925 4.03619 12.7199 5.42978 12.7643Z" fill="white"/>
<path d="M16.1947 15.8445C16.3411 16.7115 15.9421 17.2454 15.278 17.6178C14.6037 17.9959 13.8682 18.1712 13.1177 18.2713C11.8717 18.4378 10.6257 18.4272 9.38809 18.1843C8.71019 18.0516 8.05089 17.8569 7.46778 17.4488C6.92246 17.067 6.69689 16.5425 6.81027 15.8427C8.26086 16.7565 9.86802 16.965 11.5088 16.9643C13.1435 16.9631 14.7447 16.7565 16.1947 15.8445Z" fill="white"/>
<path d="M16.1959 18.655C16.3195 19.4043 16.0435 19.9351 15.461 20.3163C14.8479 20.7175 14.1634 20.9128 13.4609 21.0286C11.9557 21.2778 10.4493 21.2728 8.96275 20.8947C8.52481 20.7833 8.08748 20.6161 7.69154 20.3939C6.96385 19.9852 6.71248 19.5364 6.80127 18.6494C8.25425 19.5652 9.85962 19.7767 11.4992 19.7761C13.1339 19.7761 14.7363 19.5714 16.1959 18.655Z" fill="white"/>
<path d="M0.0319613 20.0685C1.70811 21.0781 3.54384 21.2252 5.42876 21.1683C5.42876 21.6271 5.42876 22.0853 5.42876 22.5535C5.40537 22.5629 5.37897 22.581 5.35197 22.5823C4.08316 22.6299 2.82455 22.5604 1.61513 22.1185C1.25398 21.9864 0.899433 21.7973 0.586279 21.5682C0.0745551 21.1933 -0.0664241 20.7451 0.0319613 20.0685Z" fill="white"/>
<path d="M0.0287073 17.2548C1.71626 18.2657 3.54599 18.4153 5.42731 18.3545C5.42731 18.8177 5.42731 19.2816 5.42731 19.7798C5.07576 19.7798 4.73381 19.7892 4.39246 19.7779C3.32042 19.7423 2.26338 19.6102 1.26332 19.1702C1.06535 19.0831 0.874582 18.9705 0.694009 18.8484C0.14389 18.4766 -0.0858757 17.9502 0.0287073 17.2548Z" fill="white"/>
</g>
<defs>
<clipPath id="clip0_261_10323">
<rect width="23" height="24" fill="white"/>
</clipPath>
</defs>
</svg>
