<svg width="18" height="19" viewBox="0 0 18 19" fill="none" xmlns="http://www.w3.org/2000/svg">
<path d="M17.6708 18.1708C17.451 18.3905 17.163 18.5 16.875 18.5C16.587 18.5 16.299 18.3905 16.0793 18.1708L2.25 4.34075V10.625C2.25 11.2467 1.74675 11.75 1.125 11.75C0.50325 11.75 0 11.2467 0 10.625V3.875C0 2.01425 1.51425 0.5 3.375 0.5H10.125C10.7468 0.5 11.25 1.00325 11.25 1.625C11.25 2.24675 10.7468 2.75 10.125 2.75H3.84075L17.6708 16.5792C18.1103 17.018 18.1103 17.7312 17.6708 18.17V18.1708Z" fill="#E6F0EC"/>
</svg>
