<svg width="18" height="18" viewBox="0 0 18 18" fill="none" xmlns="http://www.w3.org/2000/svg">
<path d="M0.329248 17.6707C0.548998 17.8905 0.836998 18 1.125 18C1.413 18 1.701 17.8905 1.92075 17.6707L15.75 3.84075V10.125C15.75 10.7467 16.2532 11.25 16.875 11.25C17.4967 11.25 18 10.7467 18 10.125V3.375C18 1.51425 16.4857 0 14.625 0H7.875C7.25325 0 6.75 0.50325 6.75 1.125C6.75 1.74675 7.25325 2.25 7.875 2.25H14.1592L0.329248 16.0793C-0.110252 16.518 -0.110252 17.2312 0.329248 17.67V17.6707Z" fill="#777777"/>
</svg>
