<svg width="35" height="35" viewBox="0 0 35 35" fill="none" xmlns="http://www.w3.org/2000/svg">
<g clip-path="url(#clip0_261_11300)">
<path d="M3.89929 14.2929C2.85923 14.2929 1.81813 14.295 0.778074 14.2918C0.215796 14.2908 0.00298554 14.0769 0.00194236 13.5155C-0.000144019 12.7099 -0.000144019 11.9033 0.00298554 11.0966C0.00507192 10.5895 0.222055 10.3453 0.733217 10.3432C2.85298 10.3338 4.97273 10.3338 7.09249 10.3443C7.59635 10.3464 7.80916 10.5957 7.8102 11.1102C7.81229 11.9168 7.81229 12.7234 7.8102 13.529C7.80812 14.0675 7.59114 14.2908 7.06015 14.2918C6.00653 14.295 4.95291 14.2929 3.89929 14.2929Z" fill="#0F0F0F"/>
<path d="M12.9481 14.2928C11.908 14.2928 10.8669 14.2949 9.82686 14.2918C9.28545 14.2907 9.06742 14.0737 9.06534 13.5404C9.06221 12.7213 9.06221 11.9021 9.06534 11.082C9.06742 10.5988 9.28649 10.3463 9.77053 10.3432C11.9028 10.3327 14.0361 10.3327 16.1694 10.3432C16.6524 10.3452 16.8705 10.5999 16.8726 11.083C16.8757 11.9021 16.8757 12.7213 16.8726 13.5415C16.8705 14.0726 16.6504 14.2897 16.1079 14.2907C15.0543 14.2949 14.0017 14.2928 12.9481 14.2928Z" fill="#0F0F0F"/>
<path d="M3.90879 20.7072C4.94885 20.7072 5.98995 20.7051 7.03001 20.7083C7.59542 20.7093 7.80927 20.9211 7.81032 21.4794C7.8124 22.2725 7.8124 23.0666 7.81032 23.8596C7.80927 24.4492 7.59333 24.659 6.96638 24.661C5.21069 24.6652 3.45501 24.6621 1.69932 24.6621C1.37385 24.6621 1.04837 24.6725 0.723939 24.659C0.21695 24.637 0.00413944 24.4075 0.00205306 23.8941C-3.33127e-05 23.0874 -3.33127e-05 22.2808 0.00205306 21.4752C0.00309625 20.9191 0.217993 20.7093 0.78653 20.7083C1.82763 20.7062 2.86769 20.7072 3.90879 20.7072Z" fill="#0F0F0F"/>
<path d="M12.9876 20.7072C14.0277 20.7072 15.0688 20.7051 16.1089 20.7082C16.6524 20.7093 16.8704 20.9253 16.8725 21.4575C16.8756 22.2766 16.8756 23.0958 16.8725 23.9159C16.8704 24.3991 16.6513 24.6537 16.1683 24.6558C14.036 24.6673 11.9027 24.6673 9.7694 24.6558C9.28641 24.6537 9.06734 24.398 9.06525 23.9159C9.06212 23.0832 9.06108 22.2516 9.06525 21.4188C9.06838 20.9368 9.29684 20.7103 9.78818 20.7082C10.8543 20.7041 11.9215 20.7072 12.9876 20.7072Z" fill="#0F0F0F"/>
<path d="M22.0718 20.7072C23.0994 20.7072 24.1269 20.7051 25.1544 20.7083C25.7199 20.7093 25.9337 20.9211 25.9347 21.4794C25.9368 22.2725 25.9368 23.0666 25.9347 23.8596C25.9337 24.4492 25.7178 24.659 25.0908 24.661C23.3351 24.6652 21.5794 24.6621 19.8238 24.6621C19.4983 24.6621 19.1728 24.6725 18.8484 24.659C18.3414 24.637 18.1286 24.4075 18.1265 23.8951C18.1234 23.0885 18.1244 22.2819 18.1265 21.4763C18.1275 20.9201 18.3424 20.7104 18.911 20.7093C19.9646 20.7062 21.0182 20.7072 22.0718 20.7072Z" fill="#0F0F0F"/>
<path d="M9.08909 5.16739C10.1156 5.16739 11.1431 5.1653 12.1696 5.16843C12.7747 5.16947 12.9917 5.3813 12.9969 5.98758C13.0031 6.76707 13.0042 7.54761 12.9958 8.32815C12.9906 8.9052 12.7674 9.12016 12.1811 9.1212C10.1145 9.12434 8.04695 9.12434 5.98039 9.1212C5.40246 9.12016 5.16983 8.8885 5.1667 8.3198C5.16253 7.5403 5.16253 6.75977 5.1667 5.97923C5.16983 5.40322 5.39829 5.17052 5.96892 5.16843C7.01002 5.16426 8.05008 5.16739 9.08909 5.16739Z" fill="#0F0F0F"/>
<path d="M9.08941 29.8326C8.06291 29.8326 7.03537 29.8347 6.00888 29.8316C5.38922 29.8305 5.16911 29.6072 5.16807 28.9801C5.16598 28.2256 5.16598 27.4722 5.16807 26.7178C5.17016 26.1094 5.38818 25.8799 5.9828 25.8788C8.04935 25.8757 10.117 25.8757 12.1835 25.8788C12.7698 25.8799 12.992 26.0948 12.9982 26.6719C13.0055 27.4649 13.0066 28.258 12.9982 29.051C12.992 29.6093 12.7666 29.8285 12.2117 29.8305C11.1695 29.8358 10.1295 29.8326 9.08941 29.8326Z" fill="#0F0F0F"/>
<path d="M18.1369 29.8326C17.1104 29.8326 16.0828 29.8347 15.0564 29.8316C14.4586 29.8295 14.2322 29.603 14.2301 29.0051C14.227 28.2246 14.226 27.4451 14.2312 26.6645C14.2343 26.1198 14.4711 25.8809 15.0209 25.8798C17.101 25.8757 19.1811 25.8767 21.2602 25.8798C21.8256 25.8809 22.053 26.0969 22.0593 26.6478C22.0687 27.4534 22.0687 28.2601 22.0593 29.0656C22.053 29.6156 21.8225 29.8295 21.2581 29.8305C20.217 29.8357 19.1769 29.8326 18.1369 29.8326Z" fill="#0F0F0F"/>
<path d="M27.1863 29.8326C26.1598 29.8326 25.1323 29.8347 24.1058 29.8316C23.53 29.8295 23.2952 29.5989 23.2921 29.0312C23.2879 28.2381 23.2869 27.4451 23.2921 26.652C23.2963 26.1271 23.5331 25.8819 24.0547 25.8809C26.1609 25.8756 28.266 25.8756 30.3722 25.8809C30.8823 25.8819 31.1118 26.1104 31.1191 26.6217C31.1296 27.4409 31.1296 28.26 31.1191 29.0792C31.1129 29.6093 30.8803 29.8295 30.3441 29.8316C29.2925 29.8357 28.2389 29.8326 27.1863 29.8326Z" fill="#0F0F0F"/>
<path d="M3.88518 3.93806C2.8712 3.9391 1.85722 3.94223 0.842196 3.93702C0.194376 3.93389 0.00242968 3.73875 0.00242968 3.10222C0.00138649 2.30916 -0.000699887 1.5161 0.00347286 0.72304C0.00555924 0.227377 0.222542 0.00302516 0.710754 0.00198166C2.84303 -0.00114884 4.97531 -0.00114884 7.10758 0.00198166C7.5791 0.00302516 7.80652 0.22529 7.80965 0.687561C7.81591 1.53279 7.81486 2.37803 7.80965 3.22326C7.80652 3.70223 7.58641 3.92867 7.08255 3.93389C6.01745 3.94432 4.95131 3.93702 3.88518 3.93806Z" fill="#0F0F0F"/>
<path d="M3.88398 34.9989C2.84392 34.9989 1.80387 35 0.763808 34.9979C0.217177 34.9968 0.00541011 34.7892 0.00332374 34.2507C0.000194172 33.4316 0.000194172 32.6124 0.00332374 31.7933C0.00541011 31.3018 0.215091 31.0681 0.711648 31.066C2.84392 31.0576 4.9762 31.0566 7.10848 31.066C7.6019 31.0681 7.80846 31.3039 7.81054 31.7996C7.81367 32.6062 7.81263 33.4118 7.81159 34.2184C7.81054 34.7892 7.60712 34.9968 7.0438 34.9979C5.99018 35.001 4.93656 34.9989 3.88398 34.9989Z" fill="#0F0F0F"/>
<path d="M12.9711 34.999C11.9311 34.999 10.891 35 9.85094 34.999C9.26258 34.9979 9.06646 34.7976 9.06542 34.1986C9.06437 33.392 9.06229 32.5864 9.06646 31.7798C9.06855 31.3102 9.27927 31.0702 9.74975 31.0681C11.8945 31.0577 14.0404 31.0577 16.1862 31.0681C16.6577 31.0702 16.8716 31.3092 16.8737 31.7756C16.8779 32.6209 16.8789 33.4661 16.8737 34.3113C16.8706 34.7736 16.6421 34.9959 16.1716 34.9979C15.1034 35.0021 14.0373 34.999 12.9711 34.999Z" fill="#0F0F0F"/>
<path d="M22.0184 34.999C20.9648 34.999 19.9122 35.001 18.8586 34.9979C18.3433 34.9969 18.1294 34.7798 18.1273 34.2622C18.1242 33.4431 18.1242 32.624 18.1273 31.8048C18.1294 31.306 18.3339 31.0702 18.8252 31.0681C20.9575 31.0587 23.0898 31.0587 25.2221 31.067C25.7197 31.0691 25.9325 31.3018 25.9346 31.7902C25.9387 32.6219 25.9387 33.4546 25.9346 34.2873C25.9314 34.7777 25.7103 34.9969 25.2169 34.999C24.1507 35.0021 23.0846 34.999 22.0184 34.999Z" fill="#0F0F0F"/>
<path d="M31.0743 34.9989C30.0468 34.9989 29.0203 35 27.9928 34.9989C27.3794 34.9979 27.1885 34.8038 27.1885 34.1787C27.1874 33.3857 27.1853 32.5926 27.1895 31.7996C27.1916 31.305 27.3992 31.0702 27.8926 31.0681C30.0249 31.0587 32.1572 31.0587 34.2894 31.0681C34.785 31.0702 34.9936 31.3039 34.9967 31.7964C35.0009 32.6281 35.0009 33.4608 34.9967 34.2925C34.9936 34.7777 34.7693 34.9969 34.2738 34.9979C33.2066 35.001 32.1405 34.9989 31.0743 34.9989Z" fill="#0F0F0F"/>
<path d="M9.10822 15.5387C10.1493 15.5387 11.1915 15.5356 12.2326 15.5398C12.7792 15.5419 12.991 15.7464 12.9972 16.2922C13.0066 17.0988 13.0066 17.9064 12.9972 18.7131C12.991 19.2557 12.7771 19.4592 12.2274 19.4602C10.1316 19.4633 8.03583 19.4633 5.94006 19.4602C5.38926 19.4592 5.17227 19.2327 5.16915 18.6682C5.16497 17.8866 5.16497 17.1061 5.16915 16.3245C5.17227 15.7631 5.38926 15.5419 5.94528 15.5387C6.9989 15.5356 8.05356 15.5387 9.10822 15.5387Z" fill="#0F0F0F"/>
<path d="M18.1495 19.4612C17.1084 19.4612 16.0663 19.4644 15.0252 19.4602C14.4462 19.4581 14.2324 19.239 14.2303 18.6536C14.2272 17.872 14.2261 17.0914 14.2303 16.3099C14.2334 15.7714 14.4546 15.5408 14.9824 15.5398C17.0907 15.5356 19.2 15.5356 21.3083 15.5398C21.833 15.5408 22.05 15.7474 22.0563 16.2671C22.0678 17.0873 22.0667 17.9075 22.0563 18.7276C22.05 19.2483 21.833 19.456 21.3104 19.4591C20.2578 19.4654 19.2032 19.4612 18.1495 19.4612Z" fill="#0F0F0F"/>
<path d="M0.0022931 7.13759C0.0022931 6.72124 -0.000836459 6.30592 0.00333629 5.88957C0.00855223 5.42834 0.233881 5.17686 0.684538 5.1706C1.54204 5.15912 2.39954 5.15912 3.25704 5.1706C3.67744 5.17581 3.91946 5.4033 3.92781 5.82174C3.9445 6.70558 3.94346 7.58943 3.92677 8.47223C3.91946 8.87189 3.68683 9.10459 3.28625 9.11294C2.40267 9.12963 1.51909 9.13068 0.635508 9.11189C0.228665 9.10354 0.00959542 8.83954 0.00437948 8.42318C-0.00292284 7.99535 0.0022931 7.56647 0.0022931 7.13759Z" fill="#0F0F0F"/>
<path d="M0.00200843 27.8291C0.00200843 27.4127 -0.00216432 26.9974 0.00305162 26.5811C0.00826756 26.1616 0.223164 25.8965 0.627921 25.8871C1.52402 25.8683 2.42116 25.8683 3.31726 25.8882C3.69385 25.8965 3.91814 26.1344 3.92544 26.5184C3.94213 27.4023 3.94317 28.2861 3.92752 29.1689C3.92022 29.5884 3.67925 29.8211 3.26301 29.8274C2.393 29.8399 1.52193 29.8409 0.650871 29.8263C0.240898 29.819 0.0103539 29.5644 0.00305162 29.1543C-0.00425069 28.7129 0.00200843 28.2715 0.00200843 27.8291Z" fill="#0F0F0F"/>
<path d="M0.00210321 17.4994C0.00210321 17.0841 -0.00102636 16.6677 0.00314639 16.2524C0.00836233 15.7745 0.214914 15.547 0.680175 15.5418C1.53768 15.5324 2.39413 15.5335 3.25163 15.5418C3.69707 15.546 3.92345 15.762 3.93075 16.2138C3.94535 17.0705 3.94535 17.9283 3.93075 18.785C3.92345 19.2358 3.69603 19.4518 3.25059 19.457C2.39309 19.4654 1.53663 19.4664 0.679132 19.457C0.215957 19.4518 0.00836233 19.2233 0.00314639 18.7454C-0.00102636 18.33 0.00210321 17.9147 0.00210321 17.4994Z" fill="#0F0F0F"/>
</g>
<defs>
<clipPath id="clip0_261_11300">
<rect width="35" height="35" fill="white"/>
</clipPath>
</defs>
</svg>
