<svg width="35" height="33" viewBox="0 0 35 33" fill="none" xmlns="http://www.w3.org/2000/svg">
<path d="M17.2135 33C16.827 32.9108 16.4344 32.8455 16.0552 32.7287C13.5034 31.9401 11.9571 30.0096 11.0186 27.4001C10.9894 27.3189 10.9934 27.1542 11.0392 27.1201C11.4052 26.8481 11.5354 26.4628 11.5194 26C15.844 29.3705 20.1479 29.3785 24.442 26.0486C24.5296 26.296 24.5589 26.6892 24.7521 26.8553C25.1267 27.1782 25.0019 27.4618 24.8617 27.8071C23.9179 30.1308 22.4733 31.8828 20.1878 32.6583C19.7388 32.8107 19.2679 32.8883 18.8069 33C18.2762 33 17.7449 33 17.2135 33Z" fill="#0F0F0F"/>
<path d="M24 32.9999C24.8852 32.0989 25.6682 31.0978 26.2443 29.9095C26.5404 29.2987 26.7943 28.6604 27.082 28C27.5669 28.254 28.0674 28.5094 28.5627 28.7767C29.7356 29.4097 30.9365 29.9843 32.0671 30.704C32.9985 31.2963 33.8434 32.0641 34.7279 32.7512C34.8138 32.8178 34.9089 32.8681 35 32.9259C34.9134 32.9503 34.8262 32.997 34.7396 32.997C31.1598 33.0007 27.5799 32.9999 24 32.9999Z" fill="#0F0F0F"/>
<path d="M0 32.926C0.0525444 32.9067 0.11645 32.9023 0.155503 32.8668C2.18201 31.0507 4.58059 29.9145 6.98911 28.7945C7.53799 28.5393 8.08189 28.2722 8.65207 28C8.69396 28.0806 8.73799 28.1479 8.76639 28.2212C9.4587 30.0373 10.4755 31.6159 11.9134 32.8868C11.9482 32.9171 11.9716 32.9615 12 32.9999C8.09468 32.9999 4.18864 33.0007 0.283314 32.997C0.188876 32.997 0.0944379 32.9504 0 32.926Z" fill="#0F0F0F"/>
<path d="M22.8777 1.72238C24.0739 2.49173 24.9963 3.53471 25.7232 4.75732C26.6374 6.29532 27.1041 7.97049 27.1048 9.77516C27.1048 10.1344 27.1048 10.4937 27.1048 10.9114C27.3616 10.9114 27.6048 10.9107 27.8487 10.9114C28.5217 10.9149 29.0054 11.3577 29 11.9656C28.9945 12.5692 28.5279 12.9995 27.8684 12.9995C20.9559 13.0002 14.0427 13.0002 7.13021 12.9995C6.47213 12.9995 6.00412 12.5671 6.00004 11.9649C5.99527 11.3689 6.47418 10.917 7.11795 10.9114C7.36455 10.9093 7.61184 10.9114 7.89864 10.9114C7.89864 10.383 7.87344 9.88586 7.90273 9.39223C8.09075 6.19576 9.46889 3.66351 12.0024 1.78504C12.0385 1.75858 12.0828 1.74257 12.123 1.72168C12.1182 3.21583 12.1039 4.70997 12.1209 6.20342C12.1237 6.41229 12.2463 6.64971 12.3785 6.82169C12.6339 7.1538 13.0733 7.24291 13.4569 7.0967C13.8847 6.93448 14.119 6.59332 14.1211 6.07183C14.1272 4.4266 14.1245 2.78137 14.1217 1.13544C14.1217 0.992714 14.0918 0.849984 14.0618 0.588195C13.3635 0.998284 12.7402 1.36381 12.1169 1.72934C12.1073 1.48774 12.076 1.24476 12.093 1.00525C12.1284 0.513697 12.4125 0.170447 12.8485 0.047212C13.2838 -0.0753273 13.681 0.0792393 13.9712 0.485151C14.0039 0.530407 14.0352 0.577055 14.0386 0.582625C14.8745 0.400209 15.679 0.224755 16.4829 0.0493007L16.4741 0.041642C16.4754 0.563827 16.4775 1.08531 16.4775 1.6075C16.4781 3.4985 16.4761 5.38951 16.4781 7.27982C16.4788 7.86884 16.7683 8.28659 17.2486 8.40773C17.9421 8.58319 18.5212 8.07632 18.5225 7.27982C18.5266 4.86732 18.5259 2.45413 18.5273 0.041642L18.5184 0.0493007C19.323 0.224058 20.1268 0.398816 20.962 0.57984C21.1303 0.270707 21.4171 0.047212 21.819 0.00474094C22.3123 -0.0474775 22.8089 0.337547 22.8831 0.869478C22.922 1.15076 22.8865 1.44249 22.8845 1.73004C22.2918 1.28305 21.6433 0.949547 20.9137 0.667567C20.8994 0.915431 20.8803 1.10968 20.8796 1.30394C20.8762 2.26615 20.8769 3.22766 20.8783 4.18988C20.8796 4.87359 20.8639 5.558 20.8953 6.24032C20.9198 6.77921 21.3762 7.16494 21.9062 7.15728C22.4322 7.14962 22.8824 6.74162 22.8859 6.20481C22.8961 4.71067 22.8818 3.21652 22.8777 1.72238Z" fill="#0F0F0F"/>
<path d="M9.0092 15C14.6936 15 20.3195 15 25.976 15C25.9837 15.1036 25.9969 15.2011 25.9969 15.2986C25.9983 16.4917 26.0039 17.6841 25.9955 18.8771C25.969 22.7073 22.9573 26.1644 19.1071 26.8564C14.4728 27.6895 10.3003 24.7996 9.27243 20.7165C9.11853 20.1057 9.04263 19.4648 9.02104 18.8349C8.98204 17.6663 9.0092 16.4951 9.0092 15.3252C9.0092 15.2257 9.0092 15.1254 9.0092 15Z" fill="#0F0F0F"/>
<path d="M19 0C18.9987 2.29732 18.9993 4.59531 18.9954 6.89263C18.994 7.65178 18.43 8.13445 17.7545 7.9667C17.2867 7.85068 17.0046 7.45354 17.004 6.89263C17.002 5.0919 17.0033 3.29183 17.0033 1.49111C17.0033 0.993849 17.0013 0.497256 17 0C17.6669 0 18.3331 0 19 0Z" fill="white"/>
<path d="M22.9886 1.97456C22.9926 3.35593 23.0068 4.73795 22.996 6.11932C22.992 6.61561 22.5449 6.99282 22.0234 6.9999C21.4971 7.00698 21.044 6.65037 21.0196 6.15215C20.9885 5.52133 21.0041 4.88857 21.0027 4.25646C21.0007 3.36687 21.0007 2.47793 21.0041 1.58834C21.0047 1.40875 21.0244 1.22916 21.0379 1C21.7623 1.26005 22.4062 1.56903 22.9947 1.98228C22.994 1.98164 22.9886 1.97456 22.9886 1.97456Z" fill="white"/>
<path d="M12.0043 2.04118C12.6237 1.70767 13.2424 1.37353 13.9369 1C13.966 1.23885 13.9958 1.36908 13.9965 1.49931C13.9999 3.00041 14.0026 4.5015 13.9958 6.00324C13.9938 6.47904 13.7609 6.79031 13.3358 6.93833C12.9547 7.07109 12.5174 6.99042 12.2642 6.6874C12.1329 6.5305 12.0111 6.31451 12.0084 6.1233C11.9908 4.76069 12.0057 3.39744 12.0104 2.03419C12.0104 2.03355 12.0043 2.04118 12.0043 2.04118Z" fill="white"/>
</svg>
