<svg width="40" height="45" viewBox="0 0 40 45" fill="none" xmlns="http://www.w3.org/2000/svg">
<g clip-path="url(#clip0_261_11331)">
<path d="M0 45C0 44.1387 0 43.2762 0 42.3819C0.888045 42.3819 1.74166 42.3819 2.64395 42.3819C2.64395 41.496 2.64395 40.6405 2.64395 39.7545C14.2182 39.7545 25.7426 39.7545 37.3157 39.7545C37.3157 40.6076 37.3157 41.463 37.3157 42.3502C38.2168 42.3502 39.0704 42.3502 39.9905 42.3502C39.9905 43.2538 39.9905 44.1269 39.9905 44.9988C26.6603 45 13.3302 45 0 45Z" fill="#0F0F0F"/>
<path d="M0.0025423 18.5483C13.3648 18.5483 26.6558 18.5483 39.9752 18.5483C39.9752 19.5624 40.0441 20.56 39.9586 21.5447C39.847 22.822 38.674 23.7973 37.3657 23.7985C25.7879 23.802 14.2089 23.802 2.63106 23.7985C1.17671 23.7985 0.0156018 22.6387 0.00491676 21.1993C-0.00339382 20.3239 0.0025423 19.4473 0.0025423 18.5483Z" fill="#0F0F0F"/>
<path d="M29.3137 0C29.3137 2.65328 29.3137 5.27483 29.3137 7.94456C26.671 7.94456 24.0294 7.94456 21.3273 7.94456C21.3273 8.7906 21.3676 9.59317 21.313 10.3899C21.2762 10.9374 21.4721 11.1924 21.9684 11.4321C24.8082 12.8023 27.6267 14.2182 30.4511 15.62C30.5757 15.6823 30.698 15.7516 30.9117 15.8656C23.602 15.8656 16.3991 15.8656 9.10596 15.8656C9.2876 15.7622 9.40276 15.6905 9.52386 15.6306C12.4302 14.1912 15.3353 12.747 18.25 11.3229C18.5765 11.163 18.675 10.9774 18.6738 10.626C18.6596 7.25598 18.6655 3.88474 18.6655 0.5135C18.6655 0.353692 18.6655 0.193884 18.6655 0.00117506C22.2141 0 25.7425 0 29.3137 0Z" fill="#0F0F0F"/>
<path d="M10.6412 37.0636C8.87223 37.0636 7.13176 37.0636 5.36279 37.0636C5.36279 33.5338 5.36279 30.0145 5.36279 26.4681C7.1187 26.4681 8.86867 26.4681 10.6412 26.4681C10.6412 29.9957 10.6412 33.5056 10.6412 37.0636Z" fill="#0F0F0F"/>
<path d="M13.3623 26.4635C15.1372 26.4635 16.8765 26.4635 18.6395 26.4635C18.6395 29.9945 18.6395 33.5033 18.6395 37.0472C16.8943 37.0472 15.1431 37.0472 13.3623 37.0472C13.3623 33.5362 13.3623 30.0157 13.3623 26.4635Z" fill="#0F0F0F"/>
<path d="M21.3628 26.4623C23.1306 26.4623 24.871 26.4623 26.6353 26.4623C26.6353 30.0016 26.6353 33.5209 26.6353 37.0613C24.8758 37.0613 23.1353 37.0613 21.3628 37.0613C21.3628 33.5408 21.3628 30.0204 21.3628 26.4623Z" fill="#0F0F0F"/>
<path d="M34.6266 37.0613C32.8529 37.0613 31.1124 37.0613 29.3506 37.0613C29.3506 33.5314 29.3506 30.0215 29.3506 26.4775C31.0946 26.4775 32.8458 26.4775 34.6266 26.4775C34.6266 29.9886 34.6266 33.5079 34.6266 37.0613Z" fill="#0F0F0F"/>
</g>
<defs>
<clipPath id="clip0_261_11331">
<rect width="40" height="45" fill="white"/>
</clipPath>
</defs>
</svg>
