<svg width="39" height="32" viewBox="0 0 39 32" fill="none" xmlns="http://www.w3.org/2000/svg">
<g clip-path="url(#clip0_261_11215)">
<path d="M25.4228 2.04501C26.4421 0.983057 27.6434 0.358175 29.0584 0.0950059C32.3911 -0.527558 35.8765 1.98125 36.2969 5.29811C36.5669 7.42781 35.9316 9.2271 34.4039 10.7354C31.8145 13.2917 29.2275 15.8492 26.637 18.4032C25.8338 19.1939 24.9789 19.1951 24.1792 18.4067C21.5569 15.8226 18.9206 13.2523 16.323 10.6426C14.5381 8.85031 13.9838 6.68815 14.7729 4.29876C15.5574 1.92444 17.293 0.500774 19.7802 0.0961652C21.7331 -0.222652 23.4887 0.323395 24.9765 1.64156C25.1163 1.76445 25.2536 1.89198 25.4228 2.04501ZM26.6252 9.73141C26.7732 9.92618 26.8871 10.0433 26.9623 10.1812C27.1654 10.5557 27.4625 10.6763 27.8958 10.6647C29.0079 10.6345 30.1212 10.6496 31.2344 10.6577C31.5339 10.66 31.791 10.5882 31.7969 10.2589C31.8028 9.93081 31.555 9.84271 31.2508 9.84618C30.4746 9.8543 29.6914 9.78126 28.9245 9.86589C28.0426 9.96328 27.4508 9.69199 27.0503 8.91176C26.9541 8.72395 26.6793 8.49556 26.5055 8.51063C26.334 8.5257 26.1414 8.80162 26.0416 9.00335C25.7739 9.53896 25.5507 10.0966 25.2736 10.7273C24.7604 9.49722 24.2966 8.36107 23.8046 7.23652C23.7294 7.06609 23.5345 6.86901 23.3677 6.84002C23.2338 6.81684 23.0131 7.00001 22.9086 7.14609C22.4024 7.85444 21.9151 8.57555 21.4407 9.30477C21.3033 9.51577 21.1518 9.59229 20.9064 9.58301C20.4378 9.56678 19.9693 9.5807 19.5007 9.57838C19.2271 9.57722 19.0298 9.68272 19.0286 9.97023C19.0275 10.2751 19.2259 10.3922 19.5218 10.3888C20.0632 10.383 20.6069 10.3598 21.1471 10.3969C21.5722 10.4259 21.8211 10.2612 22.0349 9.91806C22.4106 9.31405 22.8264 8.73438 23.2667 8.08283C23.7963 9.35463 24.279 10.5441 24.7968 11.7197C24.8814 11.9133 25.1022 12.137 25.2889 12.1672C25.4145 12.1869 25.6447 11.9144 25.7363 11.7289C26.0451 11.0959 26.3129 10.4432 26.6252 9.73141Z" fill="#0F0F0F"/>
<path d="M9.41813 17.5883C12.6592 17.6138 15.8945 17.2927 18.9817 18.5367C20.0456 18.9656 21.0379 19.5012 21.9433 20.2026C22.0983 20.3232 22.3355 20.3904 22.5363 20.3928C24.0007 20.409 25.4663 20.3939 26.9306 20.4044C27.9147 20.4113 28.5981 20.9156 28.8295 21.7689C29.1266 22.8691 28.2999 23.989 27.1467 24.0053C25.6389 24.025 24.1299 24.0099 22.6209 24.0145C22.4624 24.0145 22.2674 23.9983 22.1547 24.0783C22.0232 24.1722 21.8799 24.3704 21.894 24.5096C21.9069 24.6452 22.0913 24.7936 22.2357 24.8806C22.3344 24.9397 22.4929 24.9049 22.6244 24.9061C23.4441 24.9072 24.2685 24.8562 25.0846 24.9177C26.8073 25.0463 28.422 24.6719 29.9979 24.0377C32.0941 23.1937 34.1961 22.3625 36.291 21.515C37.5522 21.0049 38.7594 21.6275 38.979 22.9178C39.1 23.6331 38.7242 24.3762 37.9644 24.7774C35.2976 26.1871 32.6495 27.6375 29.9368 28.9556C28.146 29.8251 26.2577 30.501 24.4082 31.2523C22.0302 32.2192 19.6194 32.225 17.2097 31.4007C14.7002 30.5416 12.2059 29.6385 9.70349 28.7574C9.48507 28.6809 9.38995 28.5707 9.39112 28.3191C9.40169 24.8191 9.39817 21.3191 9.39934 17.8202C9.397 17.7645 9.40639 17.7089 9.41813 17.5883Z" fill="#0F0F0F"/>
<path d="M0.00136901 23.0581C0.00136901 21.1069 0.000194704 19.1546 0.00254332 17.2034C0.00371763 16.196 0.523937 15.6847 1.54441 15.6847C3.35989 15.6835 5.17538 15.6835 6.99086 15.6847C7.97963 15.6859 8.50102 16.2018 8.5022 17.186C8.50337 21.1185 8.50455 25.0498 8.5022 28.9823C8.5022 29.9422 7.98785 30.4477 7.00965 30.4489C5.16481 30.4523 3.31997 30.4535 1.47513 30.4489C0.53568 30.4465 0.00606625 29.926 0.00489194 28.9997C-0.00215392 27.0184 0.00136901 25.0382 0.00136901 23.0581ZM4.836 28.6299C5.83417 28.6264 6.65266 27.8288 6.66088 26.8503C6.6691 25.8614 5.83299 25.0394 4.82074 25.0406C3.82257 25.0429 3.01465 25.8335 3.00173 26.8225C2.98646 27.8172 3.8167 28.6333 4.836 28.6299Z" fill="#0F0F0F"/>
<path d="M26.6251 9.73146C26.3116 10.4433 26.0438 11.0948 25.735 11.7278C25.6446 11.9133 25.4132 12.1869 25.2876 12.1661C25.1009 12.1359 24.8801 11.9122 24.7956 11.7186C24.2789 10.543 23.7962 9.35351 23.2654 8.08172C22.8239 8.73327 22.4094 9.3141 22.0336 9.91695C21.8187 10.2613 21.5709 10.4259 21.1458 10.3958C20.6068 10.3587 20.0631 10.383 19.5206 10.3876C19.2246 10.39 19.0262 10.274 19.0273 9.96912C19.0285 9.68161 19.2258 9.57611 19.4994 9.57727C19.968 9.57958 20.4365 9.56567 20.9051 9.5819C21.1517 9.59002 21.3032 9.51466 21.4394 9.30366C21.9126 8.57444 22.4011 7.85333 22.9073 7.14498C23.0118 6.9989 23.2326 6.81573 23.3664 6.83891C23.5332 6.86674 23.7293 7.06382 23.8033 7.23541C24.2953 8.35996 24.7592 9.49611 25.2723 10.7262C25.5495 10.0955 25.7726 9.53785 26.0403 9.00224C26.1413 8.80051 26.3339 8.52459 26.5042 8.50952C26.6768 8.49445 26.9516 8.72283 27.0491 8.91065C27.4495 9.69088 28.0414 9.96216 28.9233 9.86478C29.6901 9.78015 30.4733 9.85319 31.2496 9.84507C31.5537 9.84159 31.8015 9.93086 31.7956 10.2578C31.7897 10.5859 31.5326 10.6578 31.2331 10.6566C30.1199 10.6497 29.0066 10.6334 27.8946 10.6636C27.4612 10.6752 27.1653 10.5546 26.961 10.1801C26.887 10.0433 26.7731 9.92623 26.6251 9.73146Z" fill="white"/>
<path d="M4.83562 28.6298C3.81515 28.6333 2.98609 27.8171 3.00018 26.8224C3.01427 25.8335 3.82102 25.0429 4.81918 25.0405C5.83144 25.0382 6.66755 25.8602 6.65933 26.8503C6.65228 27.8287 5.83496 28.6264 4.83562 28.6298ZM4.83915 27.7406C5.34645 27.736 5.7645 27.3186 5.75628 26.8259C5.74806 26.3309 5.32061 25.9205 4.81918 25.9251C4.31188 25.9297 3.91144 26.3378 3.91496 26.8468C3.91849 27.3592 4.31893 27.7464 4.83915 27.7406Z" fill="white"/>
<path d="M4.83926 27.7406C4.31904 27.7452 3.91978 27.3592 3.91508 26.8468C3.91038 26.3378 4.31082 25.9297 4.8193 25.9251C5.32073 25.9205 5.74818 26.332 5.7564 26.8259C5.76462 27.3198 5.34656 27.736 4.83926 27.7406Z" fill="#0F0F0F"/>
</g>
<defs>
<clipPath id="clip0_261_11215">
<rect width="39" height="32" fill="white"/>
</clipPath>
</defs>
</svg>
