<svg width="33" height="33" viewBox="0 0 33 33" fill="none" xmlns="http://www.w3.org/2000/svg">
<path d="M23.3718 0H27.498C30.5365 0 32.9997 2.46318 32.9997 5.50165V9.6279C32.9997 12.6664 30.5365 15.1295 27.498 15.1295H23.3718C20.3333 15.1296 17.8701 12.6664 17.8701 9.6279V5.50165C17.8701 2.46318 20.3333 0 23.3718 0Z" fill="#056946"/>
<path d="M5.50165 0H9.6279C12.6664 0 15.1295 2.46318 15.1295 5.50165V9.6279C15.1295 12.6664 12.6664 15.1295 9.6279 15.1295H5.50165C2.46318 15.1295 1.26563e-09 12.6664 1.26563e-09 9.6279V5.50165C-6.44714e-05 2.46318 2.46311 0 5.50165 0Z" fill="#056946"/>
<path d="M5.50165 17.8706H9.6279C12.6664 17.8706 15.1295 20.3338 15.1295 23.3723V27.4985C15.1295 30.537 12.6664 33.0001 9.6279 33.0001H5.50165C2.46318 33.0002 0 30.537 0 27.4986V23.3723C0 20.3338 2.46318 17.8706 5.50165 17.8706Z" fill="#056946"/>
<path d="M23.3718 17.8706H27.498C30.5365 17.8706 32.9997 20.3338 32.9997 23.3723V27.4985C32.9997 30.537 30.5365 33.0002 27.498 33.0002H23.3718C20.3333 33.0002 17.8701 30.537 17.8701 27.4986V23.3723C17.8701 20.3338 20.3332 17.8706 23.3718 17.8706Z" fill="#056946"/>
</svg>
