<svg width="33" height="33" viewBox="0 0 33 33" fill="none" xmlns="http://www.w3.org/2000/svg">
<path d="M12.375 24.75H0V12.375C0 9.92746 0.725781 7.53488 2.08556 5.49982C3.44535 3.46477 5.37806 1.87863 7.63929 0.941996C9.90053 0.00536192 12.3887 -0.239704 14.7892 0.237788C17.1898 0.71528 19.3948 1.89388 21.1254 3.62456C22.8561 5.35523 24.0347 7.56025 24.5122 9.96076C24.9897 12.3613 24.7446 14.8495 23.808 17.1107C22.8714 19.372 21.2852 21.3047 19.2502 22.6644C17.2151 24.0242 14.8225 24.75 12.375 24.75ZM27.5 12.485C27.4684 16.4575 25.8763 20.2582 23.0672 23.0673C20.2582 25.8763 16.4574 27.4684 12.485 27.5C13.4495 29.1706 14.8363 30.5581 16.5064 31.5235C18.1765 32.4888 20.071 32.998 22 33H33V22C32.998 20.071 32.4888 18.1765 31.5235 16.5064C30.5581 14.8363 29.1706 13.4495 27.5 12.485Z" fill="#056946"/>
</svg>
