<svg width="32" height="32" viewBox="0 0 32 32" fill="none" xmlns="http://www.w3.org/2000/svg">
<g clip-path="url(#clip0_261_11320)">
<path d="M31.9998 20.1897C31.5065 21.4082 30.4223 21.8247 29.2913 22.1485C27.7472 22.5908 26.1613 22.6709 24.5646 22.6109C24.5354 22.61 24.5062 22.5958 24.4595 22.5825C24.4595 20.7447 24.4595 18.9069 24.4595 17.0558C24.4895 17.0449 24.5262 17.0207 24.5638 17.0191C26.2765 16.9548 27.9759 17.0466 29.6168 17.5833C30.1243 17.7493 30.6076 18.0081 31.075 18.271C31.5307 18.5272 31.7995 18.9637 31.9998 19.4394C31.9998 19.6898 31.9998 19.9402 31.9998 20.1897Z" fill="#0F0F0F"/>
<path d="M14.8176 32C14.3577 31.9366 13.8962 31.8815 13.4379 31.8064C12.4389 31.6436 11.4665 31.3966 10.5892 30.8658C9.72037 30.3392 9.36897 29.6473 9.4658 28.6157C11.4848 29.8384 13.7192 30.1163 15.9987 30.1172C18.2798 30.118 20.515 29.8401 22.5332 28.6249C22.6951 29.5713 22.3663 30.2716 21.5901 30.7765C20.7537 31.3198 19.8131 31.5693 18.849 31.7421C18.2589 31.8481 17.6613 31.9149 17.067 32C16.3167 32 15.5672 32 14.8176 32Z" fill="#0F0F0F"/>
<path d="M32.0001 23.9387C31.5068 25.1581 30.4218 25.5737 29.2908 25.8975C27.7467 26.3398 26.16 26.42 24.5633 26.3599C24.5341 26.359 24.5049 26.344 24.459 26.3315C24.459 25.7122 24.459 25.0946 24.459 24.4453C25.2269 24.4453 25.9847 24.4829 26.7376 24.4378C28.5572 24.3285 30.3241 23.9955 31.91 23.0198C31.9342 23.0048 31.9692 23.0073 31.9993 23.0015C32.0001 23.3144 32.0001 23.6266 32.0001 23.9387Z" fill="#0F0F0F"/>
<path d="M31.9998 27.6885C31.5065 28.907 30.4214 29.3234 29.2905 29.6472C27.7464 30.0896 26.1605 30.1705 24.5638 30.1096C24.5346 30.1088 24.5062 30.0938 24.4595 30.0804C24.4595 29.4611 24.4595 28.8435 24.4595 28.1942C25.2274 28.1942 25.9852 28.2318 26.7381 28.1867C28.5577 28.0774 30.3246 27.7444 31.9105 26.7687C31.9347 26.7537 31.9697 26.7562 31.9998 26.7504C31.9998 27.0633 31.9998 27.3755 31.9998 27.6885Z" fill="#0F0F0F"/>
<path d="M15.0599 15.1438C15.0599 13.8359 15.0599 12.5674 15.0599 11.2537C14.943 11.2537 14.8337 11.2537 14.7235 11.2537C13.8696 11.2537 13.0158 11.2562 12.1619 11.2529C8.12551 11.2362 4.56819 8.23582 3.96223 4.24479C3.79196 3.12226 3.84705 1.96301 3.83453 0.82045C3.83035 0.464913 4.07407 0.207023 4.41211 0.0734883C4.76267 -0.0650543 5.09236 -0.00746733 5.3728 0.238738C5.59983 0.437371 5.81517 0.651027 6.01799 0.873864C6.66986 1.58828 7.47781 1.87037 8.43767 1.89207C11.3189 1.958 13.6676 3.09388 15.3678 5.46663C15.483 5.62688 15.5857 5.7963 15.6884 5.96489C15.786 6.12429 15.8762 6.28704 15.9938 6.49068C16.0556 6.39303 16.1032 6.32209 16.1466 6.24781C17.5238 3.87256 19.5528 2.4187 22.268 1.97135C22.9006 1.86703 23.5534 1.88122 24.1952 1.83031C24.8112 1.7819 25.3312 1.519 25.7694 1.08835C26.0289 0.832969 26.2844 0.572575 26.5439 0.316355C26.8452 0.0184051 27.1975 -0.0817462 27.5998 0.0751575C27.9846 0.225384 28.1966 0.551711 28.1824 1.01408C28.149 2.1149 28.1924 3.22825 28.0396 4.31323C27.5697 7.65327 24.5992 10.6036 21.2647 11.1168C20.7122 11.202 20.1479 11.2328 19.5887 11.247C18.7173 11.2679 17.8443 11.2529 16.9562 11.2529C16.9562 12.5565 16.9562 13.8326 16.9562 15.1337C17.4887 15.1955 18.0246 15.2406 18.5546 15.3232C19.6062 15.4876 20.6371 15.7305 21.546 16.3222C22.1394 16.7078 22.5701 17.206 22.5626 17.968C22.5576 18.5431 22.278 18.9795 21.854 19.3334C21.1303 19.9377 20.2589 20.2298 19.3609 20.4125C16.912 20.9116 14.4647 20.91 12.0384 20.2506C11.3623 20.067 10.7196 19.8016 10.1713 19.3509C9.18219 18.5372 9.18636 17.322 10.1871 16.5208C10.9291 15.9266 11.8122 15.6445 12.7236 15.4617C13.3638 15.3332 14.0182 15.2765 14.6667 15.1888C14.7903 15.1721 14.9138 15.1604 15.0599 15.1438Z" fill="#0F0F0F"/>
<path d="M7.55454 17.0191C7.55454 18.8961 7.55454 20.7347 7.55454 22.6234C7.06627 22.6234 6.59051 22.6359 6.11559 22.6209C4.62238 22.5733 3.15172 22.3955 1.75783 21.8138C1.2345 21.5951 0.75207 21.3122 0.389828 20.8615C-0.125992 20.2189 -0.127661 19.4085 0.390662 18.7684C0.796307 18.2668 1.34217 17.9722 1.93228 17.7468C3.73681 17.0566 5.61563 16.9598 7.55454 17.0191Z" fill="#0F0F0F"/>
<path d="M22.5318 21.126C22.7355 22.282 22.1804 22.9939 21.2565 23.4904C20.3183 23.9945 19.295 24.2282 18.2509 24.3618C16.5173 24.5838 14.7837 24.5696 13.0618 24.2458C12.1186 24.0688 11.2013 23.8093 10.39 23.2651C9.63133 22.756 9.3175 22.0566 9.47525 21.1235C11.4935 22.342 13.7295 22.62 16.0123 22.6191C18.2867 22.6175 20.5145 22.342 22.5318 21.126Z" fill="#0F0F0F"/>
<path d="M22.5335 24.8734C22.7054 25.8724 22.3215 26.5801 21.511 27.0884C20.658 27.6233 19.7057 27.8837 18.7283 28.0381C16.6341 28.3703 14.5383 28.3636 12.47 27.8595C11.8607 27.711 11.2523 27.4881 10.7014 27.1919C9.68894 26.6469 9.33921 26.0485 9.46274 24.8658C11.4843 26.0869 13.7178 26.3689 15.999 26.3681C18.2734 26.3681 20.5028 26.0952 22.5335 24.8734Z" fill="#0F0F0F"/>
<path d="M0.0441495 26.7579C2.37619 28.1041 4.93024 28.3003 7.55274 28.2243C7.55274 28.8361 7.55274 29.447 7.55274 30.0713C7.52019 30.0838 7.48347 30.108 7.44591 30.1097C5.6806 30.1731 3.92949 30.0805 2.24682 29.4912C1.74435 29.3151 1.25107 29.0631 0.815375 28.7576C0.10341 28.2577 -0.0927346 27.6601 0.0441495 26.7579Z" fill="#0F0F0F"/>
<path d="M0.0399407 23.0065C2.38784 24.3543 4.93355 24.5538 7.55104 24.4729C7.55104 25.0905 7.55104 25.7089 7.55104 26.3732C7.06193 26.3732 6.58617 26.3857 6.11125 26.3707C4.61972 26.3231 3.14905 26.147 1.75767 25.5603C1.48223 25.4443 1.21681 25.2941 0.965578 25.1313C0.200195 24.6356 -0.119479 23.9337 0.0399407 23.0065Z" fill="#0F0F0F"/>
</g>
<defs>
<clipPath id="clip0_261_11320">
<rect width="32" height="32" fill="white"/>
</clipPath>
</defs>
</svg>
