<svg width="91" height="91" viewBox="0 0 91 91" fill="none" xmlns="http://www.w3.org/2000/svg">
<g clip-path="url(#clip0_1437_989)">
<path d="M45.4926 91C33.3568 91 21.9409 86.257 13.3383 77.6543C4.73556 69.0516 0 57.6284 0 45.4926C0 20.4045 20.4119 0 45.4926 0C57.6284 0 69.0516 4.74298 77.6543 13.3457C86.257 21.9484 90.9926 33.3716 90.9926 45.5C90.9926 57.6358 86.2496 69.0591 77.6469 77.6617C69.0442 86.257 57.621 90.9926 45.4926 91ZM45.4926 0.578956C20.7311 0.578956 0.578956 20.7237 0.578956 45.4926C0.578956 57.4725 5.25514 68.7547 13.7465 77.2461C22.2378 85.7374 33.5126 90.421 45.4926 90.421C57.4725 90.421 68.7473 85.7449 77.2387 77.2535C85.7374 68.7622 90.4136 57.4799 90.421 45.5C90.421 33.5201 85.7449 22.2453 77.2461 13.7539C68.7621 5.25514 57.4799 0.578956 45.5 0.578956H45.4926Z" fill="white"/>
<path d="M45.5072 2.33789C21.6661 2.33047 2.33789 21.6513 2.33789 45.4924C2.33789 69.3335 21.6587 88.6543 45.4924 88.6617C69.3335 88.6617 88.6543 69.3409 88.6617 45.5072C88.6617 21.6661 69.3409 2.34532 45.5072 2.33789M45.4701 57.5465C30.3208 57.5465 18.0439 45.2623 18.0439 30.1129C18.0439 14.9636 30.3282 2.67933 45.4775 2.68675C60.6269 2.68675 72.9037 14.971 72.9037 30.1204C72.9037 45.2697 60.6195 57.5465 45.4701 57.5465" fill="white"/>
<path d="M45.4996 88.7942C33.9353 88.7942 23.0614 84.2888 14.8818 76.1092C6.70214 67.9296 2.2041 57.0556 2.2041 45.4913C2.2041 21.6205 21.6288 2.1958 45.4996 2.1958C69.3778 2.1958 88.7951 21.6279 88.7951 45.4987C88.7951 69.3695 69.3704 88.7942 45.4922 88.7942M45.4922 2.47043C21.7773 2.47043 2.47873 21.769 2.47131 45.4913C2.47131 56.9814 6.93966 67.7885 15.0673 75.9162C23.195 84.0438 33.9947 88.5196 45.4922 88.5196C69.2145 88.5196 88.5131 69.2211 88.5205 45.4987C88.5205 21.7764 69.222 2.47043 45.4996 2.46301L45.4922 2.47043ZM45.4625 57.6791C30.2612 57.6791 17.8953 45.3132 17.9027 30.1119C17.9027 22.7487 20.7752 15.8235 25.9784 10.6204C31.1816 5.41717 38.1068 2.55208 45.4699 2.55208C52.8331 2.55208 59.7583 5.42459 64.9614 10.6278C70.1646 15.8384 73.0297 22.7562 73.0297 30.1193C73.0297 45.3206 60.6638 57.6791 45.4625 57.6791M45.4625 57.4044C60.5154 57.4044 72.7551 45.1647 72.7551 30.1119C72.7551 22.823 69.9197 15.9646 64.761 10.8133C59.6098 5.65469 52.7514 2.81929 45.4625 2.81929C38.1736 2.81929 31.3226 5.65469 26.164 10.8133C21.0053 15.9646 18.1699 22.823 18.1699 30.1119C18.1699 45.1573 30.4096 57.4044 45.4625 57.4044" fill="white"/>
<path d="M61.9318 57.177C61.9318 57.177 64.2699 57.7931 66.7268 56.4199C66.7268 56.4199 66.7119 57.5333 66.9643 57.8079C67.1499 58.0158 76.0495 66.4106 76.0495 66.4106L74.2384 68.7784L61.9393 57.3255C61.9393 57.3255 61.8057 57.1473 61.9393 57.177" fill="#076D38"/>
<path d="M61.2211 59.1641C61.2211 59.1641 61.7036 61.6432 60.6941 64.0332L61.9411 64.1668L65.4223 67.3214C65.4223 67.3214 62.6388 69.7931 60.5308 70.9807C60.5308 70.9807 60.3527 71.1143 60.2859 70.9807C60.2191 70.8471 57.829 67.2323 57.829 67.2323C57.829 67.2323 57.4579 70.4314 56.3594 71.619V71.9234C56.3594 71.9234 56.8196 71.9011 57.1684 72.057C57.5173 72.2128 57.6064 72.339 57.6064 72.339L60.0855 76.1987C60.0855 76.1987 60.1894 77.3789 60.0409 77.8168C59.8851 78.2548 59.6921 79.1752 57.495 79.7022C57.495 79.7022 57.3169 80.3628 59.8183 80.1846C62.2677 80.0139 63.6631 77.4234 63.0545 74.9889C63.0471 74.9369 63.0322 74.8924 63.0174 74.8404C63.0174 74.8404 68.6956 71.2628 70.8333 68.4051C70.8481 68.3828 70.863 68.368 70.8778 68.3457C70.8778 68.3457 62.0747 59.7504 61.1989 59.1715" fill="#076D38"/>
<path d="M52.7812 68.3086C52.7812 68.3086 52.9593 68.2789 52.989 68.5164C53.0187 68.7465 56.0842 78.0395 56.0842 78.0395C56.0842 78.0395 45.6407 82.3074 33.0596 77.4383L38.1143 61.9698C38.1143 61.9698 38.1885 61.9104 38.1885 61.9698C38.1885 62.0291 39.1831 64.8052 40.8458 65.8592L40.8309 66.0224C40.8309 66.0224 39.9699 66.1115 39.6211 67.1878C39.2722 68.2715 37.4611 73.6973 37.4611 73.868C37.4611 74.0388 37.7877 74.0462 37.9659 74.0907C38.144 74.1352 40.8532 74.9443 44.5719 75.0111C48.2906 75.0779 51.6455 74.4247 51.6455 74.4247C51.6455 74.4247 51.5787 72.9773 50.1759 72.4058L50.0868 72.1906C50.0868 72.1906 52.2987 70.8248 52.7812 68.316" fill="#076D38"/>
<path d="M31.8354 65.614C28.1242 65.3765 25.7564 66.8387 25.7564 66.8387C26.1869 65.7996 26.1572 63.8177 26.1572 63.8177C24.4723 64.9311 22.9136 64.6491 22.3643 64.5377C21.815 64.4264 22.0748 64.8049 22.0748 64.8049C22.0897 64.8346 22.1045 64.8643 22.1119 64.894C23.4925 68.0708 20.338 68.531 20.338 68.531C17.6659 68.2638 18.0815 65.9851 18.1038 65.7253C18.1261 65.4655 18.5194 63.4244 22.0006 62.593C25.4892 61.7617 24.7172 61.784 24.8508 61.6726C24.9845 61.5613 25.5263 61.0343 25.311 60.73C25.0884 60.4257 24.6727 60.73 24.6727 60.73C24.5614 60.7745 24.168 60.8413 24.168 60.8413C20.4196 61.4129 19.4027 61.9324 19.4027 61.9324C15.016 64.2705 16.0403 68.1005 16.0403 68.1005C17.6436 73.9792 22.6983 70.9879 22.6983 70.9879C26.4096 74.7882 31.6647 76.6884 31.6647 76.6884C31.6647 76.6884 34.2106 68.917 34.2626 68.6869C34.322 68.4494 35.517 65.8515 31.8057 65.6214M30.8408 69.1248C30.633 69.8819 30.4326 70.7726 30.2247 70.8543L26.9514 68.5088C26.9514 68.5088 28.5621 67.9224 30.2247 68.1599C30.2247 68.1599 31.0412 68.3677 30.8408 69.1248Z" fill="#076D38"/>
<path d="M29.3486 62.1994C29.3486 61.1973 30.1651 60.3809 31.1671 60.3809C32.1692 60.3809 32.9782 61.1973 32.9782 62.1994C32.9782 63.2014 32.1618 64.0105 31.1671 64.0105C30.1725 64.0105 29.3561 63.194 29.3561 62.1994" fill="#076D38"/>
<path d="M40.5635 82.4493C40.5635 81.4472 41.38 80.6382 42.3746 80.6382C43.3692 80.6382 44.1931 81.4472 44.1931 82.4493C44.1931 83.4513 43.3766 84.2678 42.3746 84.2678C41.3725 84.2678 40.5635 83.4513 40.5635 82.4493Z" fill="#076D38"/>
<path d="M46.7906 82.3604C46.7906 81.3584 47.6071 80.5493 48.6017 80.5493C49.5963 80.5493 50.4128 81.3658 50.4128 82.3604C50.4128 83.355 49.5963 84.1715 48.5943 84.1715C47.5923 84.1715 46.7832 83.355 46.7832 82.3604" fill="#076D38"/>
<path d="M60.8506 40.1776L63.1219 30.9366C63.1219 30.9366 63.8641 30.3799 65.8979 30.3799C67.7609 30.3799 68.6962 30.892 68.6962 30.892L70.1213 37.4238C70.1213 37.4238 68.3696 42.7087 66.3729 45.1358C64.8439 46.9989 60.8506 40.1702 60.8506 40.1702" fill="white"/>
<path d="M65.7262 45.5286C63.9225 45.5286 60.9238 40.4294 60.7902 40.2067L60.7754 40.1844L63.0615 30.8989L63.0764 30.884C63.0764 30.884 63.8557 30.3125 65.8969 30.3125C67.76 30.3125 68.6878 30.8172 68.7249 30.8395L68.7546 30.8543L70.1871 37.4307V37.4455C70.1649 37.4975 68.3983 42.7675 66.4239 45.1798C66.2384 45.4099 66.0008 45.5286 65.7262 45.5286M60.9238 40.1696C61.1465 40.5481 64.0636 45.4025 65.7262 45.4025C65.9637 45.4025 66.1567 45.306 66.32 45.1056C68.2276 42.7749 69.9422 37.7573 70.0535 37.4307L68.6358 30.9508C68.48 30.8692 67.5596 30.4535 65.9043 30.4535C64.0858 30.4535 63.3065 30.9063 63.1803 30.9879L60.9238 40.177V40.1696Z" fill="#076D38"/>
<path d="M68.9402 30.6984C68.9402 30.6984 67.6338 30.0972 65.8969 30.0972C64.1601 30.0972 62.876 30.6984 62.876 30.6984L63.1358 30.9062C63.1358 30.9062 64.1304 30.3792 65.9118 30.3792C67.6932 30.3792 68.6878 30.8691 68.6878 30.8691L68.9402 30.6984Z" fill="#076D38"/>
<path d="M68.8513 30.595L68.0793 26.9654H67.9161V27.2771H67.775V27.3959H67.6711V27.3588H67.5375V27.1806L67.4633 27.1138H67.3594V26.7724H67.2035V27.0619H67.0847L67.0179 27.1287V27.24H66.8992V27.1955H66.8324V27.0396L66.7656 26.9728H66.6765V26.6388H66.4983V26.9579L66.3425 27.0247V27.1583H66.1198V26.9951L66.053 26.9282H65.9639V26.5942H65.7932V26.9357H65.7041L65.6151 27.0247V27.1435H65.4221V26.9802L65.3701 26.9282H65.2588V26.6388H65.0955V26.9654H65.0064L64.9248 27.047V27.1583H64.7986V27.2177H64.7021V27.1064L64.6427 27.047H64.5388V26.7575H64.3904V27.099H64.3013L64.2196 27.1806V27.3513H64.0935V27.381H64.0192V27.2548H63.8485V26.9579H63.6704L62.9355 30.5875C62.9355 30.5875 64.0638 30.0902 65.86 30.0902C67.6637 30.0902 68.8216 30.5875 68.8216 30.5875" fill="white"/>
<path d="M62.8768 30.7058L63.6413 26.8907H63.9382V27.1876H64.1015V27.284H64.1757V27.1504L64.2945 27.0317H64.339V26.6902H64.621V26.9797H64.6879L64.7843 27.0762H64.866V27.0168L64.9922 26.8907H65.0367V26.5641H65.3336V26.8535H65.4078L65.4969 26.9426V27.0688H65.5563V26.9872L65.6825 26.861H65.7344V26.5195H66.0313V26.8535H66.0833L66.1872 26.9575V27.0762H66.2763V26.9649L66.4321 26.8981V26.5566H66.7439V26.8907H66.7958L66.8998 26.9946V27.1133H66.9517V27.0762L67.0556 26.9723H67.1373V26.6828H67.4268V27.0243H67.4936L67.5975 27.1356V27.2766H67.7014V27.195H67.8424V26.8832H68.1245L68.9261 30.691L68.8073 30.639C68.8073 30.639 67.6346 30.1491 65.868 30.1491C64.1015 30.1491 62.9807 30.6316 62.9658 30.639L62.8545 30.691L62.8768 30.7058ZM63.7526 27.0243L63.0549 30.4832C63.3889 30.357 64.4206 30.023 65.8903 30.023C67.36 30.023 68.4214 30.357 68.7628 30.4832L68.0354 27.0243H67.9909V27.336H67.8498V27.4548H67.6123V27.4177H67.4787V27.2024L67.449 27.1727H67.308V26.8313H67.2857V27.1208H67.1299L67.1002 27.1504V27.3063H66.8478V27.2618H66.781V27.0688L66.7513 27.0391H66.6177V26.7051H66.5732V27.002L66.4173 27.0688V27.2247H66.0684V27.0243L66.0388 26.9946H65.9126V26.6606H65.8755V27.0094H65.7418L65.6899 27.0614V27.2172H65.3707V27.0168L65.3559 27.002H65.2V26.7125H65.1629V27.0391H65.0367L64.9922 27.0836V27.2321H64.866V27.2915H64.6433V27.143L64.6285 27.1208H64.4874V26.8313H64.4652V27.1727H64.339L64.3019 27.2172V27.4251H64.1757V27.4548H63.9679V27.3286H63.7971V27.0317H63.7378L63.7526 27.0243Z" fill="#076D38"/>
<path d="M66.2315 29.4897H65.5635V30.0984H66.2315V29.4897Z" fill="white"/>
<path d="M66.2977 30.1646H65.4961V29.4224H66.2977V30.1646ZM65.6297 30.031H66.1641V29.5485H65.6297V30.031Z" fill="#076D38"/>
<path d="M29.801 40.1776L27.5297 30.9366C27.5297 30.9366 26.7874 30.3799 24.7537 30.3799C22.8906 30.3799 21.9554 30.892 21.9554 30.892L20.5303 37.4238C20.5303 37.4238 22.282 42.7087 24.2712 45.1358C25.8003 46.9989 29.801 40.1776 29.801 40.1776Z" fill="white"/>
<path d="M24.9164 45.5228C24.6418 45.5228 24.4042 45.404 24.2187 45.1739C22.2443 42.7616 20.4777 37.4916 20.4629 37.4397V37.4248L21.8954 30.8485L21.9251 30.8336C21.9622 30.8114 22.8901 30.3066 24.7531 30.3066C26.7943 30.3066 27.544 30.8559 27.5737 30.8782L27.5959 30.893V30.9153L29.8746 40.1786L29.8598 40.2008C29.7336 40.4161 26.7275 45.5154 24.9238 45.5154M20.5965 37.41C20.7078 37.744 22.4224 42.7616 24.3226 45.0849C24.4859 45.2853 24.6789 45.3818 24.9164 45.3818C26.5865 45.3818 29.5035 40.5274 29.7262 40.1563L27.4697 30.9672C27.3436 30.8856 26.5642 30.4328 24.7531 30.4328C23.0979 30.4328 22.1701 30.8485 22.0142 30.9301L20.5965 37.41V37.41Z" fill="#076D38"/>
<path d="M21.7109 30.6984C21.7109 30.6984 23.0173 30.0972 24.7542 30.0972C26.491 30.0972 27.7826 30.6984 27.7826 30.6984L27.5228 30.9062C27.5228 30.9062 26.5281 30.3792 24.7467 30.3792C22.9653 30.3792 21.9707 30.8691 21.9707 30.8691L21.7184 30.6984H21.7109Z" fill="#076D38"/>
<path d="M21.7998 30.5876L22.5717 26.958H22.735V27.2698H22.8761V27.3885H22.98V27.3514H23.1136V27.1733L23.1878 27.0991H23.2917V26.7576H23.4476V27.0471H23.5664L23.6332 27.1139V27.2253H23.7519V27.1807H23.8187V27.0323L23.8855 26.9655H23.982V26.6315H24.1602V26.9506L24.316 27.0174V27.151H24.5313V26.9877L24.5981 26.9209H24.6872V26.5869H24.8579V26.9283H24.9469L25.036 27.0174V27.1362H25.229V26.9729L25.281 26.9209H25.3923V26.6315H25.5556V26.958H25.6372L25.7189 27.0397V27.151H25.8451V27.2104H25.9416V27.0991L26.0009 27.0397H26.1049V26.7502H26.2607V27.0916H26.3498L26.4315 27.1733V27.344H26.5576V27.3737H26.6319V27.2475H26.8026V26.9506H26.9807L27.7155 30.5802C27.7155 30.5802 26.5873 30.0829 24.7911 30.0829C22.9948 30.0829 21.8295 30.5802 21.8295 30.5802" fill="white"/>
<path d="M27.7743 30.7057L27.6556 30.6538C27.6556 30.6538 26.5199 30.1639 24.7534 30.1639C22.9868 30.1639 21.8289 30.6538 21.8141 30.6538L21.6953 30.7057L22.5044 26.898H22.7864V27.2097H22.9274V27.2914H23.0314V27.1503L23.1353 27.039H23.2021V26.6976H23.4916V26.9871H23.5732L23.6771 27.091V27.1281H23.7365V27.0093L23.8404 26.9054H23.8924V26.5714H24.2041V26.9054L24.36 26.9722V27.0835H24.4491V26.9648L24.553 26.8609H24.6049V26.5269H24.9093V26.8683H24.9612L25.0948 26.9945V27.0761H25.1542V26.9499L25.2433 26.8609H25.3175V26.5714H25.6144V26.898H25.6589L25.7851 27.0242V27.091H25.8668L25.9633 26.9871H26.0301V26.6976H26.3121V27.039H26.3566L26.4754 27.1578V27.2914H26.5422V27.1949H26.7129V26.898H27.0098L27.7743 30.7132V30.7057ZM24.7608 30.0303C26.2305 30.0303 27.2622 30.3643 27.5962 30.4905L26.8985 27.0316H26.8391V27.3285H26.6758V27.4547H26.468V27.425H26.3418V27.2171L26.3047 27.1726H26.1785V26.8312H26.1562V27.1207H26.0152L26.0004 27.1429V27.2914H25.7777V27.232H25.6515V27.0835L25.607 27.039H25.4882V26.7124H25.4511V27.0019H25.2952V27.2171H24.9612V27.0613L24.9093 27.0093H24.7831V26.6605H24.746V26.9945H24.6198L24.5901 27.0242V27.2246H24.2412V27.0687L24.0854 27.0019V26.7124H24.0408V27.0464H23.9072L23.8775 27.0761V27.2691H23.8107V27.3136H23.5584V27.1578L23.5287 27.1281H23.3728V26.8386H23.3505V27.18H23.2095L23.1798 27.2097V27.425H23.0462V27.4621H22.8161V27.3433H22.6751V27.0316H22.6305L21.8957 30.4905C22.2372 30.3717 23.2986 30.0377 24.7682 30.0377" fill="#076D38"/>
<path d="M25.0811 29.4824H24.4131V30.0911H25.0811V29.4824Z" fill="white"/>
<path d="M25.1473 30.1573H24.3457V29.415H25.1473V30.1573ZM24.4793 30.0237H25.0137V29.5412H24.4793V30.0237Z" fill="#076D38"/>
<path d="M55.3125 27.7754L35.5983 27.9684L25.0286 33.5946L23.9746 43.9936C23.9746 43.9936 29.0739 55.6989 46.8211 55.9141" fill="white"/>
<path d="M46.8209 56.0465C37.6096 55.9351 31.8646 52.6841 28.658 49.9749C25.1843 47.0356 23.8705 44.074 23.8557 44.0443L23.8408 44.0146V43.9849L24.9022 33.5117L35.561 27.8409H35.5907L55.3048 27.6479V27.9077L35.6278 28.1007L25.1472 33.675L24.1006 43.9701C24.2491 44.2892 25.5851 47.043 28.8287 49.7819C31.9982 52.454 37.6912 55.6754 46.8135 55.7867V56.0465H46.8209Z" fill="#076D38"/>
<path d="M46.8213 55.9216C46.8213 55.9216 59.7068 55.9216 67.0996 44.1198L65.9343 33.5427L55.3126 27.7754" fill="white"/>
<path d="M46.8213 56.0458V55.786C46.8213 55.786 50.0723 55.7712 54.1547 54.3164C57.9031 52.9803 63.1657 50.1226 66.966 44.0881L65.8081 33.6224L55.2533 27.8922L55.3794 27.6621L66.0604 33.4591L67.2406 44.1475L67.2109 44.1846C63.3735 50.3156 58.0367 53.2104 54.2364 54.5613C50.1169 56.0235 46.8584 56.0384 46.8213 56.0384" fill="#076D38"/>
<path d="M54.0579 22.4819C54.0579 22.4819 51.2077 20.9009 45.5072 20.9009C39.2723 20.9009 37.0158 22.6081 37.0158 22.6081L30.0684 50.8581C34.3808 54.035 39.7028 55.9129 45.4775 55.9129C51.4378 55.9129 56.5964 54.1612 60.9757 50.7913L54.0653 22.4819H54.0579Z" fill="white"/>
<path d="M45.4623 56.0482C39.8434 56.0482 34.4918 54.289 29.9789 50.9711L29.9121 50.9192L29.9344 50.8375L36.8967 22.5429L36.9338 22.5132C37.0303 22.439 39.3016 20.7764 45.5068 20.7764H45.5217C51.185 20.7764 54.0947 22.3574 54.1243 22.3722L54.1763 22.4019L54.1911 22.4539L61.1238 50.8524L61.057 50.9043C56.6109 54.3261 51.3706 56.0556 45.4697 56.0556M30.209 50.8153C34.6551 54.0738 39.9325 55.7958 45.4697 55.7958C51.2741 55.7958 56.4402 54.096 60.8269 50.7485L53.9536 22.58C53.5528 22.3722 50.7174 21.0436 45.5291 21.0436H45.5142C39.8137 21.0436 37.4534 22.491 37.1342 22.6988L30.2164 50.8153H30.209Z" fill="#076D38"/>
<path d="M54.7784 21.8818C54.7784 21.8818 50.785 20.041 45.4779 20.041C40.1708 20.041 36.2295 21.8818 36.2295 21.8818L37.0311 22.5127C37.0311 22.5127 40.0669 20.902 45.5151 20.9094C50.9558 20.9094 54.0138 22.4162 54.0138 22.4162L54.7932 21.8892L54.7784 21.8818Z" fill="#076D38"/>
<path d="M54.674 21.7542L52.1801 10.4571H51.6753V11.4072H51.2448V11.7709H50.9257V11.6522H50.5248V11.1029L50.3096 10.8876H49.9978V9.84106H49.5154V10.7169H49.1517L48.9513 10.9173V11.2736H48.5876V11.14H48.3797V10.6724L48.1793 10.472H47.8973V9.44767H47.3629V10.4126L46.8878 10.6204V11.0361H46.2198V10.5462L46.012 10.3384H45.7373V9.30664H45.2252V10.3606H44.9505L44.6685 10.6427V10.999H44.0821V10.4942L43.9262 10.3384H43.5774V9.46251H43.0726V10.472H42.8129L42.5531 10.7318V11.0658H42.1745V11.2513H41.8925V10.9099L41.7217 10.7392H41.41V9.85591H40.9424V10.8951H40.6826L40.4377 11.1326V11.6596H40.0517V11.7412H39.8216V11.3627H39.3094V10.4571H38.775L36.3701 21.821C36.3701 21.821 39.9775 20.047 45.485 20.047C50.985 20.047 54.6815 21.7542 54.6815 21.7542" fill="white"/>
<path d="M36.177 22.0521L38.6561 10.3171H39.428V11.2301H39.9402V11.527H40.289V11.0742L40.6082 10.755H40.7938V9.71587H41.5286V10.5991H41.7587L42.0036 10.8441V11.1039H42.0259V10.9183H42.4044V10.6585L42.7385 10.3245H42.924V9.31505H43.6885V10.1909H43.9632L44.1933 10.421V10.8441H44.5124V10.5695L44.8687 10.2132H45.0691V9.15918H45.8485V10.1909H46.0489L46.3309 10.473V10.8886H46.7392V10.5175L47.2068 10.3097V9.30021H48.0084V10.3245H48.2088L48.4909 10.6066V11H48.6987V11.1336H48.8026V10.8515L49.0847 10.5695H49.3668V9.6936H50.1164V10.7402H50.3539L50.6434 11.0297V11.4973H51.0442V11.616H51.1036V11.2523H51.5341V10.3022H52.2764L54.852 21.963L54.607 21.8517C54.607 21.8517 50.8735 20.1519 45.4625 20.1519C40.0515 20.1519 36.4442 21.8962 36.4071 21.9111L36.1621 22.0298L36.177 22.0521ZM38.8713 10.5769L36.5407 21.5845C37.4388 21.1985 40.7938 19.907 45.4699 19.907C50.1535 19.907 53.5753 21.1614 54.4883 21.5251L52.0686 10.5769H51.8013V11.5344H51.3783V11.8981H50.7993V11.7793H50.3911V11.1558L50.2575 11.0222H49.8715V9.97566H49.6562V10.8515H49.2183L49.0921 10.9777V11.4082H48.4612V11.2746H48.2534V10.7253L48.1272 10.5991H47.7709V9.57484H47.4963V10.4952L47.0212 10.7031V11.1633H46.0934V10.5917L45.9598 10.4581H45.611V9.42639H45.3586V10.4804H45.0097L44.8093 10.6882V11.1187H43.9632V10.5398L43.8889 10.4655H43.4584V9.58969H43.2135V10.5991H42.8721L42.6939 10.7773V11.1855H42.3154V11.3711H41.7661V10.9554L41.6696 10.8589H41.2836V9.97566H41.0758V11.0148H40.7344L40.5711 11.1781V11.7793H40.1851V11.8684H39.6952V11.4824H39.1831V10.5769H38.8862H38.8713Z" fill="#076D38"/>
<path d="M46.6648 20.1747H44.3564V18.0444H46.6648V20.1747ZM44.6162 19.9149H46.3976V18.3042H44.6162V19.9149Z" fill="#076D38"/>
<path d="M53.7766 38.3064C53.7766 38.3064 50.5849 37.913 45.5079 41.6688C45.5079 41.6688 41.1509 38.1728 37.4248 37.9204C37.4248 37.9204 43.9566 40.9488 44.8399 42.2626C44.8399 42.2626 43.6078 43.7768 43.1327 43.9475C43.1327 43.9475 42.4127 42.3516 41.6927 43.131C41.6927 43.131 41.2548 43.4502 41.6631 43.8807C41.6631 43.8807 42.0713 44.3186 42.3608 44.0366L42.5463 44.2667C42.5463 44.2667 42.2866 44.6675 41.8115 44.7714C41.8115 44.7714 40.8614 44.2667 40.8466 45.38C40.8466 45.38 41.4033 46.5899 43.1995 45.0238C43.1995 45.0238 44.016 46.0109 44.6098 45.8402C44.6098 45.8402 45.738 45.4988 44.8102 44.7194C44.8102 44.7194 44.4985 44.43 44.0457 44.9866L43.6746 44.6675C43.6746 44.6675 45.352 43.1087 45.4708 43.0123C45.5896 42.9158 47.2151 44.66 47.2151 44.66L46.985 44.9718C46.985 44.9718 46.3318 44.2741 45.8494 45.1351C45.8494 45.1351 46.0201 46.5083 47.1854 45.5953L47.7644 45.0609C47.7644 45.0609 49.1078 46.4192 49.8649 45.8551C49.8649 45.8551 50.4439 45.3578 50.0431 44.9495C50.0431 44.9495 49.7313 44.5116 49.2637 44.8308C49.2637 44.8308 48.9371 44.905 48.4027 44.3186L48.6625 44.0366C48.6625 44.0366 49.2192 44.4968 49.5235 43.7322C49.5235 43.7322 49.7684 43.0345 48.6551 43.0419C48.6551 43.0419 48.2988 43.2052 47.9425 44.0291L46.265 42.3813C46.265 42.3813 48.5437 39.9616 53.7914 38.299" fill="#076D38"/>
<path d="M45.2698 32.8293C45.2698 32.8293 44.7576 33.4676 44.9061 34.2618C44.9061 34.2618 43.8669 33.1781 44.676 31.9831C44.676 31.9831 43.8744 32.0796 43.57 33.7348C43.57 33.7348 42.9985 32.3542 44.0154 31.1369C44.0154 31.1369 42.9391 31.7975 42.6571 32.7253C42.6571 32.7253 42.5754 31.0701 44.0525 30.4466C44.0525 30.4466 43.236 30.4244 42.7461 30.7881C42.7461 30.7881 43.1766 29.4965 44.8467 29.8677C44.8467 29.8677 44.2381 29.0883 43.8372 29.1032C43.8372 29.1032 44.9283 28.9621 45.4479 29.4965C45.4479 29.4965 45.3885 29.0512 45.6929 28.7988C45.6929 28.7988 45.9898 29.4075 46.1679 29.5337C46.1679 29.5337 46.8508 29.0215 47.4743 29.1996C47.4743 29.1996 46.873 29.6227 46.7766 29.8825C46.7766 29.8825 48.4986 29.838 48.7584 31.1072C48.7584 31.1072 47.7489 30.365 47.1996 30.5654C47.1996 30.5654 48.7361 31.1295 48.892 32.8218C48.892 32.8218 47.9122 31.3596 47.3852 31.2779C47.3852 31.2779 48.3056 32.7996 47.7563 33.72C47.7563 33.72 47.3778 32.0722 46.8879 31.8346C46.8879 31.8346 47.118 33.668 46.539 34.247C46.539 34.247 46.3089 32.9406 45.8636 32.755L45.7894 38.0918C45.8339 38.5372 45.9601 38.6856 45.9601 38.6856C45.9081 38.9602 45.9527 39.1978 45.9527 39.1978C46.0788 39.3759 46.0863 39.4947 46.0863 39.4947C46.1605 39.7916 46.0788 40.0068 46.0788 40.0068C46.1828 40.3037 46.398 40.5338 46.398 40.5338L44.6018 40.6006C44.7502 40.5041 44.9655 39.8658 44.9655 39.8658C44.8615 39.5392 45.0842 39.079 45.0842 39.079C45.0694 38.7821 45.3217 38.0844 45.3217 38.0844L45.2772 32.8367L45.2698 32.8293Z" fill="#076D38"/>
<path d="M45.4626 56.3589C30.9293 56.3589 19.1127 44.5349 19.1201 30.009C19.1201 15.4831 30.9442 3.6665 45.4775 3.6665C60.0033 3.6665 71.82 15.4906 71.82 30.0164C71.82 44.5423 59.9959 56.3663 45.47 56.3589M45.4775 4.36422C31.3376 4.36422 19.8253 15.8617 19.8253 30.009C19.8253 44.1489 31.3302 55.6612 45.47 55.6612C59.6099 55.6612 71.1222 44.1563 71.1222 30.0164C71.1222 15.8691 59.6173 4.36422 45.4775 4.36422" fill="white"/>
</g>
<defs>
<clipPath id="clip0_1437_989">
<rect width="91" height="91" fill="white"/>
</clipPath>
</defs>
</svg>
