<svg width="13" height="13" viewBox="0 0 13 13" fill="none" xmlns="http://www.w3.org/2000/svg">
<path d="M12.3664 4.96826L10.2653 2.86713C10.0501 2.65931 9.70723 2.66528 9.49941 2.88046C9.29666 3.09037 9.29666 3.42316 9.49941 3.63307L11.6005 5.73419C11.663 5.79785 11.7175 5.86879 11.763 5.94544C11.7549 5.94544 11.7484 5.9411 11.7403 5.9411L3.24478 5.95844C2.94563 5.95844 2.70312 6.20095 2.70312 6.5001C2.70312 6.79925 2.94563 7.04176 3.24478 7.04176L11.737 7.02442C11.7522 7.02442 11.7647 7.01682 11.7793 7.01576C11.7312 7.10739 11.6703 7.19166 11.5984 7.26601L9.49725 9.36713C9.28206 9.57496 9.2761 9.91786 9.48392 10.133C9.69174 10.3482 10.0346 10.3542 10.2498 10.1464C10.2543 10.142 10.2588 10.1376 10.2632 10.133L12.3643 8.03192C13.2101 7.18582 13.2101 5.81432 12.3643 4.96826H12.3664Z" fill="#011F15"/>
<path d="M3.79263 11.9167H2.70929C1.81184 11.9167 1.08429 11.1891 1.08429 10.2917V2.70834C1.08429 1.81088 1.81184 1.08334 2.70929 1.08334H3.79263C4.09179 1.08334 4.33429 0.840836 4.33429 0.541684C4.33429 0.242531 4.09181 0 3.79263 0H2.70929C1.21429 0.00180273 0.0027793 1.21332 0.000976562 2.70834V10.2917C0.0027793 11.7867 1.21429 12.9982 2.70932 13H3.79266C4.09181 13 4.33432 12.7575 4.33432 12.4583C4.33432 12.1592 4.09181 11.9167 3.79263 11.9167Z" fill="#011F15"/>
</svg>
