<svg width="84" height="100" viewBox="0 0 84 100" fill="none" xmlns="http://www.w3.org/2000/svg">
<path d="M50.3334 29.1667V1.91667C54.1878 3.37223 57.6887 5.63046 60.6042 8.54167L75.1209 23.0667C78.0354 25.9787 80.2954 29.4787 81.7501 33.3333H54.5C53.395 33.3333 52.3352 32.8943 51.5538 32.1129C50.7724 31.3315 50.3334 30.2717 50.3334 29.1667ZM83.6667 43.6875V79.1667C83.6601 84.69 81.463 89.9852 77.5575 93.8907C73.6519 97.7963 68.3567 99.9934 62.8334 100H21.1667C15.6434 99.9934 10.3482 97.7963 6.44262 93.8907C2.53705 89.9852 0.33999 84.69 0.333374 79.1667V20.8333C0.33999 15.31 2.53705 10.0148 6.44262 6.10925C10.3482 2.20367 15.6434 0.00661607 21.1667 0L39.9792 0C40.6584 0 41.3292 0.0541667 42 0.1V29.1667C42 32.4819 43.317 35.6613 45.6612 38.0055C48.0054 40.3497 51.1848 41.6667 54.5 41.6667H83.5667C83.6125 42.3375 83.6667 43.0083 83.6667 43.6875ZM61.6834 59.6292C60.9217 58.8297 59.8737 58.3652 58.7698 58.3379C57.6659 58.3105 56.5962 58.7225 55.7959 59.4833L40.7959 73.7792C40.3951 74.1823 39.916 74.4992 39.3881 74.7103C38.8603 74.9214 38.2948 75.0223 37.7265 75.0066C37.1582 74.991 36.5992 74.8593 36.0837 74.6195C35.5682 74.3798 35.1073 74.0371 34.7292 73.6125L28.1084 67.7208C27.6996 67.3564 27.2231 67.0761 26.706 66.8958C26.189 66.7155 25.6414 66.6389 25.0947 66.6702C23.9906 66.7335 22.9569 67.2328 22.2209 68.0583C21.8565 68.4671 21.5761 68.9436 21.3959 69.4607C21.2156 69.9778 21.1389 70.5253 21.1703 71.072C21.2336 72.1761 21.7329 73.2099 22.5584 73.9458L28.9917 79.6708C31.3237 82.0033 34.483 83.3196 37.7813 83.3329C41.0795 83.3462 44.2494 82.0553 46.6 79.7417L61.5375 65.5167C62.3371 64.755 62.8015 63.707 62.8288 62.6031C62.8562 61.4992 62.4442 60.4295 61.6834 59.6292Z" fill="#056946"/>
</svg>
