<svg width="19" height="19" viewBox="0 0 19 19" fill="none" xmlns="http://www.w3.org/2000/svg">
<g clip-path="url(#clip0_413_796)">
<path d="M6.485 12.5825C6.485 12.935 6.1775 13.2275 5.8175 13.2275H5.195V11.9375H5.825C6.185 11.9375 6.4925 12.23 6.4925 12.5825H6.485ZM11.75 6.5H16.655C16.3925 5.8175 15.995 5.1875 15.4625 4.655L12.8525 2.0375C12.32 1.505 11.69 1.1075 11.0075 0.845V5.75C11.0075 6.1625 11.345 6.5 11.7575 6.5H11.75ZM9.5675 11.9375H8.9375V14.5625H9.5675C9.9275 14.5625 10.235 14.27 10.235 13.9175V12.5825C10.235 12.23 9.9275 11.9375 9.5675 11.9375ZM17 8.3675V14.75C17 16.82 15.32 18.5 13.25 18.5H5.75C3.68 18.5 2 16.82 2 14.75V4.25C2 2.18 3.68 0.5 5.75 0.5H9.1325C9.2525 0.5 9.3725 0.5075 9.5 0.515V5.75C9.5 6.9875 10.5125 8 11.75 8H16.985C16.9925 8.12 17 8.24 17 8.3675ZM7.4225 12.5825C7.4225 11.7125 6.7025 11 5.8175 11H5C4.5875 11 4.25 11.3375 4.25 11.75V15.08C4.25 15.3425 4.46 15.545 4.715 15.545C4.97 15.545 5.18 15.335 5.18 15.08V14.165H5.81C6.695 14.165 7.415 13.4525 7.415 12.5825H7.4225ZM11.1725 12.5825C11.1725 11.7125 10.4525 11 9.5675 11H8.75C8.3375 11 8 11.3375 8 11.75V15.08C8 15.3425 8.21 15.5 8.465 15.5C8.72 15.5 9.56 15.5 9.56 15.5C10.445 15.5 11.165 14.7875 11.165 13.9175V12.5825H11.1725ZM14.765 11.4725C14.765 11.21 14.555 11.0075 14.3 11.0075H12.5675C12.305 11.0075 12.1025 11.2175 12.1025 11.4725V15.08C12.1025 15.3425 12.3125 15.545 12.5675 15.545C12.8225 15.545 13.0325 15.335 13.0325 15.08V13.73H13.9625C14.225 13.73 14.4275 13.52 14.4275 13.265C14.4275 13.01 14.2175 12.8 13.9625 12.8H13.0325V11.945H14.3C14.5625 11.945 14.765 11.735 14.765 11.48V11.4725Z" fill="#056946"/>
</g>
<defs>
<clipPath id="clip0_413_796">
<rect width="18" height="18" fill="white" transform="translate(0.5 0.5)"/>
</clipPath>
</defs>
</svg>
