<svg width="28" height="28" viewBox="0 0 28 28" fill="none" xmlns="http://www.w3.org/2000/svg">
<path d="M5.91484 0.858643L16.0248 0.858643C16.9549 0.858643 17.7098 1.6124 17.7098 2.54364C17.7098 3.47488 16.9549 4.22863 16.0248 4.22863H6.61243L27.3266 24.9417C27.9849 25.5988 27.9849 26.6671 27.3266 27.3243C26.9975 27.6534 26.5661 27.8174 26.1348 27.8174C25.7034 27.8174 25.272 27.6534 24.9429 27.3243L4.22984 6.61121V16.0236C4.22984 16.9548 3.47497 17.7086 2.54485 17.7086C1.61474 17.7086 0.859859 16.9548 0.859859 16.0236V5.91362C0.859859 3.12664 3.12786 0.858643 5.91484 0.858643Z" fill="white"/>
</svg>
