<svg width="19" height="18" viewBox="0 0 19 18" fill="none" xmlns="http://www.w3.org/2000/svg">
<path d="M0.829248 17.6707C1.049 17.8905 1.337 18 1.625 18C1.913 18 2.201 17.8905 2.42075 17.6707L16.25 3.84075V10.125C16.25 10.7467 16.7532 11.25 17.375 11.25C17.9967 11.25 18.5 10.7467 18.5 10.125V3.375C18.5 1.51425 16.9857 0 15.125 0H8.375C7.75325 0 7.25 0.50325 7.25 1.125C7.25 1.74675 7.75325 2.25 8.375 2.25H14.6592L0.829248 16.0793C0.389748 16.518 0.389748 17.2312 0.829248 17.67V17.6707Z" fill="white"/>
</svg>
